{"glyphs":{"0":{"ha":739,"x_min":67,"x_max":681,"o":"m 417 699 q 613 624 544 699 q 681 397 681 549 q 640 184 681 276 q 520 41 599 92 q 332 -10 442 -10 q 135 65 203 -10 q 67 290 67 140 q 108 503 67 410 q 228 647 149 596 q 417 699 307 699 m 403 604 q 215 524 281 604 q 150 303 150 443 q 342 83 150 83 q 530 162 464 83 q 596 381 596 240 q 403 604 596 604 z "},"1":{"ha":476,"x_min":43,"x_max":353,"o":"m 297 288 l 268 0 l 164 0 l 203 275 l 239 578 l 51 525 l 43 532 l 53 614 l 339 696 l 353 685 l 297 288 z "},"2":{"ha":631,"x_min":26,"x_max":560,"o":"m 356 696 q 483 656 433 696 q 532 550 532 615 q 487 431 532 494 q 319 238 442 367 l 175 86 l 178 82 l 436 82 l 554 90 l 560 82 l 535 -6 l 397 0 l 85 0 l 33 -3 l 26 3 l 36 68 l 251 285 q 388 433 347 381 q 428 528 428 485 q 401 585 428 563 q 329 607 375 607 q 126 511 226 607 l 114 511 l 108 592 q 356 696 233 696 z "},"3":{"ha":571,"x_min":0,"x_max":500,"o":"m 296 697 q 445 653 390 697 q 500 535 500 608 q 456 413 500 474 q 332 315 413 353 l 332 311 q 482 136 482 271 q 437 -2 482 60 q 313 -99 392 -64 q 139 -135 235 -135 q 0 -121 67 -135 l 4 -28 l 15 -19 q 150 -51 79 -51 q 317 -2 253 -51 q 381 129 381 47 q 338 222 381 188 q 214 258 294 256 l 133 258 l 128 267 l 140 339 l 200 340 q 287 363 242 340 q 362 426 332 386 q 392 514 392 465 q 362 585 392 558 q 281 611 332 611 q 96 528 199 611 l 85 528 l 79 611 q 296 697 192 697 z "},"4":{"ha":665,"x_min":13,"x_max":604,"o":"m 589 107 l 464 110 l 457 110 l 432 -119 l 424 -128 l 344 -135 l 339 -128 l 371 110 l 108 110 l 19 107 l 13 117 l 21 188 l 429 692 l 528 692 l 465 190 l 597 190 l 604 181 l 589 107 m 382 190 l 429 564 l 421 564 l 115 190 l 382 190 z "},"5":{"ha":578,"x_min":6,"x_max":557,"o":"m 538 606 l 529 599 l 431 606 l 221 606 l 192 383 l 278 365 q 494 154 494 319 q 447 8 494 74 q 318 -97 400 -58 q 138 -136 236 -136 q 6 -124 81 -136 l 8 -31 l 18 -22 q 161 -54 92 -54 q 330 1 265 -54 q 394 143 394 57 q 240 285 394 254 l 111 310 l 103 319 l 147 678 l 167 694 l 240 692 l 428 692 l 553 696 l 557 689 l 538 606 z "},"6":{"ha":650,"x_min":58,"x_max":625,"o":"m 624 765 q 185 429 274 653 l 192 421 q 371 483 286 483 q 525 423 465 483 q 585 271 585 363 q 558 145 585 210 q 469 35 532 81 q 306 -11 407 -11 q 122 58 185 -11 q 58 249 58 128 q 106 460 58 353 q 260 665 153 568 q 539 825 367 763 l 546 825 l 625 776 l 624 765 m 351 406 q 158 322 250 406 q 154 257 154 289 q 310 67 154 67 q 447 124 406 67 q 489 260 489 182 q 453 367 489 329 q 351 406 418 406 z "},"7":{"ha":578,"x_min":61,"x_max":583,"o":"m 525 692 l 583 694 l 575 617 l 229 19 l 147 -142 l 64 -115 l 61 -99 l 472 604 l 178 604 l 74 594 l 67 606 l 85 694 l 206 692 l 525 692 z "},"8":{"ha":658,"x_min":56,"x_max":592,"o":"m 382 822 q 535 774 478 822 q 592 639 592 725 q 429 429 592 503 l 428 422 q 536 346 499 388 q 574 228 574 304 q 539 106 574 160 q 442 21 504 51 q 297 -10 379 -10 q 121 45 186 -10 q 56 192 56 100 q 106 322 56 272 q 246 413 157 372 l 247 418 q 162 489 192 450 q 132 594 132 528 q 201 759 132 696 q 382 822 271 822 m 381 747 q 263 708 308 747 q 218 604 218 668 q 251 516 218 547 q 349 457 283 485 q 464 526 421 486 q 507 631 507 565 q 474 717 507 688 q 381 747 442 747 m 324 381 q 192 311 239 349 q 144 203 144 274 q 185 101 144 139 q 300 64 226 64 q 434 109 382 64 q 486 222 486 154 q 447 315 486 282 q 324 381 407 347 z "},"9":{"ha":650,"x_min":32,"x_max":599,"o":"m 33 -72 q 472 264 383 40 l 465 272 q 286 210 371 210 q 132 270 192 210 q 72 422 72 331 q 99 548 72 483 q 188 658 125 613 q 351 704 250 704 q 535 635 472 704 q 599 444 599 565 q 551 233 599 340 q 397 28 504 125 q 118 -132 290 -69 l 111 -132 l 32 -83 l 33 -72 m 306 288 q 499 371 407 288 q 503 436 503 404 q 347 626 503 626 q 210 569 251 626 q 168 433 168 511 q 203 326 168 364 q 306 288 239 288 z "}," ":{"ha":203,"x_min":0,"x_max":0,"o":""},"!":{"ha":363,"x_min":96,"x_max":321,"o":"m 218 300 l 154 293 l 144 307 l 218 900 l 231 913 l 311 917 l 321 903 l 218 300 m 158 117 q 201 101 186 117 q 217 58 217 86 q 200 11 217 29 q 154 -7 183 -7 q 111 10 126 -7 q 96 54 96 26 q 113 99 96 82 q 158 117 129 117 z "},"\"":{"ha":388,"x_min":110,"x_max":397,"o":"m 172 628 l 118 619 l 110 629 l 147 881 l 229 886 l 235 878 l 172 628 m 333 628 l 279 619 l 271 629 l 310 881 l 390 886 l 397 878 l 333 628 z "},"#":{"ha":713,"x_min":28,"x_max":685,"o":"m 479 344 l 628 344 l 635 338 l 629 281 l 464 281 l 411 44 l 350 44 l 343 54 l 394 281 l 240 281 l 188 44 l 126 44 l 119 54 l 171 281 l 36 281 l 28 288 l 33 344 l 185 344 l 222 508 l 85 508 l 76 515 l 82 572 l 236 572 l 288 797 l 349 797 l 356 788 l 307 572 l 460 572 l 511 797 l 572 797 l 579 788 l 531 572 l 676 572 l 685 565 l 678 508 l 517 508 l 479 344 m 293 508 l 256 344 l 408 344 l 446 508 l 293 508 z "},"$":{"ha":593,"x_min":39,"x_max":524,"o":"m 485 574 q 374 625 428 619 l 340 378 q 453 306 413 344 q 494 203 494 268 q 439 70 494 129 q 289 -3 383 11 l 267 -179 l 214 -179 l 206 -169 l 225 -7 q 39 40 118 -4 l 56 129 l 69 135 q 146 83 101 101 q 233 61 190 64 l 268 314 q 148 388 190 349 q 106 493 106 426 q 164 626 106 568 q 318 693 222 683 l 342 888 l 393 888 l 406 876 l 381 694 q 524 663 451 692 l 500 578 l 485 574 m 192 507 q 215 452 192 475 q 279 407 238 429 l 308 622 q 223 581 254 614 q 192 507 192 547 m 408 186 q 388 241 408 218 q 328 285 367 264 l 299 68 q 378 115 347 82 q 408 186 408 149 z "},"%":{"ha":1151,"x_min":94,"x_max":1086,"o":"m 974 896 l 190 -126 l 149 -100 l 143 -83 l 926 940 l 968 914 l 974 896 m 338 894 q 465 845 421 894 q 508 703 508 796 q 446 484 508 563 q 265 406 383 406 q 138 456 182 406 q 94 597 94 506 q 158 816 94 738 q 338 894 221 894 m 322 822 q 206 767 246 822 q 167 611 167 711 q 278 475 167 475 q 396 530 356 475 q 436 685 436 585 q 322 822 436 822 m 914 483 q 1042 434 997 483 q 1086 292 1086 385 q 1023 73 1086 151 q 843 -6 960 -6 q 715 44 760 -6 q 671 186 671 94 q 735 404 671 325 q 914 483 799 483 m 899 411 q 783 356 822 411 q 743 200 743 300 q 854 64 743 64 q 972 119 932 64 q 1013 274 1013 174 q 899 411 1013 411 z "},"&":{"ha":1040,"x_min":68,"x_max":1131,"o":"m 1131 435 q 1069 357 1103 383 q 985 325 1035 331 q 833 349 940 325 q 774 159 826 242 q 631 31 721 76 q 426 -15 542 -15 q 164 84 260 -15 q 68 351 68 183 q 103 535 68 456 q 201 657 139 614 q 339 700 263 700 q 451 665 410 700 q 493 575 493 629 q 488 532 493 553 q 715 746 615 628 q 868 988 814 864 l 879 988 q 921 915 908 958 q 751 669 868 796 q 480 438 633 543 q 169 274 326 333 q 258 119 190 175 q 433 64 325 64 q 598 101 525 64 q 713 207 671 139 q 754 364 754 275 q 674 375 703 375 q 561 288 603 375 l 549 286 l 526 343 q 588 422 554 396 q 674 453 622 447 q 825 429 701 453 q 983 404 944 404 q 1096 490 1063 404 l 1108 492 l 1131 435 m 338 628 q 209 556 258 628 q 160 365 160 483 l 160 349 q 372 454 264 388 q 424 553 424 499 q 400 609 424 590 q 338 628 376 628 z "},"'":{"ha":225,"x_min":110,"x_max":235,"o":"m 172 628 l 118 619 l 110 629 l 147 881 l 229 886 l 235 878 l 172 628 z "},"(":{"ha":399,"x_min":92,"x_max":444,"o":"m 443 875 q 234 585 292 769 q 176 211 176 401 q 208 -1 176 83 q 317 -151 239 -85 l 315 -161 l 272 -196 l 263 -196 q 131 -28 169 -121 q 92 211 92 65 q 159 614 92 421 q 400 919 226 807 l 410 919 l 444 885 l 443 875 z "},")":{"ha":399,"x_min":-36,"x_max":317,"o":"m -35 -153 q 174 137 117 -47 q 232 511 232 321 q 201 723 232 639 q 92 874 169 807 l 93 883 l 136 918 l 146 918 q 278 750 239 843 q 317 511 317 657 q 249 108 317 301 q 8 -197 182 -85 l -1 -197 l -36 -162 l -35 -153 z "},"*":{"ha":519,"x_min":119,"x_max":546,"o":"m 349 843 l 304 838 l 297 847 l 296 1004 q 374 1017 333 1017 l 379 1008 l 349 843 m 269 781 l 258 776 l 119 824 q 131 904 119 875 l 140 907 l 276 825 l 269 781 m 511 878 q 546 806 538 839 l 542 800 l 386 776 l 368 817 l 372 828 l 511 878 m 465 621 q 410 564 447 589 l 400 565 l 336 719 l 368 749 l 379 747 l 465 621 m 308 714 l 225 586 q 153 622 199 596 l 153 632 l 269 747 l 307 726 l 308 714 z "},"+":{"ha":663,"x_min":44,"x_max":631,"o":"m 379 406 l 622 406 l 631 397 l 617 332 l 369 332 l 340 85 l 274 79 l 267 88 l 296 332 l 51 332 l 44 340 l 60 406 l 304 406 l 335 653 l 401 658 l 410 650 l 379 406 z "},",":{"ha":318,"x_min":31,"x_max":193,"o":"m 136 117 q 193 25 193 81 q 65 -157 193 -64 l 31 -124 l 31 -115 q 107 7 107 -54 q 64 71 107 43 l 64 82 q 136 117 97 104 z "},"-":{"ha":428,"x_min":39,"x_max":397,"o":"m 389 339 l 47 292 l 39 301 l 47 368 l 389 415 l 397 406 l 389 339 z "},".":{"ha":319,"x_min":67,"x_max":188,"o":"m 129 117 q 172 101 157 117 q 188 58 188 86 q 171 11 188 29 q 126 -7 154 -7 q 83 10 99 -7 q 67 54 67 26 q 83 99 67 82 q 129 117 100 117 z "},"/":{"ha":400,"x_min":-4,"x_max":436,"o":"m 75 -157 l 3 -157 l -4 -146 l 357 942 l 428 942 l 436 929 l 75 -157 z "},":":{"ha":318,"x_min":67,"x_max":232,"o":"m 129 117 q 172 101 157 117 q 188 58 188 86 q 171 11 188 29 q 126 -7 154 -7 q 83 10 99 -7 q 67 54 67 26 q 83 99 67 82 q 129 117 100 117 m 174 492 q 217 476 201 492 q 232 433 232 461 q 215 386 232 404 q 171 368 199 368 q 127 385 143 368 q 111 429 111 401 q 128 474 111 457 q 174 492 144 492 z "},";":{"ha":318,"x_min":29,"x_max":231,"o":"m 135 117 q 192 25 192 81 q 64 -157 192 -64 l 29 -124 l 29 -115 q 106 7 106 -54 q 63 71 106 43 l 63 82 q 135 117 96 104 m 172 492 q 215 476 200 492 q 231 433 231 461 q 214 386 231 404 q 169 368 197 368 q 126 385 142 368 q 110 429 110 401 q 126 474 110 457 q 172 492 143 492 z "},"<":{"ha":692,"x_min":47,"x_max":640,"o":"m 635 572 l 135 374 l 135 367 l 589 181 l 565 121 l 553 113 l 47 325 l 58 411 l 68 422 l 624 643 l 640 582 l 635 572 z "},"=":{"ha":664,"x_min":40,"x_max":647,"o":"m 640 446 l 75 446 l 68 454 l 74 519 l 639 519 l 647 511 l 640 446 m 613 218 l 47 218 l 40 226 l 46 292 l 611 292 l 619 283 l 613 218 z "},">":{"ha":699,"x_min":72,"x_max":661,"o":"m 661 411 l 651 325 l 92 113 l 82 121 l 72 181 l 575 367 l 575 374 l 124 572 l 119 582 l 150 643 l 653 422 l 661 411 z "},"?":{"ha":460,"x_min":108,"x_max":501,"o":"m 181 918 q 419 856 336 908 q 501 717 501 804 q 465 606 501 658 q 361 514 428 554 l 235 438 l 232 432 l 222 297 l 147 289 l 140 299 l 149 457 l 157 471 l 300 551 q 404 696 404 608 q 147 842 404 825 l 140 853 l 168 911 l 181 918 m 171 117 q 214 101 199 117 q 229 58 229 86 q 213 11 229 29 q 168 -7 196 -7 q 108 54 108 -7 q 125 99 108 82 q 171 117 142 117 z "},"@":{"ha":1143,"x_min":50,"x_max":1100,"o":"m 1100 413 q 979 111 1100 218 q 632 -6 858 4 l 674 289 l 661 289 q 432 -10 550 100 l 413 -10 q 308 208 308 51 q 347 404 308 310 q 459 565 385 499 q 638 646 533 631 l 644 646 l 733 615 l 794 646 l 808 639 l 739 151 l 735 71 q 951 177 875 89 q 1028 410 1028 265 q 979 605 1028 521 q 841 735 931 689 q 631 781 751 781 q 365 716 481 781 q 187 536 250 651 q 124 274 124 421 q 190 15 124 124 q 376 -152 256 -94 q 657 -210 496 -210 l 660 -221 l 626 -274 q 324 -206 454 -271 q 122 -21 193 -140 q 50 260 50 99 q 123 566 50 432 q 328 775 196 700 q 633 850 461 850 q 879 796 774 850 q 1042 642 985 742 q 1100 413 1100 543 m 442 99 q 500 146 457 99 q 597 282 543 193 q 703 489 651 371 l 704 497 l 706 535 l 619 565 q 501 520 551 565 q 424 399 450 475 q 397 233 397 324 q 411 130 397 161 q 442 99 425 99 z "},"A":{"ha":761,"x_min":-19,"x_max":694,"o":"m 589 0 l 581 86 l 551 246 l 363 249 l 192 246 l 119 92 l 85 0 l -19 0 l 403 889 l 522 889 l 694 0 l 589 0 m 451 781 l 442 781 l 233 335 l 381 333 l 535 335 l 451 781 z "},"B":{"ha":711,"x_min":88,"x_max":654,"o":"m 497 464 q 654 279 654 418 q 559 67 654 140 q 276 -6 464 -6 q 89 0 157 -6 l 88 0 l 128 268 l 200 889 l 201 889 l 428 892 q 594 844 535 892 q 653 706 653 796 q 613 558 653 619 q 497 464 572 496 m 546 688 q 511 776 546 747 q 403 804 476 804 l 294 804 l 251 500 l 397 496 q 546 688 546 529 m 300 82 q 483 132 418 82 q 547 274 547 182 q 403 413 547 396 l 239 411 l 221 276 l 201 86 q 300 82 254 82 z "},"C":{"ha":694,"x_min":65,"x_max":726,"o":"m 500 897 q 726 829 635 897 l 693 733 l 682 731 q 488 808 601 808 q 256 694 338 808 q 174 369 174 579 q 231 155 174 229 q 393 81 288 81 q 625 165 514 81 l 638 158 l 615 60 q 376 -10 496 -10 q 147 85 228 -10 q 65 354 65 181 q 117 644 65 522 q 266 832 168 767 q 500 897 364 897 z "},"D":{"ha":861,"x_min":88,"x_max":832,"o":"m 497 896 q 744 806 657 896 q 832 549 832 715 q 778 251 832 376 q 621 59 725 126 q 369 -8 517 -8 q 89 0 233 -8 l 88 0 l 128 268 l 200 889 l 201 889 l 497 896 m 390 79 q 635 195 549 79 q 722 529 722 311 q 486 808 722 808 q 293 803 393 808 l 221 276 l 201 88 q 390 79 329 79 z "},"E":{"ha":640,"x_min":88,"x_max":678,"o":"m 253 500 l 413 497 l 551 501 l 558 492 l 539 411 l 392 414 l 240 413 l 222 276 l 203 89 l 372 86 l 574 92 l 578 82 l 560 0 l 88 0 l 128 268 l 200 889 l 674 889 l 678 879 l 660 797 l 463 803 l 292 800 l 253 500 z "},"F":{"ha":576,"x_min":88,"x_max":656,"o":"m 250 483 l 393 481 l 532 483 l 538 474 l 518 393 l 372 397 l 239 396 l 222 276 l 193 0 l 88 0 l 128 268 l 200 889 l 649 889 l 656 879 l 633 796 l 443 803 l 292 800 l 250 483 z "},"G":{"ha":799,"x_min":63,"x_max":778,"o":"m 529 897 q 778 833 663 897 l 743 735 l 731 732 q 622 790 672 772 q 511 808 571 808 q 257 692 344 808 q 169 354 169 576 q 228 147 169 214 q 408 81 286 81 q 583 114 479 81 l 601 222 l 614 347 l 713 356 l 696 236 l 676 43 q 533 3 594 15 q 401 -10 472 -10 q 149 83 235 -10 q 63 344 63 175 q 185 753 63 608 q 529 897 307 897 z "},"H":{"ha":907,"x_min":88,"x_max":853,"o":"m 771 276 l 742 0 l 638 0 l 676 268 l 692 404 l 456 408 l 239 404 l 221 276 l 193 0 l 88 0 l 128 268 l 199 889 l 304 889 l 250 496 l 475 492 l 703 496 l 747 889 l 853 889 l 771 276 z "},"I":{"ha":360,"x_min":88,"x_max":304,"o":"m 193 0 l 88 0 l 128 268 l 199 889 l 304 889 l 221 276 l 193 0 z "},"J":{"ha":413,"x_min":-43,"x_max":350,"o":"m 269 294 l 257 164 q 183 -9 243 60 q -10 -140 122 -78 l -43 -82 l -42 -69 q 104 35 58 -17 q 160 164 150 86 l 175 285 l 235 804 l 69 803 l 60 813 l 76 889 l 350 889 l 269 294 z "},"K":{"ha":722,"x_min":86,"x_max":772,"o":"m 192 0 l 86 0 l 128 268 l 199 889 l 304 889 l 221 276 l 192 0 m 376 469 q 688 22 514 240 l 683 10 q 582 -12 635 -4 l 572 -6 q 264 467 381 265 l 265 475 l 592 814 l 654 889 l 772 889 l 376 469 z "},"L":{"ha":550,"x_min":85,"x_max":518,"o":"m 500 0 l 85 0 l 125 268 l 196 889 l 301 889 l 219 276 l 199 89 l 514 89 l 518 78 l 500 0 z "},"M":{"ha":1046,"x_min":43,"x_max":953,"o":"m 829 0 l 844 271 l 856 724 l 847 724 l 533 103 l 446 103 l 299 724 l 289 724 l 190 279 l 132 0 l 43 0 l 243 889 l 361 889 l 389 754 l 507 239 l 517 239 l 776 763 l 835 889 l 953 889 l 922 0 l 829 0 z "},"N":{"ha":907,"x_min":88,"x_max":854,"o":"m 739 0 l 631 0 l 282 722 l 272 722 l 218 292 l 186 0 l 88 0 l 126 264 l 201 889 l 310 889 l 658 167 l 667 167 l 756 885 l 854 892 l 768 260 l 739 0 z "},"O":{"ha":849,"x_min":65,"x_max":819,"o":"m 500 899 q 736 806 653 899 q 819 543 819 713 q 768 247 819 372 q 619 56 717 122 q 382 -11 521 -11 q 149 85 233 -11 q 65 354 65 182 q 178 755 65 611 q 500 899 292 899 m 488 811 q 251 696 329 811 q 172 361 172 581 q 392 76 172 76 q 630 193 550 76 q 710 531 710 310 q 488 811 710 811 z "},"P":{"ha":692,"x_min":88,"x_max":685,"o":"m 446 892 q 621 833 557 892 q 685 661 685 775 q 642 483 685 561 q 518 360 599 404 q 331 315 438 315 l 228 315 l 222 276 l 193 0 l 88 0 l 128 268 l 200 889 l 201 889 l 446 892 m 390 400 q 526 479 474 411 q 578 647 578 547 q 541 763 578 724 q 422 806 504 801 l 293 801 l 239 403 l 390 400 z "},"Q":{"ha":844,"x_min":65,"x_max":936,"o":"m 936 -196 q 892 -262 914 -239 l 882 -265 q 408 -11 607 -204 l 382 -11 q 149 85 233 -11 q 65 354 65 182 q 178 755 65 611 q 500 899 292 899 q 736 806 653 899 q 819 543 819 713 q 740 189 819 329 q 510 6 660 49 q 935 -181 693 -139 l 936 -196 m 172 361 q 392 76 172 76 q 630 193 550 76 q 710 531 710 310 q 488 811 710 811 q 251 696 329 811 q 172 361 172 581 z "},"R":{"ha":735,"x_min":88,"x_max":686,"o":"m 686 675 q 630 486 686 568 q 472 360 574 404 q 651 25 551 192 l 649 13 q 550 -12 599 -7 l 539 -3 q 383 333 449 171 l 229 333 l 221 276 l 193 0 l 88 0 l 128 268 l 200 889 l 201 889 l 449 892 q 624 835 561 892 q 686 675 686 779 m 400 418 q 578 658 578 472 q 422 806 578 797 l 292 801 l 240 422 l 400 418 z "},"S":{"ha":626,"x_min":26,"x_max":610,"o":"m 414 897 q 610 854 514 897 l 581 756 l 561 750 q 400 811 489 811 q 307 790 347 811 q 244 735 267 769 q 222 664 222 701 q 258 578 222 613 q 369 497 294 544 q 469 430 431 460 q 534 355 507 400 q 561 250 561 310 q 522 119 561 179 q 413 25 482 60 q 257 -10 343 -10 q 26 53 132 -10 l 53 160 l 67 165 q 161 99 107 121 q 268 76 215 76 q 403 122 350 76 q 456 231 456 167 q 419 321 456 285 q 308 403 383 357 q 211 468 249 439 q 147 542 174 497 q 121 646 121 586 q 159 773 121 715 q 265 864 197 831 q 414 897 332 897 z "},"T":{"ha":649,"x_min":92,"x_max":690,"o":"m 671 799 l 526 806 l 439 806 l 368 276 l 339 0 l 235 0 l 275 268 l 335 806 l 250 806 l 99 799 l 92 808 l 111 889 l 685 889 l 690 879 l 671 799 z "},"U":{"ha":829,"x_min":96,"x_max":801,"o":"m 729 336 q 622 81 713 171 q 378 -10 532 -10 q 171 58 246 -10 q 96 250 96 126 q 101 325 96 290 l 118 446 l 172 889 l 274 889 l 200 338 q 196 275 196 304 q 385 83 196 83 q 633 325 604 83 l 697 889 l 801 889 l 742 438 l 729 336 z "},"V":{"ha":742,"x_min":90,"x_max":804,"o":"m 264 0 l 90 889 l 197 889 l 206 801 l 336 108 l 343 108 l 668 797 l 701 889 l 804 889 l 385 0 l 264 0 z "},"W":{"ha":1179,"x_min":99,"x_max":1239,"o":"m 717 0 l 617 525 l 607 525 l 368 0 l 258 0 l 99 889 l 203 889 l 206 807 l 329 117 l 339 117 l 589 665 l 544 889 l 653 889 l 661 797 l 785 117 l 794 117 l 1110 800 l 1140 889 l 1239 889 l 824 0 l 717 0 z "},"X":{"ha":779,"x_min":-6,"x_max":790,"o":"m 696 0 l 575 0 l 549 71 l 389 382 l 147 64 l 106 0 l -6 0 l 338 456 l 121 889 l 242 889 l 268 821 l 415 531 l 635 821 l 678 889 l 790 889 l 471 457 l 696 0 z "},"Y":{"ha":697,"x_min":92,"x_max":750,"o":"m 375 260 l 347 0 l 242 0 l 282 260 l 289 324 l 92 889 l 201 889 l 211 840 l 347 436 l 358 436 l 610 838 l 636 889 l 750 889 l 385 324 l 375 260 z "},"Z":{"ha":699,"x_min":4,"x_max":718,"o":"m 140 85 l 493 85 l 618 94 l 622 86 l 604 -3 l 451 0 l 79 0 l 4 -4 l 14 74 l 583 803 l 253 803 l 128 794 l 122 801 l 143 890 l 651 889 l 718 890 l 708 813 l 140 85 z "},"[":{"ha":400,"x_min":67,"x_max":449,"o":"m 442 840 l 274 825 l 160 -107 l 324 -122 l 318 -174 l 310 -181 l 67 -167 l 136 360 l 196 885 l 443 899 l 449 890 l 442 840 z "},"\\":{"ha":404,"x_min":42,"x_max":407,"o":"m 407 -146 l 399 -157 l 326 -157 l 42 929 l 51 942 l 122 942 l 407 -146 z "},"]":{"ha":400,"x_min":-39,"x_max":343,"o":"m -32 -122 l 136 -107 l 250 825 l 86 840 l 92 892 l 100 899 l 343 885 l 274 358 l 214 -167 l -33 -181 l -39 -172 l -32 -122 z "},"^":{"ha":588,"x_min":13,"x_max":542,"o":"m 533 174 l 471 160 l 339 603 l 332 603 l 81 163 l 68 156 l 13 179 l 292 676 l 304 682 l 392 682 l 542 185 l 533 174 z "},"_":{"ha":626,"x_min":-82,"x_max":592,"o":"m 578 -192 l -75 -192 l -82 -183 l -68 -122 l 585 -122 l 592 -129 l 578 -192 z "},"`":{"ha":542,"x_min":196,"x_max":472,"o":"m 246 965 q 472 764 343 872 l 443 722 l 432 721 q 197 897 325 796 l 196 910 l 235 964 l 246 965 z "},"a":{"ha":682,"x_min":-4,"x_max":597,"o":"m 497 0 l 493 74 l 471 181 l 314 182 l 174 181 l 122 78 l 93 0 l -4 0 l 339 692 l 451 692 l 597 0 l 497 0 m 383 593 l 378 593 l 213 261 l 453 261 l 383 593 z "},"b":{"ha":644,"x_min":85,"x_max":567,"o":"m 438 360 q 567 214 567 328 q 251 -4 567 -4 q 85 0 163 -4 l 114 208 l 171 692 l 371 693 q 515 653 463 693 q 567 540 567 614 q 533 431 567 476 q 438 360 499 385 m 463 528 q 339 615 463 615 l 258 615 l 228 394 l 349 390 q 463 528 463 415 m 271 71 q 415 107 364 71 q 467 211 467 143 q 350 315 467 300 l 217 314 l 204 217 l 189 75 q 271 71 231 71 z "},"c":{"ha":618,"x_min":63,"x_max":615,"o":"m 428 697 q 615 649 542 697 l 586 558 l 572 554 q 410 617 513 617 q 228 533 292 617 q 165 293 165 450 q 210 131 165 188 q 340 75 256 75 q 532 139 440 75 l 544 135 l 525 44 q 332 -8 428 -8 q 133 68 204 -8 q 63 282 63 144 q 159 588 63 479 q 428 697 256 697 z "},"d":{"ha":763,"x_min":85,"x_max":708,"o":"m 425 697 q 634 625 560 697 q 708 422 708 553 q 608 107 708 221 q 324 -7 507 -7 q 85 0 189 -7 l 114 208 l 171 692 l 425 697 m 342 74 q 538 158 468 74 q 607 403 607 243 q 413 613 607 613 l 258 608 l 204 217 l 190 81 q 342 74 264 74 z "},"e":{"ha":582,"x_min":85,"x_max":579,"o":"m 229 394 l 363 393 l 478 397 l 482 388 l 467 311 l 343 314 l 218 314 l 204 217 l 190 81 l 319 79 l 497 83 l 504 76 l 486 0 l 85 0 l 114 208 l 171 692 l 575 692 l 579 682 l 563 607 l 397 613 l 258 611 l 229 394 z "},"f":{"ha":519,"x_min":78,"x_max":553,"o":"m 219 378 l 335 376 l 451 381 l 458 371 l 440 296 l 317 297 l 208 296 l 197 217 l 175 0 l 78 0 l 107 208 l 164 692 l 547 692 l 553 682 l 533 607 l 374 613 l 251 611 l 219 378 z "},"g":{"ha":708,"x_min":63,"x_max":663,"o":"m 451 697 q 663 650 556 697 l 617 556 l 607 556 q 517 602 556 589 q 433 615 478 615 q 232 532 300 615 q 164 293 164 449 q 208 128 164 181 q 354 75 251 75 q 501 104 421 75 l 511 178 l 521 275 l 611 282 l 599 192 l 579 33 q 347 -8 440 -8 q 63 288 63 -8 q 109 505 63 413 q 243 647 156 597 q 451 697 331 697 z "},"h":{"ha":800,"x_min":85,"x_max":725,"o":"m 661 217 l 638 0 l 540 0 l 571 208 l 582 306 l 217 304 l 204 217 l 182 0 l 85 0 l 115 208 l 171 692 l 269 692 l 228 392 l 411 390 l 592 392 l 626 692 l 725 692 l 661 217 z "},"i":{"ha":350,"x_min":85,"x_max":269,"o":"m 182 0 l 85 0 l 115 208 l 171 692 l 269 692 l 204 217 l 182 0 z "},"j":{"ha":399,"x_min":-3,"x_max":303,"o":"m 243 229 l 231 128 q 176 -9 219 44 q 32 -110 132 -62 l -3 -56 l -1 -44 q 100 32 68 -8 q 139 132 132 72 l 150 218 l 197 615 l 64 615 l 58 622 l 74 692 l 303 692 l 243 229 z "},"k":{"ha":653,"x_min":85,"x_max":665,"o":"m 342 367 q 599 22 456 194 l 596 7 q 500 -12 547 -7 l 485 -6 q 235 361 329 208 l 235 369 l 499 631 l 553 692 l 665 693 l 342 367 m 182 0 l 85 0 l 114 208 l 171 692 l 269 692 l 204 217 l 182 0 z "},"l":{"ha":506,"x_min":82,"x_max":451,"o":"m 433 0 l 82 0 l 113 208 l 169 692 l 267 692 l 203 217 l 188 82 l 444 82 l 451 74 l 433 0 z "},"m":{"ha":914,"x_min":47,"x_max":806,"o":"m 703 0 l 715 211 l 719 540 l 713 540 l 461 78 l 383 78 l 260 540 l 251 540 l 175 219 l 131 0 l 47 0 l 208 692 l 319 692 l 340 588 l 440 204 l 447 204 l 651 592 l 699 692 l 806 692 l 789 0 l 703 0 z "},"n":{"ha":801,"x_min":85,"x_max":725,"o":"m 635 0 l 532 0 l 244 538 l 239 538 l 199 229 l 172 0 l 85 0 l 114 204 l 172 692 l 274 692 l 563 154 l 569 154 l 635 688 l 725 694 l 657 206 l 635 0 z "},"o":{"ha":750,"x_min":63,"x_max":696,"o":"m 426 699 q 626 624 557 699 q 696 403 696 550 q 653 188 696 282 q 528 42 610 94 q 333 -10 446 -10 q 133 67 203 -10 q 63 293 63 143 q 158 589 63 479 q 426 699 254 699 m 414 617 q 227 536 290 617 q 164 299 164 456 q 206 126 164 179 q 343 74 249 74 q 531 156 468 74 q 593 392 593 238 q 551 563 593 508 q 414 617 508 617 z "},"p":{"ha":625,"x_min":85,"x_max":590,"o":"m 389 693 q 537 644 483 693 q 590 507 590 594 q 553 372 590 433 q 452 276 517 311 q 307 240 388 240 l 207 240 l 204 217 l 181 0 l 85 0 l 114 208 l 171 692 l 389 693 m 343 317 q 449 378 411 329 q 488 497 488 428 q 456 584 488 556 q 360 615 425 613 l 258 614 l 218 319 l 343 317 z "},"q":{"ha":747,"x_min":63,"x_max":771,"o":"m 771 -147 q 721 -207 744 -186 l 711 -208 q 354 -10 508 -154 l 333 -10 q 133 67 203 -10 q 63 293 63 143 q 158 589 63 479 q 426 699 254 699 q 626 624 557 699 q 696 403 696 550 q 631 147 696 253 q 447 7 565 42 q 768 -135 586 -100 l 771 -147 m 164 299 q 206 126 164 179 q 343 74 249 74 q 531 156 468 74 q 593 392 593 238 q 551 563 593 508 q 414 617 508 617 q 227 536 290 617 q 164 299 164 456 z "},"r":{"ha":664,"x_min":85,"x_max":592,"o":"m 592 517 q 547 376 592 436 q 421 281 503 315 q 571 24 486 154 l 567 11 q 475 -10 511 -7 l 460 0 q 338 254 371 179 l 211 254 l 206 217 l 182 0 l 85 0 l 115 208 l 172 692 l 389 693 q 538 646 483 693 q 592 517 592 599 m 349 332 q 489 504 489 371 q 363 614 489 607 l 260 613 l 222 336 l 349 332 z "},"s":{"ha":568,"x_min":39,"x_max":515,"o":"m 351 697 q 515 665 442 697 l 489 568 l 471 564 q 342 621 410 621 q 242 586 279 621 q 204 507 204 551 q 233 446 204 469 q 324 392 263 422 q 408 344 376 365 q 463 290 440 324 q 486 207 486 256 q 456 103 486 153 q 367 23 425 54 q 233 -8 310 -8 q 133 4 186 -8 q 39 39 79 17 l 61 142 l 75 147 q 155 90 108 110 q 244 69 201 69 q 347 105 306 69 q 388 186 388 140 q 358 251 388 226 q 267 304 328 275 q 183 351 215 329 q 128 406 151 372 q 106 490 106 440 q 136 592 106 544 q 222 669 167 640 q 351 697 278 697 z "},"t":{"ha":585,"x_min":81,"x_max":586,"o":"m 569 600 l 446 608 l 378 608 l 325 217 l 301 0 l 206 0 l 235 208 l 283 608 l 213 608 l 86 600 l 81 610 l 97 692 l 582 692 l 586 682 l 569 600 z "},"u":{"ha":736,"x_min":89,"x_max":682,"o":"m 622 240 q 533 57 608 122 q 329 -8 457 -8 q 151 43 214 -8 q 89 190 89 94 q 93 240 89 214 l 108 346 l 149 692 l 247 692 l 186 257 q 183 217 183 229 q 338 76 183 76 q 535 257 511 76 l 583 692 l 682 692 l 635 339 l 622 240 z "},"v":{"ha":667,"x_min":83,"x_max":686,"o":"m 231 0 l 83 692 l 183 692 l 192 617 l 299 97 l 304 97 l 561 613 l 589 692 l 686 692 l 344 0 l 231 0 z "},"w":{"ha":1026,"x_min":92,"x_max":1044,"o":"m 610 0 l 522 388 l 517 388 l 328 0 l 226 0 l 92 692 l 188 692 l 190 619 l 293 106 l 299 106 l 499 518 l 465 692 l 563 692 l 568 613 l 672 106 l 681 106 l 926 615 l 954 692 l 1044 692 l 710 0 l 610 0 z "},"x":{"ha":696,"x_min":8,"x_max":678,"o":"m 607 0 l 492 0 l 468 58 l 338 288 l 151 53 l 115 0 l 8 0 l 293 354 l 101 692 l 221 692 l 242 633 l 361 419 l 532 635 l 567 692 l 678 692 l 410 354 l 607 0 z "},"y":{"ha":629,"x_min":83,"x_max":642,"o":"m 336 199 l 314 0 l 217 0 l 246 199 l 251 247 l 83 692 l 188 692 l 197 651 l 308 350 l 317 350 l 517 649 l 539 692 l 642 692 l 343 242 l 336 199 z "},"z":{"ha":628,"x_min":17,"x_max":610,"o":"m 143 78 l 425 78 l 536 89 l 542 82 l 521 -3 l 386 0 l 83 0 l 17 -3 l 25 69 l 483 613 l 211 613 l 108 601 l 106 610 l 124 693 l 242 692 l 553 692 l 610 693 l 600 618 l 143 78 z "},"{":{"ha":400,"x_min":54,"x_max":442,"o":"m 368 910 q 438 900 399 910 l 442 892 l 424 833 q 374 840 393 840 q 296 806 321 840 q 271 696 271 772 q 274 615 271 671 q 276 542 276 563 q 164 364 276 411 l 163 360 q 240 236 240 324 q 211 106 240 204 q 179 -35 179 13 q 256 -118 179 -118 q 307 -111 275 -118 l 311 -168 l 304 -176 q 233 -186 274 -186 q 94 -56 94 -186 q 128 106 94 0 q 154 231 154 196 q 54 335 154 317 l 60 389 q 160 438 129 400 q 192 550 192 476 l 190 621 q 188 697 188 676 q 368 910 188 910 z "},"|":{"ha":436,"x_min":94,"x_max":356,"o":"m 268 400 l 175 -360 l 101 -364 l 94 -353 l 186 393 l 274 1100 l 349 1107 l 356 1100 l 268 400 z "},"}":{"ha":400,"x_min":-31,"x_max":357,"o":"m 43 -186 q -26 -176 13 -186 l -31 -168 l -12 -110 q 38 -117 18 -117 q 115 -83 90 -117 q 140 28 140 -49 q 138 108 140 53 q 135 182 135 161 q 247 360 135 313 l 249 364 q 171 488 171 400 q 200 618 171 519 q 232 758 232 711 q 156 842 232 842 q 104 835 136 842 l 100 892 l 107 900 q 178 910 138 910 q 317 779 317 910 q 283 618 317 724 q 257 493 257 528 q 357 389 257 407 l 351 335 q 251 285 282 324 q 219 174 219 247 l 221 103 q 224 26 224 47 q 43 -186 224 -186 z "},"~":{"ha":667,"x_min":74,"x_max":606,"o":"m 210 360 q 181 349 197 360 q 135 311 165 338 l 110 289 l 97 289 l 74 325 l 74 336 l 185 435 l 200 442 q 325 408 233 435 q 468 374 450 374 q 503 388 483 374 q 569 444 522 403 l 582 444 l 606 408 l 604 397 l 493 296 l 479 293 q 336 329 447 297 q 210 360 228 360 z "}," ":{"ha":203,"x_min":0,"x_max":0,"o":""},"¡":{"ha":363,"x_min":43,"x_max":268,"o":"m 146 342 l 210 349 l 219 335 l 146 -258 l 133 -271 l 53 -275 l 43 -261 l 146 342 m 206 525 q 163 540 178 525 q 147 583 147 556 q 164 631 147 613 q 210 649 181 649 q 253 632 238 649 q 268 588 268 615 q 251 542 268 560 q 206 525 235 525 z "},"¢":{"ha":540,"x_min":58,"x_max":503,"o":"m 479 593 l 460 589 q 369 633 414 629 l 285 132 q 404 254 351 158 l 419 253 l 447 214 q 274 63 374 97 l 235 -165 l 183 -165 l 176 -156 l 210 53 q 96 116 133 67 q 58 282 58 165 q 123 553 58 442 q 315 693 188 664 l 351 906 l 403 906 l 413 894 l 381 701 l 400 701 l 494 674 l 503 660 l 479 593 m 140 296 q 221 125 140 138 l 304 626 q 183 516 226 603 q 140 296 140 429 z "},"£":{"ha":581,"x_min":1,"x_max":574,"o":"m 428 824 q 574 799 494 824 l 558 719 l 551 713 q 415 756 485 756 q 267 613 286 756 l 249 465 l 426 465 l 429 458 l 417 406 l 242 406 l 218 221 q 144 79 207 125 l 144 75 l 376 75 l 500 83 l 504 75 l 486 -3 l 353 0 l 7 0 l 1 8 l 13 63 q 132 211 117 82 l 156 406 l 57 406 l 53 414 l 65 465 l 163 465 l 179 600 q 256 766 192 708 q 428 824 321 824 z "},"¤":{"ha":606,"x_min":43,"x_max":604,"o":"m 601 697 l 499 610 q 524 517 524 572 q 472 390 524 446 l 556 303 l 556 292 l 504 243 l 493 244 l 415 338 q 300 299 360 299 q 196 336 240 299 l 97 242 l 86 243 l 43 288 l 47 300 l 150 386 q 124 481 124 422 q 176 608 124 546 l 93 694 l 94 707 l 144 753 l 156 753 l 233 658 q 349 696 283 696 q 451 661 410 696 l 550 754 l 563 754 l 604 710 l 601 697 m 342 635 q 233 590 279 635 q 186 483 186 546 q 220 396 186 431 q 307 361 254 361 q 417 406 371 361 q 463 513 463 450 q 428 600 463 565 q 342 635 394 635 z "},"¥":{"ha":718,"x_min":35,"x_max":693,"o":"m 679 401 l 668 353 l 458 353 l 379 240 l 376 222 l 650 222 l 656 215 l 646 169 l 369 169 l 350 0 l 265 0 l 290 169 l 40 169 l 35 175 l 44 222 l 297 222 l 299 247 l 256 353 l 63 353 l 58 361 l 68 407 l 233 407 l 118 690 l 211 690 l 221 651 l 350 342 l 357 342 l 579 649 l 601 690 l 693 690 l 496 407 l 674 407 l 679 401 z "},"¦":{"ha":436,"x_min":94,"x_max":356,"o":"m 283 517 l 210 508 l 201 517 l 274 1100 l 349 1107 l 356 1100 l 283 517 m 175 -360 l 103 -364 l 94 -353 l 165 214 l 238 222 l 246 211 l 175 -360 z "},"§":{"ha":583,"x_min":10,"x_max":561,"o":"m 392 825 q 300 792 338 825 q 263 719 263 758 q 291 656 263 685 q 376 585 319 626 q 492 485 451 531 q 532 376 532 440 q 492 265 532 317 q 382 181 451 213 q 436 60 436 124 q 403 -40 436 7 q 313 -114 369 -86 q 186 -142 256 -142 q 94 -129 143 -142 q 10 -96 44 -117 l 32 -7 l 44 0 q 204 -71 115 -71 q 305 -37 265 -71 q 344 38 344 -4 q 315 103 344 74 q 226 176 286 133 q 112 275 151 231 q 72 382 72 319 q 114 495 72 442 q 225 582 156 549 q 172 699 172 635 q 204 797 172 751 q 292 870 236 843 q 415 897 347 897 q 561 867 490 897 l 538 779 l 522 775 q 392 825 454 825 m 442 350 q 410 425 442 392 q 318 503 379 458 l 279 533 q 164 407 164 479 q 193 338 164 368 q 285 261 222 307 l 329 228 q 442 350 442 276 z "},"¨":{"ha":542,"x_min":167,"x_max":503,"o":"m 226 901 q 267 885 251 901 q 282 844 282 869 q 266 799 282 817 q 224 782 250 782 q 182 797 197 782 q 167 840 167 813 q 183 885 167 868 q 226 901 199 901 m 449 900 q 488 885 474 900 q 503 843 503 869 q 487 799 503 815 q 444 782 471 782 q 388 839 388 782 q 403 883 388 867 q 449 900 419 900 z "},"©":{"ha":960,"x_min":79,"x_max":900,"o":"m 490 831 q 705 778 613 831 q 849 629 797 725 q 900 407 900 533 q 849 185 900 281 q 705 36 797 89 q 490 -17 613 -17 q 275 36 368 -17 q 131 185 182 89 q 79 407 79 281 q 131 629 79 533 q 275 778 182 725 q 490 831 368 831 m 490 785 q 299 738 382 785 q 171 605 217 690 q 125 407 125 519 q 171 209 125 294 q 299 76 217 124 q 490 29 382 29 q 681 76 599 29 q 809 209 764 124 q 854 407 854 294 q 809 605 854 519 q 681 738 764 690 q 490 785 599 785 m 511 646 q 640 614 576 646 l 625 554 l 618 551 q 508 583 571 583 q 363 414 363 583 q 507 238 363 238 q 626 271 571 238 l 635 268 l 629 207 q 503 175 563 175 q 342 235 396 175 q 288 408 288 294 q 345 584 288 522 q 511 646 403 646 z "},"ª":{"ha":433,"x_min":88,"x_max":438,"o":"m 394 569 l 388 469 l 304 464 l 328 654 l 328 653 l 318 653 q 183 463 251 528 l 169 463 q 106 513 124 481 q 88 601 88 544 q 143 793 88 710 q 301 896 199 876 l 307 896 l 376 886 l 429 900 l 438 894 l 394 569 m 194 540 q 251 603 207 540 q 342 764 296 667 l 346 796 l 349 825 l 290 835 q 199 776 232 833 q 165 633 165 719 q 175 564 165 588 q 194 540 185 540 z "},"«":{"ha":549,"x_min":51,"x_max":560,"o":"m 54 328 l 286 563 l 332 535 l 332 521 l 132 314 l 282 106 l 278 93 l 225 64 l 51 306 l 54 328 m 282 328 l 514 563 l 560 535 l 560 521 l 360 314 l 510 106 l 506 93 l 453 64 l 279 306 l 282 328 z "},"¬":{"ha":667,"x_min":44,"x_max":597,"o":"m 560 85 l 494 79 l 485 88 l 515 332 l 50 332 l 44 340 l 57 406 l 590 406 l 597 396 l 560 85 z "},"­":{"ha":428,"x_min":39,"x_max":397,"o":"m 389 339 l 47 292 l 39 301 l 47 368 l 389 415 l 397 406 l 389 339 z "},"®":{"ha":610,"x_min":53,"x_max":557,"o":"m 306 975 q 488 906 419 975 q 557 725 557 838 q 488 542 557 611 q 306 472 419 472 q 122 542 192 472 q 53 725 53 611 q 122 906 53 838 q 306 975 192 975 m 306 507 q 463 567 403 507 q 522 725 522 626 q 463 881 522 822 q 306 939 404 939 q 149 881 208 939 q 90 725 90 822 q 149 567 90 626 q 306 507 208 507 m 404 788 q 349 707 404 733 q 421 608 379 660 l 421 604 q 374 594 403 597 l 368 599 q 308 694 339 642 l 261 694 l 261 685 l 263 599 l 215 599 l 217 679 l 215 868 l 314 868 q 404 788 404 868 m 311 732 q 354 783 354 746 q 300 831 354 829 l 264 829 l 263 735 l 311 732 z "},"¯":{"ha":542,"x_min":131,"x_max":539,"o":"m 532 808 l 139 808 l 131 817 l 138 878 l 531 878 l 539 871 l 532 808 z "},"°":{"ha":408,"x_min":78,"x_max":429,"o":"m 275 899 q 385 854 342 899 q 429 744 429 810 q 402 649 429 693 q 330 580 375 606 q 233 554 285 554 q 122 599 167 554 q 78 708 78 643 q 105 803 78 760 q 178 873 132 847 q 275 899 224 899 m 268 846 q 172 807 214 846 q 131 715 131 768 q 162 638 131 669 q 239 606 193 606 q 335 645 293 606 q 376 738 376 685 q 345 815 376 783 q 268 846 314 846 z "},"±":{"ha":664,"x_min":-7,"x_max":631,"o":"m 379 406 l 622 406 l 631 397 l 617 332 l 369 332 l 340 85 l 274 79 l 267 88 l 296 332 l 51 332 l 44 340 l 60 406 l 304 406 l 335 653 l 401 658 l 410 650 l 379 406 m 565 -124 l 0 -124 l -7 -115 l -1 -50 l 564 -50 l 572 -58 l 565 -124 z "},"²":{"ha":483,"x_min":42,"x_max":443,"o":"m 286 976 q 387 946 346 976 q 428 867 428 915 q 395 776 428 824 q 281 643 363 729 l 167 521 l 168 518 l 350 518 l 440 522 l 443 514 l 426 444 l 315 449 l 85 449 l 47 447 l 42 451 l 47 504 l 206 664 q 307 777 278 739 q 336 847 336 815 q 318 889 336 872 q 267 906 300 906 q 119 833 194 906 l 110 833 l 103 900 q 286 976 196 976 z "},"³":{"ha":426,"x_min":78,"x_max":421,"o":"m 274 978 q 378 947 336 978 q 421 867 421 915 q 394 791 421 828 q 315 733 367 754 l 314 729 q 410 615 410 704 q 343 491 410 539 q 171 443 276 443 q 78 453 117 443 l 81 517 l 88 521 q 181 510 151 510 q 285 538 246 510 q 325 611 325 565 q 225 688 325 683 l 168 688 l 163 693 l 172 753 l 214 753 q 293 782 256 753 q 331 851 331 811 q 311 893 331 878 q 260 908 292 908 q 142 864 207 908 l 132 864 l 125 924 q 274 978 204 978 z "},"´":{"ha":542,"x_min":196,"x_max":472,"o":"m 472 910 l 469 897 q 236 721 331 788 l 225 722 l 196 764 q 421 965 328 874 l 433 964 l 472 910 z "},"µ":{"ha":667,"x_min":32,"x_max":597,"o":"m 529 151 l 522 4 l 422 -6 l 468 314 l 456 314 q 325 116 383 192 q 204 -7 267 40 l 189 -7 q 154 6 171 -3 l 139 -108 l 132 -260 l 32 -269 l 139 499 l 144 633 l 243 642 l 175 156 q 174 142 174 150 q 183 111 174 121 q 206 101 193 101 q 324 209 247 101 q 494 514 401 317 l 500 633 l 597 642 l 529 151 z "},"¶":{"ha":672,"x_min":90,"x_max":703,"o":"m 686 807 l 583 807 l 511 251 l 503 179 q 433 19 492 88 q 251 -106 374 -49 l 225 -58 l 228 -46 q 355 55 313 3 q 404 172 397 107 l 413 235 l 481 808 l 399 808 q 251 741 304 800 q 199 586 199 682 q 241 457 199 510 q 364 382 283 404 l 322 321 q 150 410 210 344 q 90 579 90 476 q 184 806 90 724 q 439 889 278 889 l 696 889 l 703 879 l 686 807 z "},"·":{"ha":319,"x_min":101,"x_max":222,"o":"m 164 400 q 207 385 192 400 q 222 342 222 369 q 206 294 222 313 q 161 276 189 276 q 117 293 133 276 q 101 338 101 310 q 118 383 101 365 q 164 400 135 400 z "},"¸":{"ha":542,"x_min":101,"x_max":311,"o":"m 258 -100 q 311 -176 311 -128 q 281 -242 311 -217 q 201 -267 250 -267 q 101 -224 142 -267 l 113 -171 l 119 -168 q 196 -211 156 -211 q 242 -174 242 -211 q 211 -139 242 -153 l 146 -99 l 179 26 l 242 26 l 213 -72 l 258 -100 z "},"¹":{"ha":357,"x_min":86,"x_max":313,"o":"m 269 633 l 249 449 l 161 449 l 185 624 l 215 881 l 92 850 l 86 856 l 94 924 l 303 979 l 313 969 l 269 633 z "},"º":{"ha":411,"x_min":86,"x_max":411,"o":"m 306 899 q 411 757 411 882 q 355 547 411 626 q 201 461 299 467 l 193 463 q 86 608 86 474 q 142 815 86 735 q 296 899 199 894 l 306 899 m 282 836 q 196 774 226 836 q 165 608 165 713 q 177 542 165 563 q 217 522 189 522 q 301 583 272 522 q 331 750 331 643 q 319 816 331 796 q 282 836 308 836 z "},"»":{"ha":542,"x_min":-7,"x_max":501,"o":"m 499 300 l 267 65 l 221 93 l 221 107 l 421 314 l 271 522 l 275 535 l 328 564 l 501 322 l 499 300 m 271 300 l 39 65 l -7 93 l -7 107 l 193 314 l 43 522 l 47 535 l 100 564 l 274 322 l 271 300 z "},"¼":{"ha":944,"x_min":-22,"x_max":883,"o":"m 25 -126 l -17 -100 l -22 -83 l 761 940 l 803 914 l 808 896 l 25 -126 m 75 774 l 83 842 l 292 897 l 301 888 l 258 551 l 238 367 l 150 367 l 174 542 l 204 799 l 81 768 l 75 774 m 788 143 l 775 7 l 769 0 l 699 -4 l 694 1 l 714 143 l 549 143 l 481 140 l 475 149 l 482 204 l 754 524 l 835 524 l 794 210 l 878 210 l 883 201 l 871 140 l 788 143 m 724 210 l 751 424 l 744 424 l 563 210 l 724 210 z "},"½":{"ha":942,"x_min":-22,"x_max":876,"o":"m 808 896 l 25 -126 l -17 -100 l -22 -83 l 761 940 l 803 914 l 808 896 m 258 551 l 238 367 l 150 367 l 174 542 l 204 799 l 81 768 l 75 774 l 83 842 l 292 897 l 301 888 l 258 551 m 719 528 q 820 497 779 528 q 861 418 861 467 q 828 328 861 375 q 714 194 796 281 l 600 72 l 601 69 l 783 69 l 874 74 l 876 65 l 860 -4 l 749 0 l 518 0 l 481 -1 l 475 3 l 481 56 l 639 215 q 740 328 711 290 q 769 399 769 367 q 751 440 769 424 q 700 457 733 457 q 553 385 628 457 l 543 385 l 536 451 q 719 528 629 528 z "},"¾":{"ha":1014,"x_min":47,"x_max":953,"o":"m 94 -126 l 53 -100 l 47 -83 l 831 940 l 872 914 l 878 896 l 94 -126 m 388 533 q 321 409 388 457 q 149 361 254 361 q 56 371 94 361 l 58 435 l 65 439 q 158 428 129 428 q 263 456 224 428 q 303 529 303 483 q 203 606 303 601 l 146 606 l 140 611 l 150 671 l 192 671 q 271 700 233 671 q 308 769 308 729 q 289 811 308 796 q 238 826 269 826 q 119 782 185 826 l 110 782 l 103 842 q 251 896 182 896 q 356 865 314 896 q 399 785 399 833 q 372 709 399 746 q 293 651 344 672 l 292 647 q 388 533 388 622 m 857 143 l 844 7 l 839 0 l 768 -4 l 764 1 l 783 143 l 618 143 l 550 140 l 544 149 l 551 204 l 824 524 l 904 524 l 864 210 l 947 210 l 953 201 l 940 140 l 857 143 m 793 210 l 821 424 l 814 424 l 632 210 l 793 210 z "},"¿":{"ha":460,"x_min":-36,"x_max":357,"o":"m 285 -276 q 47 -215 129 -267 q -36 -75 -36 -162 q 1 35 -36 -17 q 104 128 38 88 l 231 204 l 233 210 l 243 344 l 318 353 l 325 343 l 317 185 l 308 171 l 165 90 q 61 -54 61 33 q 318 -200 61 -183 l 325 -211 l 297 -269 l 285 -276 m 294 525 q 251 540 267 525 q 236 583 236 556 q 253 631 236 613 q 297 649 269 649 q 357 588 357 649 q 340 542 357 560 q 294 525 324 525 z "},"À":{"ha":761,"x_min":-19,"x_max":694,"o":"m 589 0 l 581 86 l 551 246 l 363 249 l 192 246 l 119 92 l 85 0 l -19 0 l 403 889 l 522 889 l 694 0 l 589 0 m 451 781 l 442 781 l 233 335 l 381 333 l 535 335 l 451 781 m 369 1199 q 635 1057 472 1139 l 615 1010 l 603 1004 q 335 1124 449 1069 l 331 1135 l 357 1196 l 369 1199 z "},"Á":{"ha":761,"x_min":-19,"x_max":694,"o":"m 589 0 l 581 86 l 551 246 l 363 249 l 192 246 l 119 92 l 85 0 l -19 0 l 403 889 l 522 889 l 694 0 l 589 0 m 451 781 l 442 781 l 233 335 l 381 333 l 535 335 l 451 781 m 649 1132 l 644 1119 q 438 1026 561 1079 l 376 1000 l 364 1006 l 344 1053 q 610 1196 492 1126 l 621 1193 l 649 1132 z "},"Â":{"ha":761,"x_min":-19,"x_max":694,"o":"m 589 0 l 581 86 l 551 246 l 363 249 l 192 246 l 119 92 l 85 0 l -19 0 l 403 889 l 522 889 l 694 0 l 589 0 m 451 781 l 442 781 l 233 335 l 381 333 l 535 335 l 451 781 m 307 1063 q 481 1186 385 1110 l 511 1186 q 658 1063 568 1131 l 631 1017 l 619 1017 q 490 1110 560 1057 q 336 1017 401 1054 l 324 1017 l 307 1063 z "},"Ã":{"ha":761,"x_min":-19,"x_max":699,"o":"m 589 0 l 581 86 l 551 246 l 363 249 l 192 246 l 119 92 l 85 0 l -19 0 l 403 889 l 522 889 l 694 0 l 589 0 m 451 781 l 442 781 l 233 335 l 381 333 l 535 335 l 451 781 m 699 1132 l 614 1039 l 601 1033 q 489 1061 571 1036 q 386 1085 407 1085 q 329 1042 369 1085 l 308 1021 l 296 1021 l 264 1056 l 264 1065 l 349 1158 l 361 1163 q 476 1135 394 1160 q 576 1113 563 1113 q 600 1123 588 1113 q 629 1150 613 1133 q 656 1176 646 1167 l 665 1176 l 699 1142 l 699 1132 z "},"Ä":{"ha":761,"x_min":-19,"x_max":694,"o":"m 589 0 l 581 86 l 551 246 l 363 249 l 192 246 l 119 92 l 85 0 l -19 0 l 403 889 l 522 889 l 694 0 l 589 0 m 451 781 l 442 781 l 233 335 l 381 333 l 535 335 l 451 781 m 374 1154 q 414 1138 399 1154 q 429 1097 429 1122 q 413 1052 429 1069 q 371 1035 397 1035 q 329 1050 344 1035 q 314 1093 314 1065 q 330 1138 314 1121 q 374 1154 346 1154 m 596 1153 q 635 1138 621 1153 q 650 1096 650 1122 q 634 1051 650 1068 q 592 1035 618 1035 q 535 1092 535 1035 q 551 1136 535 1119 q 596 1153 567 1153 z "},"Å":{"ha":761,"x_min":-19,"x_max":694,"o":"m 589 0 l 581 86 l 551 246 l 363 249 l 192 246 l 119 92 l 85 0 l -19 0 l 403 889 l 522 889 l 694 0 l 589 0 m 451 781 l 442 781 l 233 335 l 381 333 l 535 335 l 451 781 m 483 1218 q 567 1187 538 1218 q 597 1107 597 1156 q 564 1022 597 1053 q 481 992 531 992 q 399 1022 431 992 q 368 1104 368 1051 q 399 1187 368 1156 q 483 1218 429 1218 m 482 1165 q 419 1106 419 1165 q 437 1058 419 1075 q 483 1042 454 1042 q 528 1058 511 1042 q 546 1103 546 1074 q 529 1148 546 1131 q 482 1165 513 1165 z "},"Æ":{"ha":1064,"x_min":-60,"x_max":1014,"o":"m 996 0 l 539 0 l 542 86 l 538 363 l 217 289 l 93 92 l 49 0 l -60 0 l 499 889 l 988 889 l 993 879 l 974 797 l 761 803 l 633 803 l 638 467 l 929 529 l 936 521 l 933 444 l 638 385 l 642 85 l 792 85 l 1008 92 l 1014 82 l 996 0 m 531 781 l 524 781 l 279 389 l 536 444 l 531 781 z "},"Ç":{"ha":694,"x_min":65,"x_max":728,"o":"m 500 897 q 728 829 633 897 l 694 733 l 682 731 q 488 808 604 808 q 257 694 339 808 q 175 369 175 579 q 231 155 175 229 q 393 81 288 81 q 626 165 515 81 l 638 158 l 617 60 q 425 -7 518 3 l 406 -71 l 451 -99 q 504 -175 504 -126 q 474 -240 504 -215 q 394 -265 443 -265 q 294 -222 335 -265 l 306 -169 l 313 -167 q 389 -210 349 -210 q 435 -172 435 -210 q 404 -137 435 -151 l 339 -97 l 363 -10 q 142 90 219 -4 q 65 354 65 185 q 117 644 65 522 q 266 832 168 767 q 500 897 364 897 z "},"È":{"ha":640,"x_min":88,"x_max":678,"o":"m 253 500 l 413 497 l 551 501 l 558 492 l 539 411 l 392 414 l 240 413 l 222 276 l 203 89 l 372 86 l 574 92 l 578 82 l 560 0 l 88 0 l 128 268 l 200 889 l 674 889 l 678 879 l 660 797 l 463 803 l 292 800 l 253 500 m 343 1199 q 608 1057 446 1139 l 589 1010 l 576 1004 q 308 1124 422 1069 l 304 1135 l 331 1196 l 343 1199 z "},"É":{"ha":640,"x_min":88,"x_max":678,"o":"m 253 500 l 413 497 l 551 501 l 558 492 l 539 411 l 392 414 l 240 413 l 222 276 l 203 89 l 372 86 l 574 92 l 578 82 l 560 0 l 88 0 l 128 268 l 200 889 l 674 889 l 678 879 l 660 797 l 463 803 l 292 800 l 253 500 m 622 1132 l 618 1119 q 411 1026 535 1079 l 350 1000 l 338 1006 l 318 1053 q 583 1196 465 1126 l 594 1193 l 622 1132 z "},"Ê":{"ha":640,"x_min":88,"x_max":678,"o":"m 253 500 l 413 497 l 551 501 l 558 492 l 539 411 l 392 414 l 240 413 l 222 276 l 203 89 l 372 86 l 574 92 l 578 82 l 560 0 l 88 0 l 128 268 l 200 889 l 674 889 l 678 879 l 660 797 l 463 803 l 292 800 l 253 500 m 281 1063 q 454 1186 358 1110 l 485 1186 q 632 1063 542 1131 l 604 1017 l 593 1017 q 464 1110 533 1057 q 310 1017 375 1054 l 297 1017 l 281 1063 z "},"Ë":{"ha":640,"x_min":88,"x_max":678,"o":"m 253 500 l 413 497 l 551 501 l 558 492 l 539 411 l 392 414 l 240 413 l 222 276 l 203 89 l 372 86 l 574 92 l 578 82 l 560 0 l 88 0 l 128 268 l 200 889 l 674 889 l 678 879 l 660 797 l 463 803 l 292 800 l 253 500 m 347 1154 q 388 1138 372 1154 q 403 1097 403 1122 q 387 1052 403 1069 q 344 1035 371 1035 q 303 1050 318 1035 q 288 1093 288 1065 q 303 1138 288 1121 q 347 1154 319 1154 m 569 1153 q 609 1138 594 1153 q 624 1096 624 1122 q 608 1051 624 1068 q 565 1035 592 1035 q 508 1092 508 1035 q 524 1136 508 1119 q 569 1153 540 1153 z "},"Ì":{"ha":360,"x_min":88,"x_max":428,"o":"m 193 0 l 88 0 l 128 268 l 199 889 l 304 889 l 221 276 l 193 0 m 163 1199 q 428 1057 265 1139 l 408 1010 l 396 1004 q 128 1124 242 1069 l 124 1135 l 150 1196 l 163 1199 z "},"Í":{"ha":360,"x_min":88,"x_max":443,"o":"m 193 0 l 88 0 l 128 268 l 199 889 l 304 889 l 221 276 l 193 0 m 443 1132 l 439 1119 q 232 1026 356 1079 l 171 1000 l 158 1006 l 139 1053 q 404 1196 286 1126 l 415 1193 l 443 1132 z "},"Î":{"ha":360,"x_min":88,"x_max":453,"o":"m 193 0 l 88 0 l 128 268 l 199 889 l 304 889 l 221 276 l 193 0 m 101 1063 q 275 1186 179 1110 l 306 1186 q 453 1063 363 1131 l 425 1017 l 414 1017 q 285 1110 354 1057 q 131 1017 196 1054 l 118 1017 l 101 1063 z "},"Ï":{"ha":360,"x_min":88,"x_max":421,"o":"m 193 0 l 88 0 l 128 268 l 199 889 l 304 889 l 221 276 l 193 0 m 193 1153 q 233 1138 218 1153 q 247 1096 247 1122 q 231 1051 247 1068 q 189 1035 215 1035 q 132 1092 132 1035 q 149 1136 132 1119 q 193 1153 165 1153 m 365 1153 q 406 1138 392 1153 q 421 1096 421 1122 q 405 1051 421 1068 q 363 1035 389 1035 q 306 1092 306 1035 q 322 1136 306 1119 q 365 1153 338 1153 z "},"Ð":{"ha":894,"x_min":43,"x_max":865,"o":"m 529 896 q 778 806 690 896 q 865 549 865 715 q 811 251 865 376 q 653 59 757 126 q 401 -8 549 -8 q 121 0 265 -8 l 161 268 l 178 414 l 47 414 l 43 422 l 51 489 l 186 489 l 232 889 l 233 889 l 529 896 m 422 79 q 668 195 581 79 q 756 529 756 311 q 518 808 756 808 q 326 803 429 808 l 283 489 l 499 489 l 503 479 l 496 414 l 272 414 l 254 276 l 235 88 q 422 79 360 79 z "},"Ñ":{"ha":907,"x_min":88,"x_max":854,"o":"m 739 0 l 631 0 l 282 722 l 272 722 l 218 292 l 186 0 l 88 0 l 126 264 l 201 889 l 310 889 l 658 167 l 667 167 l 756 885 l 854 892 l 768 260 l 739 0 m 768 1132 l 683 1039 l 671 1033 q 558 1061 640 1036 q 456 1085 476 1085 q 399 1042 439 1085 l 378 1021 l 365 1021 l 333 1056 l 333 1065 l 418 1158 l 431 1163 q 546 1135 464 1160 q 646 1113 632 1113 q 669 1123 657 1113 q 699 1150 682 1133 q 725 1176 715 1167 l 735 1176 l 768 1142 l 768 1132 z "},"Ò":{"ha":849,"x_min":65,"x_max":819,"o":"m 500 899 q 736 806 653 899 q 819 543 819 713 q 768 247 819 372 q 619 56 717 122 q 382 -11 521 -11 q 149 85 233 -11 q 65 354 65 182 q 178 755 65 611 q 500 899 292 899 m 488 811 q 251 696 329 811 q 172 361 172 581 q 392 76 172 76 q 630 193 550 76 q 710 531 710 310 q 488 811 710 811 m 408 1199 q 674 1057 511 1139 l 654 1010 l 642 1004 q 374 1124 488 1069 l 369 1135 l 396 1196 l 408 1199 z "},"Ó":{"ha":849,"x_min":65,"x_max":819,"o":"m 500 899 q 736 806 653 899 q 819 543 819 713 q 768 247 819 372 q 619 56 717 122 q 382 -11 521 -11 q 149 85 233 -11 q 65 354 65 182 q 178 755 65 611 q 500 899 292 899 m 488 811 q 251 696 329 811 q 172 361 172 581 q 392 76 172 76 q 630 193 550 76 q 710 531 710 310 q 488 811 710 811 m 688 1132 l 683 1119 q 476 1026 600 1079 l 415 1000 l 403 1006 l 383 1053 q 649 1196 531 1126 l 660 1193 l 688 1132 z "},"Ô":{"ha":849,"x_min":65,"x_max":819,"o":"m 500 899 q 736 806 653 899 q 819 543 819 713 q 768 247 819 372 q 619 56 717 122 q 382 -11 521 -11 q 149 85 233 -11 q 65 354 65 182 q 178 755 65 611 q 500 899 292 899 m 488 811 q 251 696 329 811 q 172 361 172 581 q 392 76 172 76 q 630 193 550 76 q 710 531 710 310 q 488 811 710 811 m 346 1063 q 519 1186 424 1110 l 550 1186 q 697 1063 607 1131 l 669 1017 l 658 1017 q 529 1110 599 1057 q 375 1017 440 1054 l 363 1017 l 346 1063 z "},"Õ":{"ha":849,"x_min":65,"x_max":819,"o":"m 500 899 q 736 806 653 899 q 819 543 819 713 q 768 247 819 372 q 619 56 717 122 q 382 -11 521 -11 q 149 85 233 -11 q 65 354 65 182 q 178 755 65 611 q 500 899 292 899 m 488 811 q 251 696 329 811 q 172 361 172 581 q 392 76 172 76 q 630 193 550 76 q 710 531 710 310 q 488 811 710 811 m 738 1132 l 653 1039 l 640 1033 q 528 1061 610 1036 q 425 1085 446 1085 q 368 1042 408 1085 l 347 1021 l 335 1021 l 303 1056 l 303 1065 l 388 1158 l 400 1163 q 515 1135 433 1160 q 615 1113 601 1113 q 639 1123 626 1113 q 668 1150 651 1133 q 694 1176 685 1167 l 704 1176 l 738 1142 l 738 1132 z "},"Ö":{"ha":849,"x_min":65,"x_max":819,"o":"m 500 899 q 736 806 653 899 q 819 543 819 713 q 768 247 819 372 q 619 56 717 122 q 382 -11 521 -11 q 149 85 233 -11 q 65 354 65 182 q 178 755 65 611 q 500 899 292 899 m 488 811 q 251 696 329 811 q 172 361 172 581 q 392 76 172 76 q 630 193 550 76 q 710 531 710 310 q 488 811 710 811 m 413 1154 q 453 1138 438 1154 q 468 1097 468 1122 q 452 1052 468 1069 q 410 1035 436 1035 q 368 1050 383 1035 q 353 1093 353 1065 q 369 1138 353 1121 q 413 1154 385 1154 m 635 1153 q 674 1138 660 1153 q 689 1096 689 1122 q 673 1051 689 1068 q 631 1035 657 1035 q 574 1092 574 1035 q 590 1136 574 1119 q 635 1153 606 1153 z "},"×":{"ha":668,"x_min":92,"x_max":588,"o":"m 586 542 l 393 369 l 543 196 l 542 185 l 486 142 l 333 315 l 136 142 l 92 185 l 93 194 l 289 369 l 136 542 l 138 554 l 192 596 l 347 421 l 542 596 l 588 554 l 586 542 z "},"Ø":{"ha":850,"x_min":65,"x_max":819,"o":"m 704 835 q 819 543 819 743 q 769 247 819 372 q 620 56 718 122 q 383 -11 522 -11 q 239 18 301 -11 l 149 -140 l 89 -118 l 85 -107 l 178 57 q 65 354 65 153 q 178 754 65 610 q 500 899 292 899 q 642 872 578 899 l 717 1003 l 776 981 l 781 968 l 704 835 m 172 361 q 229 146 172 218 l 594 789 q 488 811 551 811 q 251 696 329 811 q 172 361 172 581 m 392 76 q 630 193 550 76 q 710 531 710 310 q 653 743 710 674 l 285 100 q 392 76 332 76 z "},"Ù":{"ha":829,"x_min":96,"x_max":801,"o":"m 729 336 q 622 81 713 171 q 378 -10 532 -10 q 171 58 246 -10 q 96 250 96 126 q 101 325 96 290 l 118 446 l 172 889 l 274 889 l 200 338 q 196 275 196 304 q 385 83 196 83 q 633 325 604 83 l 697 889 l 801 889 l 742 438 l 729 336 m 399 1199 q 664 1057 501 1139 l 644 1010 l 632 1004 q 364 1124 478 1069 l 360 1135 l 386 1196 l 399 1199 z "},"Ú":{"ha":829,"x_min":96,"x_max":801,"o":"m 729 336 q 622 81 713 171 q 378 -10 532 -10 q 171 58 246 -10 q 96 250 96 126 q 101 325 96 290 l 118 446 l 172 889 l 274 889 l 200 338 q 196 275 196 304 q 385 83 196 83 q 633 325 604 83 l 697 889 l 801 889 l 742 438 l 729 336 m 678 1132 l 674 1119 q 467 1026 590 1079 l 406 1000 l 393 1006 l 374 1053 q 639 1196 521 1126 l 650 1193 l 678 1132 z "},"Û":{"ha":829,"x_min":96,"x_max":801,"o":"m 729 336 q 622 81 713 171 q 378 -10 532 -10 q 171 58 246 -10 q 96 250 96 126 q 101 325 96 290 l 118 446 l 172 889 l 274 889 l 200 338 q 196 275 196 304 q 385 83 196 83 q 633 325 604 83 l 697 889 l 801 889 l 742 438 l 729 336 m 338 1063 q 511 1186 415 1110 l 542 1186 q 689 1063 599 1131 l 661 1017 l 650 1017 q 521 1110 590 1057 q 367 1017 432 1054 l 354 1017 l 338 1063 z "},"Ü":{"ha":829,"x_min":96,"x_max":801,"o":"m 729 336 q 622 81 713 171 q 378 -10 532 -10 q 171 58 246 -10 q 96 250 96 126 q 101 325 96 290 l 118 446 l 172 889 l 274 889 l 200 338 q 196 275 196 304 q 385 83 196 83 q 633 325 604 83 l 697 889 l 801 889 l 742 438 l 729 336 m 404 1154 q 444 1138 429 1154 q 460 1097 460 1122 q 444 1052 460 1069 q 401 1035 428 1035 q 360 1050 375 1035 q 344 1093 344 1065 q 360 1138 344 1121 q 404 1154 376 1154 m 626 1153 q 666 1138 651 1153 q 681 1096 681 1122 q 665 1051 681 1068 q 622 1035 649 1035 q 565 1092 565 1035 q 581 1136 565 1119 q 626 1153 597 1153 z "},"Ý":{"ha":697,"x_min":92,"x_max":750,"o":"m 375 260 l 347 0 l 242 0 l 282 260 l 289 324 l 92 889 l 201 889 l 211 840 l 347 436 l 358 436 l 610 838 l 636 889 l 750 889 l 385 324 l 375 260 m 613 1132 l 608 1119 q 401 1026 525 1079 l 340 1000 l 328 1006 l 308 1053 q 574 1196 456 1126 l 585 1193 l 613 1132 z "},"Þ":{"ha":697,"x_min":89,"x_max":669,"o":"m 431 735 q 606 677 543 735 q 669 506 669 619 q 626 327 669 406 q 503 204 583 249 q 315 160 424 160 l 210 160 l 193 0 l 89 0 l 128 268 l 201 889 l 304 889 l 283 733 l 431 735 m 375 244 q 511 323 460 256 q 563 492 563 390 q 526 606 563 567 q 407 649 489 644 l 272 646 l 222 276 l 219 247 l 375 244 z "},"ß":{"ha":747,"x_min":64,"x_max":682,"o":"m 431 697 q 681 631 547 697 l 682 614 l 481 399 q 630 319 582 364 q 678 206 678 274 q 644 92 678 140 q 555 17 611 43 q 432 -8 499 -8 q 335 4 385 -8 q 250 40 285 17 l 272 138 l 283 142 q 358 91 315 110 q 436 72 400 72 q 535 108 496 72 q 575 196 575 144 q 521 282 575 247 q 354 344 467 317 l 353 364 l 553 576 q 413 618 481 618 q 278 575 329 618 q 217 454 226 532 l 183 217 l 160 0 l 64 0 l 92 204 l 124 454 q 219 631 138 565 q 431 697 301 697 z "},"à":{"ha":682,"x_min":-4,"x_max":597,"o":"m 497 0 l 493 74 l 471 181 l 314 182 l 174 181 l 122 78 l 93 0 l -4 0 l 339 692 l 451 692 l 597 0 l 497 0 m 383 593 l 378 593 l 213 261 l 453 261 l 383 593 m 314 1021 q 540 819 411 928 l 511 778 l 500 776 q 265 953 393 851 l 264 965 l 303 1019 l 314 1021 z "},"á":{"ha":682,"x_min":-4,"x_max":597,"o":"m 497 0 l 493 74 l 471 181 l 314 182 l 174 181 l 122 78 l 93 0 l -4 0 l 339 692 l 451 692 l 597 0 l 497 0 m 383 593 l 378 593 l 213 261 l 453 261 l 383 593 m 556 965 l 553 953 q 319 776 414 843 l 308 778 l 279 819 q 504 1021 411 929 l 517 1019 l 556 965 z "},"â":{"ha":682,"x_min":-4,"x_max":597,"o":"m 497 0 l 493 74 l 471 181 l 314 182 l 174 181 l 122 78 l 93 0 l -4 0 l 339 692 l 451 692 l 597 0 l 497 0 m 383 593 l 378 593 l 213 261 l 453 261 l 383 593 m 232 821 q 421 1007 310 892 l 453 1007 q 596 821 518 911 l 563 779 l 551 779 q 428 925 486 846 q 268 779 365 863 l 256 779 l 232 821 z "},"ã":{"ha":682,"x_min":-4,"x_max":632,"o":"m 497 0 l 493 74 l 471 181 l 314 182 l 174 181 l 122 78 l 93 0 l -4 0 l 339 692 l 451 692 l 597 0 l 497 0 m 383 593 l 378 593 l 213 261 l 453 261 l 383 593 m 632 935 l 547 842 l 535 836 q 422 864 504 839 q 319 888 340 888 q 263 844 303 888 l 242 824 l 229 824 l 197 858 l 197 868 l 282 961 l 294 965 q 410 938 328 963 q 510 915 496 915 q 533 926 521 915 q 563 953 546 936 q 589 979 579 969 l 599 979 l 632 944 l 632 935 z "},"ä":{"ha":682,"x_min":-4,"x_max":597,"o":"m 497 0 l 493 74 l 471 181 l 314 182 l 174 181 l 122 78 l 93 0 l -4 0 l 339 692 l 451 692 l 597 0 l 497 0 m 383 593 l 378 593 l 213 261 l 453 261 l 383 593 m 307 957 q 347 941 332 957 q 363 900 363 925 q 347 855 363 872 q 304 838 331 838 q 263 853 278 838 q 247 896 247 868 q 263 940 247 924 q 307 957 279 957 m 529 956 q 569 940 554 956 q 583 899 583 925 q 567 854 583 871 q 525 838 551 838 q 468 894 468 838 q 484 939 468 922 q 529 956 500 956 z "},"å":{"ha":682,"x_min":-4,"x_max":597,"o":"m 497 0 l 493 74 l 471 181 l 314 182 l 174 181 l 122 78 l 93 0 l -4 0 l 339 692 l 451 692 l 597 0 l 497 0 m 383 593 l 378 593 l 213 261 l 453 261 l 383 593 m 417 1021 q 501 990 471 1021 q 531 910 531 958 q 497 825 531 856 q 414 794 464 794 q 333 824 364 794 q 301 907 301 854 q 332 990 301 958 q 417 1021 363 1021 m 415 968 q 353 908 353 968 q 370 861 353 878 q 417 844 388 844 q 462 860 444 844 q 479 906 479 876 q 463 951 479 933 q 415 968 446 968 z "},"æ":{"ha":933,"x_min":-36,"x_max":868,"o":"m 850 0 l 461 0 l 467 72 l 461 265 l 182 203 l 97 76 l 61 0 l -36 0 l 421 692 l 840 692 l 844 682 l 825 607 l 647 614 l 543 614 l 550 364 l 790 415 l 799 410 l 794 331 l 551 285 l 557 81 l 681 81 l 861 86 l 868 78 l 850 0 m 453 594 l 444 594 l 246 297 l 460 344 l 453 594 z "},"ç":{"ha":618,"x_min":63,"x_max":615,"o":"m 426 697 q 615 649 542 697 l 585 558 l 572 554 q 408 617 510 617 q 228 533 292 617 q 165 293 165 450 q 210 131 165 188 q 340 75 256 75 q 532 139 440 75 l 543 135 l 524 44 q 368 -7 447 1 l 349 -72 l 394 -100 q 447 -176 447 -128 q 417 -242 447 -217 q 338 -267 386 -267 q 238 -224 278 -267 l 249 -171 l 256 -168 q 332 -211 292 -211 q 378 -174 378 -211 q 347 -139 378 -153 l 282 -99 l 306 -7 q 126 76 189 0 q 63 282 63 151 q 159 588 63 479 q 426 697 256 697 z "},"è":{"ha":582,"x_min":85,"x_max":579,"o":"m 229 394 l 363 393 l 478 397 l 482 388 l 467 311 l 343 314 l 218 314 l 204 217 l 190 81 l 319 79 l 497 83 l 504 76 l 486 0 l 85 0 l 114 208 l 171 692 l 575 692 l 579 682 l 563 607 l 397 613 l 258 611 l 229 394 m 296 1021 q 522 819 393 928 l 493 778 l 482 776 q 247 953 375 851 l 246 965 l 285 1019 l 296 1021 z "},"é":{"ha":582,"x_min":85,"x_max":579,"o":"m 229 394 l 363 393 l 478 397 l 482 388 l 467 311 l 343 314 l 218 314 l 204 217 l 190 81 l 319 79 l 497 83 l 504 76 l 486 0 l 85 0 l 114 208 l 171 692 l 575 692 l 579 682 l 563 607 l 397 613 l 258 611 l 229 394 m 538 965 l 535 953 q 301 776 396 843 l 290 778 l 261 819 q 486 1021 393 929 l 499 1019 l 538 965 z "},"ê":{"ha":582,"x_min":85,"x_max":579,"o":"m 229 394 l 363 393 l 478 397 l 482 388 l 467 311 l 343 314 l 218 314 l 204 217 l 190 81 l 319 79 l 497 83 l 504 76 l 486 0 l 85 0 l 114 208 l 171 692 l 575 692 l 579 682 l 563 607 l 397 613 l 258 611 l 229 394 m 214 821 q 403 1007 292 892 l 435 1007 q 578 821 500 911 l 544 779 l 533 779 q 410 925 468 846 q 250 779 347 863 l 238 779 l 214 821 z "},"ë":{"ha":582,"x_min":85,"x_max":579,"o":"m 229 394 l 363 393 l 478 397 l 482 388 l 467 311 l 343 314 l 218 314 l 204 217 l 190 81 l 319 79 l 497 83 l 504 76 l 486 0 l 85 0 l 114 208 l 171 692 l 575 692 l 579 682 l 563 607 l 397 613 l 258 611 l 229 394 m 289 957 q 329 941 314 957 q 344 900 344 925 q 328 855 344 872 q 286 838 313 838 q 244 853 260 838 q 229 896 229 868 q 245 940 229 924 q 289 957 261 957 m 511 956 q 551 940 536 956 q 565 899 565 925 q 549 854 565 871 q 507 838 533 838 q 450 894 450 838 q 466 939 450 922 q 511 956 482 956 z "},"ì":{"ha":350,"x_min":85,"x_max":369,"o":"m 182 0 l 85 0 l 115 208 l 171 692 l 269 692 l 204 217 l 182 0 m 143 1021 q 369 819 240 928 l 340 778 l 329 776 q 94 953 222 851 l 93 965 l 132 1019 l 143 1021 z "},"í":{"ha":350,"x_min":85,"x_max":385,"o":"m 182 0 l 85 0 l 115 208 l 171 692 l 269 692 l 204 217 l 182 0 m 385 965 l 382 953 q 149 776 243 843 l 138 778 l 108 819 q 333 1021 240 929 l 346 1019 l 385 965 z "},"î":{"ha":350,"x_min":61,"x_max":425,"o":"m 182 0 l 85 0 l 115 208 l 171 692 l 269 692 l 204 217 l 182 0 m 61 821 q 250 1007 139 892 l 282 1007 q 425 821 347 911 l 392 779 l 381 779 q 257 925 315 846 q 97 779 194 863 l 85 779 l 61 821 z "},"ï":{"ha":350,"x_min":85,"x_max":389,"o":"m 182 0 l 85 0 l 115 208 l 171 692 l 269 692 l 204 217 l 182 0 m 161 956 q 201 940 186 956 q 215 899 215 925 q 199 854 215 871 q 157 838 183 838 q 100 894 100 838 q 117 939 100 922 q 161 956 133 956 m 333 956 q 374 940 360 956 q 389 899 389 925 q 373 854 389 871 q 331 838 357 838 q 274 894 274 838 q 290 939 274 922 q 333 956 306 956 z "},"ð":{"ha":753,"x_min":6,"x_max":713,"o":"m 431 697 q 638 625 564 697 q 713 422 713 553 q 613 107 713 221 q 328 -7 513 -7 q 90 0 194 -7 l 118 208 l 131 307 l 11 307 l 6 315 l 18 378 l 139 378 l 176 692 l 431 697 m 347 74 q 542 158 472 74 q 611 403 611 242 q 417 613 611 613 l 263 608 l 232 378 l 400 378 l 403 368 l 392 307 l 222 307 l 210 217 l 194 81 q 347 74 271 74 z "},"ñ":{"ha":801,"x_min":85,"x_max":725,"o":"m 635 0 l 532 0 l 244 538 l 239 538 l 199 229 l 172 0 l 85 0 l 114 204 l 172 692 l 274 692 l 563 154 l 569 154 l 635 688 l 725 694 l 657 206 l 635 0 m 686 935 l 601 842 l 589 836 q 476 864 558 839 q 374 888 394 888 q 317 844 357 888 l 296 824 l 283 824 l 251 858 l 251 868 l 336 961 l 349 965 q 464 938 382 963 q 564 915 550 915 q 588 926 575 915 q 617 953 600 936 q 643 979 633 969 l 653 979 l 686 944 l 686 935 z "},"ò":{"ha":750,"x_min":63,"x_max":696,"o":"m 426 699 q 626 624 557 699 q 696 403 696 550 q 653 188 696 282 q 528 42 610 94 q 333 -10 446 -10 q 133 67 203 -10 q 63 293 63 143 q 158 589 63 479 q 426 699 254 699 m 414 617 q 227 536 290 617 q 164 299 164 456 q 206 126 164 179 q 343 74 249 74 q 531 156 468 74 q 593 392 593 238 q 551 563 593 508 q 414 617 508 617 m 342 1021 q 568 819 439 928 l 539 778 l 528 776 q 293 953 421 851 l 292 965 l 331 1019 l 342 1021 z "},"ó":{"ha":750,"x_min":63,"x_max":696,"o":"m 426 699 q 626 624 557 699 q 696 403 696 550 q 653 188 696 282 q 528 42 610 94 q 333 -10 446 -10 q 133 67 203 -10 q 63 293 63 143 q 158 589 63 479 q 426 699 254 699 m 414 617 q 227 536 290 617 q 164 299 164 456 q 206 126 164 179 q 343 74 249 74 q 531 156 468 74 q 593 392 593 238 q 551 563 593 508 q 414 617 508 617 m 583 965 l 581 953 q 347 776 442 843 l 336 778 l 307 819 q 532 1021 439 929 l 544 1019 l 583 965 z "},"ô":{"ha":750,"x_min":63,"x_max":696,"o":"m 426 699 q 626 624 557 699 q 696 403 696 550 q 653 188 696 282 q 528 42 610 94 q 333 -10 446 -10 q 133 67 203 -10 q 63 293 63 143 q 158 589 63 479 q 426 699 254 699 m 414 617 q 227 536 290 617 q 164 299 164 456 q 206 126 164 179 q 343 74 249 74 q 531 156 468 74 q 593 392 593 238 q 551 563 593 508 q 414 617 508 617 m 261 821 q 450 1007 339 892 l 482 1007 q 625 821 547 911 l 592 779 l 581 779 q 457 925 515 846 q 297 779 394 863 l 285 779 l 261 821 z "},"õ":{"ha":750,"x_min":63,"x_max":696,"o":"m 426 699 q 626 624 557 699 q 696 403 696 550 q 653 188 696 282 q 528 42 610 94 q 333 -10 446 -10 q 133 67 203 -10 q 63 293 63 143 q 158 589 63 479 q 426 699 254 699 m 414 617 q 227 536 290 617 q 164 299 164 456 q 206 126 164 179 q 343 74 249 74 q 531 156 468 74 q 593 392 593 238 q 551 563 593 508 q 414 617 508 617 m 660 935 l 575 842 l 563 836 q 450 864 532 839 q 347 888 368 888 q 290 844 331 888 l 269 824 l 257 824 l 225 858 l 225 868 l 310 961 l 322 965 q 438 938 356 963 q 538 915 524 915 q 561 926 549 915 q 590 953 574 936 q 617 979 607 969 l 626 979 l 660 944 l 660 935 z "},"ö":{"ha":750,"x_min":63,"x_max":696,"o":"m 426 699 q 626 624 557 699 q 696 403 696 550 q 653 188 696 282 q 528 42 610 94 q 333 -10 446 -10 q 133 67 203 -10 q 63 293 63 143 q 158 589 63 479 q 426 699 254 699 m 414 617 q 227 536 290 617 q 164 299 164 456 q 206 126 164 179 q 343 74 249 74 q 531 156 468 74 q 593 392 593 238 q 551 563 593 508 q 414 617 508 617 m 335 957 q 375 941 360 957 q 390 900 390 925 q 374 855 390 872 q 332 838 358 838 q 290 853 306 838 q 275 896 275 868 q 291 940 275 924 q 335 957 307 957 m 557 956 q 597 940 582 956 q 611 899 611 925 q 595 854 611 871 q 553 838 579 838 q 496 894 496 838 q 512 939 496 922 q 557 956 528 956 z "},"÷":{"ha":664,"x_min":49,"x_max":628,"o":"m 621 332 l 56 332 l 49 340 l 54 406 l 619 406 l 628 397 l 621 332 m 298 181 q 339 167 325 181 q 353 126 353 152 q 338 81 353 98 q 296 64 322 64 q 254 80 270 64 q 239 122 239 96 q 255 165 239 148 q 298 181 271 181 m 354 642 q 395 628 380 642 q 409 587 409 613 q 393 542 409 559 q 351 525 378 525 q 310 541 325 525 q 295 583 295 557 q 311 626 295 609 q 354 642 326 642 z "},"ø":{"ha":750,"x_min":63,"x_max":696,"o":"m 601 647 q 696 403 696 572 q 653 188 696 282 q 528 42 610 94 q 333 -10 446 -10 q 218 10 269 -10 l 133 -132 l 72 -97 l 69 -86 l 150 49 q 63 293 63 125 q 158 589 63 479 q 426 699 254 699 q 532 683 483 699 l 603 801 l 663 767 l 667 754 l 601 647 m 164 299 q 201 133 164 188 l 486 607 q 413 617 457 617 q 227 536 290 617 q 164 299 164 456 m 342 74 q 530 156 467 74 q 593 392 593 238 q 551 563 593 508 l 264 85 q 342 74 300 74 z "},"ù":{"ha":736,"x_min":89,"x_max":682,"o":"m 622 240 q 533 57 608 122 q 329 -8 457 -8 q 151 43 214 -8 q 89 190 89 94 q 93 240 89 214 l 108 346 l 149 692 l 247 692 l 186 257 q 183 217 183 229 q 338 76 183 76 q 535 257 511 76 l 583 692 l 682 692 l 635 339 l 622 240 m 336 1021 q 563 819 433 928 l 533 778 l 522 776 q 288 953 415 851 l 286 965 l 325 1019 l 336 1021 z "},"ú":{"ha":736,"x_min":89,"x_max":682,"o":"m 622 240 q 533 57 608 122 q 329 -8 457 -8 q 151 43 214 -8 q 89 190 89 94 q 93 240 89 214 l 108 346 l 149 692 l 247 692 l 186 257 q 183 217 183 229 q 338 76 183 76 q 535 257 511 76 l 583 692 l 682 692 l 635 339 l 622 240 m 578 965 l 575 953 q 342 776 436 843 l 331 778 l 301 819 q 526 1021 433 929 l 539 1019 l 578 965 z "},"û":{"ha":736,"x_min":89,"x_max":682,"o":"m 622 240 q 533 57 608 122 q 329 -8 457 -8 q 151 43 214 -8 q 89 190 89 94 q 93 240 89 214 l 108 346 l 149 692 l 247 692 l 186 257 q 183 217 183 229 q 338 76 183 76 q 535 257 511 76 l 583 692 l 682 692 l 635 339 l 622 240 m 254 821 q 443 1007 332 892 l 475 1007 q 618 821 540 911 l 585 779 l 574 779 q 450 925 508 846 q 290 779 388 863 l 278 779 l 254 821 z "},"ü":{"ha":736,"x_min":89,"x_max":682,"o":"m 622 240 q 533 57 608 122 q 329 -8 457 -8 q 151 43 214 -8 q 89 190 89 94 q 93 240 89 214 l 108 346 l 149 692 l 247 692 l 186 257 q 183 217 183 229 q 338 76 183 76 q 535 257 511 76 l 583 692 l 682 692 l 635 339 l 622 240 m 329 957 q 369 941 354 957 q 385 900 385 925 q 369 855 385 872 q 326 838 353 838 q 285 853 300 838 q 269 896 269 868 q 285 940 269 924 q 329 957 301 957 m 551 956 q 591 940 576 956 q 606 899 606 925 q 590 854 606 871 q 547 838 574 838 q 490 894 490 838 q 506 939 490 922 q 551 956 522 956 z "},"ý":{"ha":629,"x_min":83,"x_max":642,"o":"m 336 199 l 314 0 l 217 0 l 246 199 l 251 247 l 83 692 l 188 692 l 197 651 l 308 350 l 317 350 l 517 649 l 539 692 l 642 692 l 343 242 l 336 199 m 525 965 l 522 953 q 289 776 383 843 l 278 778 l 249 819 q 474 1021 381 929 l 486 1019 l 525 965 z "},"þ":{"ha":632,"x_min":85,"x_max":582,"o":"m 381 578 q 528 528 475 578 q 582 392 582 479 q 545 257 582 318 q 443 160 508 196 q 297 125 378 125 l 196 125 l 183 0 l 85 0 l 114 208 l 171 692 l 271 692 l 256 576 l 381 578 m 336 201 q 441 263 403 214 q 479 381 479 311 q 448 469 479 440 q 353 500 417 497 l 244 499 l 206 217 l 204 204 l 336 201 z "},"ÿ":{"ha":629,"x_min":83,"x_max":642,"o":"m 336 199 l 314 0 l 217 0 l 246 199 l 251 247 l 83 692 l 188 692 l 197 651 l 308 350 l 317 350 l 517 649 l 539 692 l 642 692 l 343 242 l 336 199 m 276 957 q 317 941 301 957 q 332 900 332 925 q 316 855 332 872 q 274 838 300 838 q 232 853 247 838 q 217 896 217 868 q 233 940 217 924 q 276 957 249 957 m 499 956 q 538 940 524 956 q 553 899 553 925 q 537 854 553 871 q 494 838 521 838 q 438 894 438 838 q 453 939 438 922 q 499 956 469 956 z "},"Ā":{"ha":761,"x_min":-19,"x_max":694,"o":"m 589 0 l 581 86 l 551 246 l 363 249 l 192 246 l 119 92 l 85 0 l -19 0 l 403 889 l 522 889 l 694 0 l 589 0 m 451 781 l 442 781 l 233 335 l 381 333 l 535 335 l 451 781 m 679 1061 l 286 1061 l 278 1069 l 285 1131 l 678 1131 l 686 1124 l 679 1061 z "},"ā":{"ha":682,"x_min":-4,"x_max":619,"o":"m 497 0 l 493 74 l 471 181 l 314 182 l 174 181 l 122 78 l 93 0 l -4 0 l 339 692 l 451 692 l 597 0 l 497 0 m 383 593 l 378 593 l 213 261 l 453 261 l 383 593 m 613 864 l 219 864 l 211 872 l 218 933 l 611 933 l 619 926 l 613 864 z "},"Ă":{"ha":761,"x_min":-19,"x_max":694,"o":"m 589 0 l 581 86 l 551 246 l 363 249 l 192 246 l 119 92 l 85 0 l -19 0 l 403 889 l 522 889 l 694 0 l 589 0 m 451 781 l 442 781 l 233 335 l 381 333 l 535 335 l 451 781 m 654 1129 q 582 1038 628 1069 q 476 1006 536 1006 q 365 1038 408 1006 q 308 1129 321 1069 l 343 1165 l 360 1165 q 476 1082 378 1082 q 613 1165 571 1082 l 629 1165 l 654 1129 z "},"ă":{"ha":682,"x_min":-4,"x_max":597,"o":"m 497 0 l 493 74 l 471 181 l 314 182 l 174 181 l 122 78 l 93 0 l -4 0 l 339 692 l 451 692 l 597 0 l 497 0 m 383 593 l 378 593 l 213 261 l 453 261 l 383 593 m 586 944 q 400 786 535 786 q 242 944 256 786 l 275 985 l 290 985 q 404 863 303 863 q 544 985 506 863 l 561 985 l 586 944 z "},"Ą":{"ha":761,"x_min":-18,"x_max":696,"o":"m 688 -201 q 571 -272 632 -272 q 507 -249 532 -272 q 482 -185 482 -225 q 504 -114 482 -153 q 590 0 526 -75 l 581 86 l 551 246 l 363 249 l 192 246 l 119 92 l 86 0 l -18 0 l 404 889 l 524 889 l 696 0 l 668 0 q 579 -101 603 -65 q 556 -162 556 -136 q 589 -200 556 -200 q 676 -140 628 -200 l 682 -140 l 688 -201 m 453 781 l 443 781 l 233 335 l 382 333 l 535 335 l 453 781 z "},"ą":{"ha":682,"x_min":-4,"x_max":597,"o":"m 597 -201 q 478 -272 540 -272 q 413 -249 439 -272 q 388 -185 388 -225 q 410 -113 388 -153 q 499 0 432 -74 l 493 74 l 471 181 l 314 182 l 174 181 l 122 78 l 93 0 l -4 0 l 339 692 l 453 692 l 597 0 l 576 0 q 485 -101 510 -67 q 461 -162 461 -136 q 496 -200 461 -200 q 585 -140 536 -200 l 592 -140 l 597 -201 m 383 593 l 378 593 l 213 261 l 453 261 l 383 593 z "},"Ć":{"ha":694,"x_min":65,"x_max":726,"o":"m 500 897 q 726 829 635 897 l 693 733 l 682 731 q 488 808 601 808 q 256 694 338 808 q 174 369 174 579 q 231 155 174 229 q 393 81 288 81 q 625 165 514 81 l 638 158 l 615 60 q 376 -10 496 -10 q 147 85 228 -10 q 65 354 65 181 q 117 644 65 522 q 266 832 168 767 q 500 897 364 897 m 660 1132 l 656 1119 q 449 1026 572 1079 l 388 1000 l 375 1006 l 356 1053 q 621 1196 503 1126 l 632 1193 l 660 1132 z "},"ć":{"ha":618,"x_min":63,"x_max":615,"o":"m 428 697 q 615 649 542 697 l 586 558 l 572 554 q 410 617 513 617 q 228 533 292 617 q 165 293 165 450 q 210 131 165 188 q 340 75 256 75 q 532 139 440 75 l 544 135 l 525 44 q 332 -8 428 -8 q 133 68 204 -8 q 63 282 63 144 q 159 588 63 479 q 428 697 256 697 m 549 965 l 546 953 q 313 776 407 843 l 301 778 l 272 819 q 497 1021 404 929 l 510 1019 l 549 965 z "},"Ĉ":{"ha":694,"x_min":65,"x_max":726,"o":"m 500 897 q 726 829 635 897 l 693 733 l 682 731 q 488 808 601 808 q 256 694 338 808 q 174 369 174 579 q 231 155 174 229 q 393 81 288 81 q 625 165 514 81 l 638 158 l 615 60 q 376 -10 496 -10 q 147 85 228 -10 q 65 354 65 181 q 117 644 65 522 q 266 832 168 767 q 500 897 364 897 m 318 1063 q 492 1186 396 1110 l 522 1186 q 669 1063 579 1131 l 642 1017 l 631 1017 q 501 1110 571 1057 q 347 1017 413 1054 l 335 1017 l 318 1063 z "},"ĉ":{"ha":618,"x_min":63,"x_max":615,"o":"m 428 697 q 615 649 542 697 l 586 558 l 572 554 q 410 617 513 617 q 228 533 292 617 q 165 293 165 450 q 210 131 165 188 q 340 75 256 75 q 532 139 440 75 l 544 135 l 525 44 q 332 -8 428 -8 q 133 68 204 -8 q 63 282 63 144 q 159 588 63 479 q 428 697 256 697 m 225 821 q 414 1007 303 892 l 446 1007 q 589 821 511 911 l 556 779 l 544 779 q 421 925 479 846 q 261 779 358 863 l 249 779 l 225 821 z "},"Ċ":{"ha":694,"x_min":65,"x_max":726,"o":"m 500 897 q 726 829 635 897 l 693 733 l 682 731 q 488 808 601 808 q 256 694 338 808 q 174 369 174 579 q 231 155 174 229 q 393 81 288 81 q 625 165 514 81 l 638 158 l 615 60 q 376 -10 496 -10 q 147 85 228 -10 q 65 354 65 181 q 117 644 65 522 q 266 832 168 767 q 500 897 364 897 m 497 1171 q 554 1111 554 1171 q 538 1065 554 1082 q 493 1047 521 1047 q 449 1064 465 1047 q 433 1108 433 1081 q 451 1153 433 1136 q 497 1171 468 1171 z "},"ċ":{"ha":618,"x_min":63,"x_max":615,"o":"m 428 697 q 615 649 542 697 l 586 558 l 572 554 q 410 617 513 617 q 228 533 292 617 q 165 293 165 450 q 210 131 165 188 q 340 75 256 75 q 532 139 440 75 l 544 135 l 525 44 q 332 -8 428 -8 q 133 68 204 -8 q 63 282 63 144 q 159 588 63 479 q 428 697 256 697 m 413 974 q 469 914 469 974 q 453 867 469 885 q 408 850 436 850 q 365 867 381 850 q 349 911 349 883 q 366 956 349 939 q 413 974 383 974 z "},"Č":{"ha":694,"x_min":65,"x_max":726,"o":"m 500 897 q 726 829 635 897 l 693 733 l 682 731 q 488 808 601 808 q 256 694 338 808 q 174 369 174 579 q 231 155 174 229 q 393 81 288 81 q 625 165 514 81 l 638 158 l 615 60 q 376 -10 496 -10 q 147 85 228 -10 q 65 354 65 181 q 117 644 65 522 q 266 832 168 767 q 500 897 364 897 m 667 1131 q 494 1006 578 1075 l 464 1006 q 317 1131 386 1076 l 343 1175 l 356 1175 l 399 1144 q 485 1083 407 1139 q 638 1175 539 1118 l 650 1175 l 667 1131 z "},"č":{"ha":618,"x_min":63,"x_max":615,"o":"m 428 697 q 615 649 542 697 l 586 558 l 572 554 q 410 617 513 617 q 228 533 292 617 q 165 293 165 450 q 210 131 165 188 q 340 75 256 75 q 532 139 440 75 l 544 135 l 525 44 q 332 -8 428 -8 q 133 68 204 -8 q 63 282 63 144 q 159 588 63 479 q 428 697 256 697 m 590 965 q 443 819 529 908 l 406 781 l 374 781 q 226 965 306 881 l 260 1008 l 272 1008 q 394 861 346 928 q 554 1008 449 915 l 568 1008 l 590 965 z "},"Ď":{"ha":861,"x_min":88,"x_max":832,"o":"m 497 896 q 744 806 657 896 q 832 549 832 715 q 778 251 832 376 q 621 59 725 126 q 369 -8 517 -8 q 89 0 233 -8 l 88 0 l 128 268 l 200 889 l 201 889 l 497 896 m 390 79 q 635 195 549 79 q 722 529 722 311 q 486 808 722 808 q 293 803 393 808 l 221 276 l 201 88 q 390 79 329 79 m 658 1131 q 486 1006 569 1075 l 456 1006 q 308 1131 378 1076 l 335 1175 l 347 1175 l 390 1144 q 476 1083 399 1139 q 629 1175 531 1118 l 642 1175 l 658 1131 z "},"ď":{"ha":763,"x_min":85,"x_max":708,"o":"m 425 697 q 634 625 560 697 q 708 422 708 553 q 608 107 708 221 q 324 -7 507 -7 q 85 0 189 -7 l 114 208 l 171 692 l 425 697 m 342 74 q 538 158 468 74 q 607 403 607 243 q 413 613 607 613 l 258 608 l 204 217 l 190 81 q 342 74 264 74 m 610 965 q 463 819 549 908 l 425 781 l 393 781 q 246 965 325 881 l 279 1008 l 292 1008 q 414 861 365 928 q 574 1008 468 915 l 588 1008 l 610 965 z "},"Đ":{"ha":861,"x_min":88,"x_max":832,"o":"m 497 896 q 744 806 657 896 q 832 549 832 715 q 778 251 832 376 q 621 59 725 126 q 369 -8 517 -8 q 89 0 233 -8 l 88 0 l 128 268 l 200 889 l 201 889 l 497 896 m 390 79 q 635 195 549 79 q 722 529 722 311 q 486 808 722 808 q 293 803 393 808 l 221 276 l 201 88 q 390 79 329 79 m 682 1061 l 289 1061 l 281 1069 l 288 1131 l 681 1131 l 689 1124 l 682 1061 z "},"đ":{"ha":763,"x_min":85,"x_max":708,"o":"m 425 697 q 634 625 560 697 q 708 422 708 553 q 608 107 708 221 q 324 -7 507 -7 q 85 0 189 -7 l 114 208 l 171 692 l 425 697 m 342 74 q 538 158 468 74 q 607 403 607 243 q 413 613 607 613 l 258 608 l 204 217 l 190 81 q 342 74 264 74 m 625 864 l 232 864 l 224 872 l 231 933 l 624 933 l 632 926 l 625 864 z "},"Ē":{"ha":640,"x_min":88,"x_max":678,"o":"m 253 500 l 413 497 l 551 501 l 558 492 l 539 411 l 392 414 l 240 413 l 222 276 l 203 89 l 372 86 l 574 92 l 578 82 l 560 0 l 88 0 l 128 268 l 200 889 l 674 889 l 678 879 l 660 797 l 463 803 l 292 800 l 253 500 m 653 1061 l 260 1061 l 251 1069 l 258 1131 l 651 1131 l 660 1124 l 653 1061 z "},"ē":{"ha":582,"x_min":85,"x_max":601,"o":"m 229 394 l 363 393 l 478 397 l 482 388 l 467 311 l 343 314 l 218 314 l 204 217 l 190 81 l 319 79 l 497 83 l 504 76 l 486 0 l 85 0 l 114 208 l 171 692 l 575 692 l 579 682 l 563 607 l 397 613 l 258 611 l 229 394 m 594 864 l 201 864 l 193 872 l 200 933 l 593 933 l 601 926 l 594 864 z "},"Ĕ":{"ha":640,"x_min":88,"x_max":678,"o":"m 253 500 l 413 497 l 551 501 l 558 492 l 539 411 l 392 414 l 240 413 l 222 276 l 203 89 l 372 86 l 574 92 l 578 82 l 560 0 l 88 0 l 128 268 l 200 889 l 674 889 l 678 879 l 660 797 l 463 803 l 292 800 l 253 500 m 628 1129 q 556 1038 601 1069 q 450 1006 510 1006 q 338 1038 382 1006 q 282 1129 294 1069 l 317 1165 l 333 1165 q 450 1082 351 1082 q 586 1165 544 1082 l 603 1165 l 628 1129 z "},"ĕ":{"ha":582,"x_min":85,"x_max":579,"o":"m 229 394 l 363 393 l 478 397 l 482 388 l 467 311 l 343 314 l 218 314 l 204 217 l 190 81 l 319 79 l 497 83 l 504 76 l 486 0 l 85 0 l 114 208 l 171 692 l 575 692 l 579 682 l 563 607 l 397 613 l 258 611 l 229 394 m 568 944 q 382 786 517 786 q 224 944 238 786 l 257 985 l 272 985 q 386 863 285 863 q 526 985 488 863 l 543 985 l 568 944 z "},"Ė":{"ha":640,"x_min":88,"x_max":678,"o":"m 253 500 l 413 497 l 551 501 l 558 492 l 539 411 l 392 414 l 240 413 l 222 276 l 203 89 l 372 86 l 574 92 l 578 82 l 560 0 l 88 0 l 128 268 l 200 889 l 674 889 l 678 879 l 660 797 l 463 803 l 292 800 l 253 500 m 460 1171 q 517 1111 517 1171 q 500 1065 517 1082 q 456 1047 483 1047 q 412 1064 428 1047 q 396 1108 396 1081 q 413 1153 396 1136 q 460 1171 431 1171 z "},"ė":{"ha":582,"x_min":85,"x_max":579,"o":"m 229 394 l 363 393 l 478 397 l 482 388 l 467 311 l 343 314 l 218 314 l 204 217 l 190 81 l 319 79 l 497 83 l 504 76 l 486 0 l 85 0 l 114 208 l 171 692 l 575 692 l 579 682 l 563 607 l 397 613 l 258 611 l 229 394 m 401 974 q 458 914 458 974 q 442 867 458 885 q 397 850 425 850 q 353 867 369 850 q 338 911 338 883 q 355 956 338 939 q 401 974 372 974 z "},"Ę":{"ha":640,"x_min":88,"x_max":678,"o":"m 253 500 l 413 497 l 551 501 l 558 492 l 539 411 l 392 414 l 240 413 l 222 276 l 201 89 l 372 86 l 574 92 l 578 82 l 560 0 l 472 0 l 422 -76 q 399 -146 399 -117 q 454 -203 399 -203 q 551 -147 503 -203 l 557 -147 l 572 -200 q 438 -274 503 -274 q 359 -243 389 -274 q 329 -165 329 -212 q 364 -64 329 -115 l 408 0 l 88 0 l 128 268 l 200 889 l 674 889 l 678 879 l 660 797 l 463 803 l 292 800 l 253 500 z "},"ę":{"ha":582,"x_min":85,"x_max":581,"o":"m 228 394 l 361 393 l 476 397 l 482 388 l 465 311 l 343 314 l 217 314 l 204 217 l 190 81 l 319 79 l 497 83 l 504 76 l 486 0 l 385 0 l 335 -76 q 311 -146 311 -117 q 367 -203 311 -203 q 464 -147 415 -203 l 469 -147 l 485 -200 q 350 -274 415 -274 q 272 -243 301 -274 q 242 -165 242 -212 q 276 -64 242 -115 l 321 0 l 85 0 l 114 208 l 171 692 l 576 692 l 581 682 l 563 607 l 399 613 l 257 611 l 228 394 z "},"Ě":{"ha":640,"x_min":88,"x_max":678,"o":"m 253 500 l 413 497 l 551 501 l 558 492 l 539 411 l 392 414 l 240 413 l 222 276 l 203 89 l 372 86 l 574 92 l 578 82 l 560 0 l 88 0 l 128 268 l 200 889 l 674 889 l 678 879 l 660 797 l 463 803 l 292 800 l 253 500 m 629 1131 q 457 1006 540 1075 l 426 1006 q 279 1131 349 1076 l 306 1175 l 318 1175 l 361 1144 q 447 1083 369 1139 q 600 1175 501 1118 l 613 1175 l 629 1131 z "},"ě":{"ha":582,"x_min":85,"x_max":579,"o":"m 229 394 l 363 393 l 478 397 l 482 388 l 467 311 l 343 314 l 218 314 l 204 217 l 190 81 l 319 79 l 497 83 l 504 76 l 486 0 l 85 0 l 114 208 l 171 692 l 575 692 l 579 682 l 563 607 l 397 613 l 258 611 l 229 394 m 579 965 q 432 819 518 908 l 394 781 l 363 781 q 215 965 294 881 l 249 1008 l 261 1008 q 383 861 335 928 q 543 1008 438 915 l 557 1008 l 579 965 z "},"Ĝ":{"ha":799,"x_min":63,"x_max":778,"o":"m 529 897 q 778 833 663 897 l 743 735 l 731 732 q 622 790 672 772 q 511 808 571 808 q 257 692 344 808 q 169 354 169 576 q 228 147 169 214 q 408 81 286 81 q 583 114 479 81 l 601 222 l 614 347 l 713 356 l 696 236 l 676 43 q 533 3 594 15 q 401 -10 472 -10 q 149 83 235 -10 q 63 344 63 175 q 185 753 63 608 q 529 897 307 897 m 336 1063 q 510 1186 414 1110 l 540 1186 q 688 1063 597 1131 l 660 1017 l 649 1017 q 519 1110 589 1057 q 365 1017 431 1054 l 353 1017 l 336 1063 z "},"ĝ":{"ha":708,"x_min":63,"x_max":663,"o":"m 451 697 q 663 650 556 697 l 617 556 l 607 556 q 517 602 556 589 q 433 615 478 615 q 232 532 300 615 q 164 293 164 449 q 208 128 164 181 q 354 75 251 75 q 501 104 421 75 l 511 178 l 521 275 l 611 282 l 599 192 l 579 33 q 347 -8 440 -8 q 63 288 63 -8 q 109 505 63 413 q 243 647 156 597 q 451 697 331 697 m 254 821 q 443 1007 332 892 l 475 1007 q 618 821 540 911 l 585 779 l 574 779 q 450 925 508 846 q 290 779 388 863 l 278 779 l 254 821 z "},"Ğ":{"ha":799,"x_min":63,"x_max":778,"o":"m 529 897 q 778 833 663 897 l 743 735 l 731 732 q 622 790 672 772 q 511 808 571 808 q 257 692 344 808 q 169 354 169 576 q 228 147 169 214 q 408 81 286 81 q 583 114 479 81 l 601 222 l 614 347 l 713 356 l 696 236 l 676 43 q 533 3 594 15 q 401 -10 472 -10 q 149 83 235 -10 q 63 344 63 175 q 185 753 63 608 q 529 897 307 897 m 683 1129 q 611 1038 657 1069 q 506 1006 565 1006 q 394 1038 438 1006 q 338 1129 350 1069 l 372 1165 l 389 1165 q 506 1082 407 1082 q 642 1165 600 1082 l 658 1165 l 683 1129 z "},"ğ":{"ha":708,"x_min":63,"x_max":663,"o":"m 451 697 q 663 650 556 697 l 617 556 l 607 556 q 517 602 556 589 q 433 615 478 615 q 232 532 300 615 q 164 293 164 449 q 208 128 164 181 q 354 75 251 75 q 501 104 421 75 l 511 178 l 521 275 l 611 282 l 599 192 l 579 33 q 347 -8 440 -8 q 63 288 63 -8 q 109 505 63 413 q 243 647 156 597 q 451 697 331 697 m 607 944 q 421 786 556 786 q 263 944 276 786 l 296 985 l 311 985 q 425 863 324 863 q 565 985 526 863 l 582 985 l 607 944 z "},"Ġ":{"ha":799,"x_min":63,"x_max":778,"o":"m 529 897 q 778 833 663 897 l 743 735 l 731 732 q 622 790 672 772 q 511 808 571 808 q 257 692 344 808 q 169 354 169 576 q 228 147 169 214 q 408 81 286 81 q 583 114 479 81 l 601 222 l 614 347 l 713 356 l 696 236 l 676 43 q 533 3 594 15 q 401 -10 472 -10 q 149 83 235 -10 q 63 344 63 175 q 185 753 63 608 q 529 897 307 897 m 515 1171 q 572 1111 572 1171 q 556 1065 572 1082 q 511 1047 539 1047 q 467 1064 483 1047 q 451 1108 451 1081 q 469 1153 451 1136 q 515 1171 486 1171 z "},"ġ":{"ha":708,"x_min":63,"x_max":663,"o":"m 451 697 q 663 650 556 697 l 617 556 l 607 556 q 517 602 556 589 q 433 615 478 615 q 232 532 300 615 q 164 293 164 449 q 208 128 164 181 q 354 75 251 75 q 501 104 421 75 l 511 178 l 521 275 l 611 282 l 599 192 l 579 33 q 347 -8 440 -8 q 63 288 63 -8 q 109 505 63 413 q 243 647 156 597 q 451 697 331 697 m 440 974 q 497 914 497 974 q 481 867 497 885 q 436 850 464 850 q 392 867 408 850 q 376 911 376 883 q 394 956 376 939 q 440 974 411 974 z "},"Ģ":{"ha":799,"x_min":63,"x_max":778,"o":"m 529 897 q 778 833 663 897 l 743 735 l 731 732 q 622 790 672 772 q 511 808 571 808 q 257 692 344 808 q 169 354 169 576 q 228 147 169 214 q 408 81 286 81 q 583 114 479 81 l 601 222 l 614 347 l 713 356 l 696 236 l 676 43 q 533 3 594 15 q 401 -10 472 -10 q 149 83 235 -10 q 63 344 63 175 q 185 753 63 608 q 529 897 307 897 m 428 -79 q 482 -165 482 -114 q 364 -335 482 -247 l 329 -304 l 331 -296 q 401 -182 401 -237 q 361 -121 401 -150 l 361 -112 q 428 -79 394 -90 z "},"ģ":{"ha":708,"x_min":63,"x_max":663,"o":"m 451 697 q 663 650 556 697 l 617 556 l 607 556 q 517 602 556 589 q 433 615 478 615 q 232 532 300 615 q 164 293 164 449 q 208 128 164 181 q 354 75 251 75 q 501 104 421 75 l 511 178 l 521 275 l 611 282 l 599 192 l 579 33 q 347 -8 440 -8 q 63 288 63 -8 q 109 505 63 413 q 243 647 156 597 q 451 697 331 697 m 375 -79 q 429 -165 429 -114 q 311 -335 429 -247 l 276 -304 l 278 -296 q 349 -182 349 -237 q 308 -121 349 -150 l 308 -112 q 375 -79 342 -90 z "},"Ĥ":{"ha":907,"x_min":88,"x_max":853,"o":"m 771 276 l 742 0 l 638 0 l 676 268 l 692 404 l 456 408 l 239 404 l 221 276 l 193 0 l 88 0 l 128 268 l 199 889 l 304 889 l 250 496 l 475 492 l 703 496 l 747 889 l 853 889 l 771 276 m 376 1063 q 550 1186 454 1110 l 581 1186 q 728 1063 638 1131 l 700 1017 l 689 1017 q 560 1110 629 1057 q 406 1017 471 1054 l 393 1017 l 376 1063 z "},"ĥ":{"ha":800,"x_min":85,"x_max":725,"o":"m 661 217 l 638 0 l 540 0 l 571 208 l 582 306 l 217 304 l 204 217 l 182 0 l 85 0 l 115 208 l 171 692 l 269 692 l 228 392 l 411 390 l 592 392 l 626 692 l 725 692 l 661 217 m 286 821 q 475 1007 364 892 l 507 1007 q 650 821 572 911 l 617 779 l 606 779 q 482 925 540 846 q 322 779 419 863 l 310 779 l 286 821 z "},"Ħ":{"ha":944,"x_min":103,"x_max":938,"o":"m 839 664 l 788 276 l 757 0 l 654 0 l 693 268 l 708 404 l 471 408 l 254 404 l 238 276 l 208 0 l 104 0 l 143 268 l 189 664 l 107 664 l 103 671 l 108 739 l 197 739 l 215 889 l 319 889 l 300 739 l 747 739 l 764 889 l 869 889 l 850 739 l 932 739 l 938 731 l 932 664 l 839 664 m 289 664 l 267 496 l 492 492 l 719 496 l 739 664 l 289 664 z "},"ħ":{"ha":800,"x_min":69,"x_max":783,"o":"m 699 506 l 660 217 l 638 0 l 540 0 l 571 208 l 582 306 l 215 304 l 204 217 l 182 0 l 85 0 l 115 208 l 150 506 l 75 506 l 69 514 l 83 569 l 157 569 l 171 692 l 268 692 l 251 569 l 613 569 l 626 692 l 724 692 l 707 569 l 778 569 l 783 564 l 771 506 l 699 506 m 243 506 l 228 392 l 411 390 l 592 392 l 606 506 l 243 506 z "},"Ĩ":{"ha":360,"x_min":85,"x_max":469,"o":"m 193 0 l 88 0 l 128 268 l 199 889 l 304 889 l 221 276 l 193 0 m 469 1128 l 393 1035 l 382 1031 q 281 1058 360 1035 q 197 1081 208 1081 q 175 1071 186 1081 q 150 1044 164 1061 q 128 1018 136 1028 l 118 1018 l 85 1053 l 85 1063 l 161 1154 l 172 1160 q 275 1132 197 1156 q 357 1110 339 1110 q 379 1119 368 1110 q 404 1146 390 1129 q 426 1172 418 1163 l 438 1172 l 469 1138 l 469 1128 z "},"ĩ":{"ha":350,"x_min":53,"x_max":438,"o":"m 182 0 l 85 0 l 115 208 l 171 692 l 269 692 l 204 217 l 182 0 m 438 931 l 361 838 l 350 833 q 249 861 328 838 q 165 883 176 883 q 143 874 154 883 q 118 847 132 864 q 96 821 104 831 l 86 821 l 53 856 l 53 865 l 129 957 l 140 963 q 243 935 165 958 q 325 913 307 913 q 347 922 336 913 q 372 949 358 932 q 394 975 386 965 l 406 975 l 438 940 l 438 931 z "},"Ī":{"ha":360,"x_min":88,"x_max":432,"o":"m 193 0 l 88 0 l 128 268 l 199 889 l 304 889 l 221 276 l 193 0 m 428 1061 l 126 1061 l 119 1069 l 125 1131 l 425 1131 l 432 1124 l 428 1061 z "},"ī":{"ha":350,"x_min":85,"x_max":400,"o":"m 182 0 l 85 0 l 115 208 l 171 692 l 269 692 l 204 217 l 182 0 m 396 864 l 94 864 l 88 872 l 93 933 l 393 933 l 400 926 l 396 864 z "},"Ĭ":{"ha":360,"x_min":88,"x_max":449,"o":"m 193 0 l 88 0 l 128 268 l 199 889 l 304 889 l 221 276 l 193 0 m 449 1129 q 376 1038 422 1069 q 271 1006 331 1006 q 159 1038 203 1006 q 103 1129 115 1069 l 138 1165 l 154 1165 q 271 1082 172 1082 q 407 1165 365 1082 l 424 1165 l 449 1129 z "},"ĭ":{"ha":350,"x_min":71,"x_max":415,"o":"m 182 0 l 85 0 l 115 208 l 171 692 l 269 692 l 204 217 l 182 0 m 415 944 q 229 786 364 786 q 71 944 85 786 l 104 985 l 119 985 q 233 863 132 863 q 374 985 335 863 l 390 985 l 415 944 z "},"Į":{"ha":360,"x_min":-19,"x_max":303,"o":"m 221 276 l 192 0 l 156 0 q 72 -106 94 -72 q 50 -162 50 -140 q 89 -201 50 -201 q 167 -153 131 -201 l 171 -153 l 190 -207 q 74 -274 131 -274 q 7 -247 33 -274 q -19 -179 -19 -221 q 3 -108 -19 -146 q 88 3 25 -71 l 126 268 l 199 889 l 303 889 l 221 276 z "},"į":{"ha":350,"x_min":-21,"x_max":268,"o":"m 154 0 q 71 -106 93 -72 q 49 -162 49 -140 q 88 -201 49 -201 q 165 -153 129 -201 l 169 -153 l 189 -207 q 72 -274 129 -274 q 5 -248 31 -274 q -21 -179 -21 -222 q 1 -109 -21 -146 q 85 0 24 -72 l 115 208 l 171 692 l 268 692 l 204 217 l 182 0 l 154 0 z "},"İ":{"ha":360,"x_min":88,"x_max":338,"o":"m 193 0 l 88 0 l 128 268 l 199 889 l 304 889 l 221 276 l 193 0 m 281 1171 q 338 1111 338 1171 q 321 1065 338 1082 q 276 1047 304 1047 q 233 1064 249 1047 q 217 1108 217 1081 q 234 1153 217 1136 q 281 1171 251 1171 z "},"ı":{"ha":350,"x_min":85,"x_max":269,"o":"m 182 0 l 85 0 l 115 208 l 171 692 l 269 692 l 204 217 l 182 0 z "},"Ĳ":{"ha":771,"x_min":88,"x_max":710,"o":"m 193 0 l 88 0 l 128 268 l 199 889 l 304 889 l 221 276 l 193 0 m 629 294 l 617 164 q 542 -9 603 60 q 350 -140 482 -78 l 317 -82 l 318 -69 q 464 35 418 -17 q 519 164 510 86 l 535 285 l 594 804 l 429 803 l 419 813 l 436 889 l 710 889 l 629 294 z "},"ĳ":{"ha":749,"x_min":85,"x_max":653,"o":"m 182 0 l 85 0 l 115 208 l 171 692 l 269 692 l 204 217 l 182 0 m 593 229 l 581 128 q 526 -9 569 44 q 382 -110 482 -62 l 347 -56 l 349 -44 q 450 32 418 -8 q 489 132 482 72 l 500 218 l 547 615 l 414 615 l 408 622 l 424 692 l 653 692 l 593 229 z "},"Ĵ":{"ha":413,"x_min":-43,"x_max":439,"o":"m 269 294 l 257 164 q 183 -9 243 60 q -10 -140 122 -78 l -43 -82 l -42 -69 q 104 35 58 -17 q 160 164 150 86 l 175 285 l 235 804 l 69 803 l 60 813 l 76 889 l 350 889 l 269 294 m 88 1063 q 261 1186 165 1110 l 292 1186 q 439 1063 349 1131 l 411 1017 l 400 1017 q 271 1110 340 1057 q 117 1017 182 1054 l 104 1017 l 88 1063 z "},"ĵ":{"ha":399,"x_min":-3,"x_max":394,"o":"m 243 229 l 231 128 q 176 -9 219 44 q 32 -110 132 -62 l -3 -56 l -1 -44 q 100 32 68 -8 q 139 132 132 72 l 150 218 l 197 615 l 64 615 l 58 622 l 74 692 l 303 692 l 243 229 m 31 821 q 219 1007 108 892 l 251 1007 q 394 821 317 911 l 361 779 l 350 779 q 226 925 285 846 q 67 779 164 863 l 54 779 l 31 821 z "},"Ķ":{"ha":722,"x_min":86,"x_max":772,"o":"m 192 0 l 86 0 l 128 268 l 199 889 l 304 889 l 221 276 l 192 0 m 376 469 q 688 22 514 240 l 683 10 q 582 -12 635 -4 l 572 -6 q 264 467 381 265 l 265 475 l 592 814 l 654 889 l 772 889 l 376 469 m 381 -79 q 435 -165 435 -114 q 317 -335 435 -247 l 282 -304 l 283 -296 q 354 -182 354 -237 q 314 -121 354 -150 l 314 -112 q 381 -79 347 -90 z "},"ķ":{"ha":653,"x_min":85,"x_max":665,"o":"m 342 367 q 599 22 456 194 l 596 7 q 500 -12 547 -7 l 485 -6 q 235 361 329 208 l 235 369 l 499 631 l 553 692 l 665 693 l 342 367 m 182 0 l 85 0 l 114 208 l 171 692 l 269 692 l 204 217 l 182 0 m 310 -79 q 364 -165 364 -114 q 246 -335 364 -247 l 211 -304 l 213 -296 q 283 -182 283 -237 q 243 -121 283 -150 l 243 -112 q 310 -79 276 -90 z "},"ĸ":{"ha":653,"x_min":85,"x_max":665,"o":"m 342 367 q 599 22 456 194 l 596 7 q 500 -12 547 -7 l 485 -6 q 235 361 329 208 l 235 369 l 499 631 l 553 692 l 665 693 l 342 367 m 182 0 l 85 0 l 114 208 l 171 692 l 269 692 l 204 217 l 182 0 z "},"Ĺ":{"ha":550,"x_min":85,"x_max":518,"o":"m 500 0 l 85 0 l 125 268 l 196 889 l 301 889 l 219 276 l 199 89 l 514 89 l 518 78 l 500 0 m 443 1132 l 439 1119 q 232 1026 356 1079 l 171 1000 l 158 1006 l 139 1053 q 404 1196 286 1126 l 415 1193 l 443 1132 z "},"ĺ":{"ha":506,"x_min":82,"x_max":451,"o":"m 433 0 l 82 0 l 113 208 l 169 692 l 267 692 l 203 217 l 188 82 l 444 82 l 451 74 l 433 0 m 385 965 l 382 953 q 149 776 243 843 l 138 778 l 108 819 q 333 1021 240 929 l 346 1019 l 385 965 z "},"Ļ":{"ha":550,"x_min":85,"x_max":518,"o":"m 500 0 l 85 0 l 125 268 l 196 889 l 301 889 l 219 276 l 199 89 l 514 89 l 518 78 l 500 0 m 278 -79 q 332 -165 332 -114 q 214 -335 332 -247 l 179 -304 l 181 -296 q 251 -182 251 -237 q 211 -121 251 -150 l 211 -112 q 278 -79 244 -90 z "},"ļ":{"ha":506,"x_min":82,"x_max":451,"o":"m 433 0 l 82 0 l 113 208 l 169 692 l 267 692 l 203 217 l 188 82 l 444 82 l 451 74 l 433 0 m 265 -79 q 319 -165 319 -114 q 201 -335 319 -247 l 167 -304 l 168 -296 q 239 -182 239 -237 q 199 -121 239 -150 l 199 -112 q 265 -79 232 -90 z "},"Ľ":{"ha":561,"x_min":85,"x_max":582,"o":"m 519 78 l 500 0 l 85 0 l 125 268 l 197 889 l 301 889 l 219 276 l 199 89 l 514 89 l 519 78 m 522 564 l 469 556 l 463 564 l 499 803 l 575 808 l 582 800 l 522 564 z "},"ľ":{"ha":519,"x_min":83,"x_max":508,"o":"m 451 74 l 433 0 l 83 0 l 113 208 l 169 692 l 267 692 l 203 217 l 188 82 l 446 82 l 451 74 m 389 417 l 426 656 l 501 661 l 508 651 l 449 415 l 396 408 l 389 417 z "},"Ŀ":{"ha":550,"x_min":85,"x_max":518,"o":"m 500 0 l 85 0 l 125 268 l 196 889 l 301 889 l 219 276 l 199 89 l 514 89 l 518 78 l 500 0 m 458 585 q 501 569 486 585 q 517 526 517 554 q 500 479 517 497 q 456 461 483 461 q 412 478 428 461 q 396 522 396 494 q 413 567 396 550 q 458 585 429 585 z "},"ŀ":{"ha":521,"x_min":83,"x_max":458,"o":"m 451 74 l 433 0 l 83 0 l 113 208 l 169 692 l 267 692 l 203 217 l 188 82 l 446 82 l 451 74 m 397 336 q 353 353 369 336 q 338 397 338 369 q 354 442 338 425 q 400 460 371 460 q 443 444 428 460 q 458 401 458 429 q 442 354 458 372 q 397 336 425 336 z "},"Ł":{"ha":564,"x_min":26,"x_max":531,"o":"m 513 0 l 96 0 l 138 268 l 153 406 l 49 351 l 38 358 l 26 421 l 163 492 l 208 889 l 314 889 l 267 546 l 453 642 l 464 636 l 476 574 l 256 458 l 231 276 l 211 89 l 525 89 l 531 78 l 513 0 z "},"ł":{"ha":508,"x_min":13,"x_max":439,"o":"m 422 0 l 71 0 l 101 208 l 113 304 l 25 265 l 15 272 l 13 329 l 121 376 l 157 692 l 254 692 l 218 419 l 396 497 l 404 493 l 404 433 l 208 346 l 190 217 l 175 82 l 433 82 l 439 74 l 422 0 z "},"Ń":{"ha":907,"x_min":88,"x_max":854,"o":"m 739 0 l 631 0 l 282 722 l 272 722 l 218 292 l 186 0 l 88 0 l 126 264 l 201 889 l 310 889 l 658 167 l 667 167 l 756 885 l 854 892 l 768 260 l 739 0 m 718 1132 l 714 1119 q 507 1026 631 1079 l 446 1000 l 433 1006 l 414 1053 q 679 1196 561 1126 l 690 1193 l 718 1132 z "},"ń":{"ha":801,"x_min":85,"x_max":725,"o":"m 635 0 l 532 0 l 244 538 l 239 538 l 199 229 l 172 0 l 85 0 l 114 204 l 172 692 l 274 692 l 563 154 l 569 154 l 635 688 l 725 694 l 657 206 l 635 0 m 610 965 l 607 953 q 374 776 468 843 l 363 778 l 333 819 q 558 1021 465 929 l 571 1019 l 610 965 z "},"Ņ":{"ha":907,"x_min":88,"x_max":854,"o":"m 739 0 l 631 0 l 282 722 l 272 722 l 218 292 l 186 0 l 88 0 l 126 264 l 201 889 l 310 889 l 658 167 l 667 167 l 756 885 l 854 892 l 768 260 l 739 0 m 414 -79 q 468 -165 468 -114 q 350 -335 468 -247 l 315 -304 l 317 -296 q 388 -182 388 -237 q 347 -121 388 -150 l 347 -112 q 414 -79 381 -90 z "},"ņ":{"ha":801,"x_min":85,"x_max":725,"o":"m 635 0 l 532 0 l 244 538 l 239 538 l 199 229 l 172 0 l 85 0 l 114 204 l 172 692 l 274 692 l 563 154 l 569 154 l 635 688 l 725 694 l 657 206 l 635 0 m 356 -79 q 410 -165 410 -114 q 292 -335 410 -247 l 257 -304 l 258 -296 q 329 -182 329 -237 q 289 -121 329 -150 l 289 -112 q 356 -79 322 -90 z "},"Ň":{"ha":907,"x_min":88,"x_max":854,"o":"m 739 0 l 631 0 l 282 722 l 272 722 l 218 292 l 186 0 l 88 0 l 126 264 l 201 889 l 310 889 l 658 167 l 667 167 l 756 885 l 854 892 l 768 260 l 739 0 m 725 1131 q 553 1006 636 1075 l 522 1006 q 375 1131 444 1076 l 401 1175 l 414 1175 l 457 1144 q 543 1083 465 1139 q 696 1175 597 1118 l 708 1175 l 725 1131 z "},"ň":{"ha":801,"x_min":85,"x_max":725,"o":"m 635 0 l 532 0 l 244 538 l 239 538 l 199 229 l 172 0 l 85 0 l 114 204 l 172 692 l 274 692 l 563 154 l 569 154 l 635 688 l 725 694 l 657 206 l 635 0 m 651 965 q 504 819 590 908 l 467 781 l 435 781 q 288 965 367 881 l 321 1008 l 333 1008 q 456 861 407 928 q 615 1008 510 915 l 629 1008 l 651 965 z "},"Ŋ":{"ha":919,"x_min":88,"x_max":857,"o":"m 753 76 q 680 -93 739 -26 q 490 -221 621 -160 l 456 -162 l 458 -150 q 635 3 596 -75 l 279 721 l 271 721 l 219 292 l 186 0 l 88 0 l 128 264 l 200 889 l 310 889 l 663 171 l 672 171 l 757 885 l 857 892 l 772 260 l 753 76 z "},"ŋ":{"ha":801,"x_min":85,"x_max":725,"o":"m 640 53 q 592 -76 629 -26 q 468 -172 554 -126 l 440 -131 l 442 -119 q 539 0 519 -65 l 246 536 l 239 536 l 200 229 l 174 0 l 85 0 l 115 204 l 172 692 l 275 692 l 563 164 l 569 164 l 633 688 l 725 694 l 657 206 l 640 53 z "},"Ō":{"ha":849,"x_min":65,"x_max":819,"o":"m 500 899 q 736 806 653 899 q 819 543 819 713 q 768 247 819 372 q 619 56 717 122 q 382 -11 521 -11 q 149 85 233 -11 q 65 354 65 182 q 178 755 65 611 q 500 899 292 899 m 488 811 q 251 696 329 811 q 172 361 172 581 q 392 76 172 76 q 630 193 550 76 q 710 531 710 310 q 488 811 710 811 m 718 1061 l 325 1061 l 317 1069 l 324 1131 l 717 1131 l 725 1124 l 718 1061 z "},"ō":{"ha":750,"x_min":63,"x_max":696,"o":"m 426 699 q 626 624 557 699 q 696 403 696 550 q 653 188 696 282 q 528 42 610 94 q 333 -10 446 -10 q 133 67 203 -10 q 63 293 63 143 q 158 589 63 479 q 426 699 254 699 m 414 617 q 227 536 290 617 q 164 299 164 456 q 206 126 164 179 q 343 74 249 74 q 531 156 468 74 q 593 392 593 238 q 551 563 593 508 q 414 617 508 617 m 640 864 l 247 864 l 239 872 l 246 933 l 639 933 l 647 926 l 640 864 z "},"Ŏ":{"ha":849,"x_min":65,"x_max":819,"o":"m 500 899 q 736 806 653 899 q 819 543 819 713 q 768 247 819 372 q 619 56 717 122 q 382 -11 521 -11 q 149 85 233 -11 q 65 354 65 182 q 178 755 65 611 q 500 899 292 899 m 488 811 q 251 696 329 811 q 172 361 172 581 q 392 76 172 76 q 630 193 550 76 q 710 531 710 310 q 488 811 710 811 m 693 1129 q 621 1038 667 1069 q 515 1006 575 1006 q 403 1038 447 1006 q 347 1129 360 1069 l 382 1165 l 399 1165 q 515 1082 417 1082 q 651 1165 610 1082 l 668 1165 l 693 1129 z "},"ŏ":{"ha":750,"x_min":63,"x_max":696,"o":"m 426 699 q 626 624 557 699 q 696 403 696 550 q 653 188 696 282 q 528 42 610 94 q 333 -10 446 -10 q 133 67 203 -10 q 63 293 63 143 q 158 589 63 479 q 426 699 254 699 m 414 617 q 227 536 290 617 q 164 299 164 456 q 206 126 164 179 q 343 74 249 74 q 531 156 468 74 q 593 392 593 238 q 551 563 593 508 q 414 617 508 617 m 614 944 q 428 786 563 786 q 269 944 283 786 l 303 985 l 318 985 q 432 863 331 863 q 572 985 533 863 l 589 985 l 614 944 z "},"Ő":{"ha":849,"x_min":65,"x_max":819,"o":"m 500 899 q 736 806 653 899 q 819 543 819 713 q 768 247 819 372 q 619 56 717 122 q 382 -11 521 -11 q 149 85 233 -11 q 65 354 65 182 q 178 755 65 611 q 500 899 292 899 m 488 811 q 251 696 329 811 q 172 361 172 581 q 392 76 172 76 q 630 193 550 76 q 710 531 710 310 q 488 811 710 811 m 339 1051 q 471 1196 421 1136 l 482 1196 l 529 1163 l 529 1151 q 365 999 458 1082 l 353 997 l 318 1029 l 339 1051 m 515 1029 q 558 1076 560 1078 q 668 1196 619 1140 l 676 1196 l 726 1163 l 725 1151 q 594 1028 703 1129 l 563 999 l 550 997 l 515 1029 z "},"ő":{"ha":750,"x_min":63,"x_max":707,"o":"m 426 699 q 626 624 557 699 q 696 403 696 550 q 653 188 696 282 q 528 42 610 94 q 333 -10 446 -10 q 133 67 203 -10 q 63 293 63 143 q 158 589 63 479 q 426 699 254 699 m 414 617 q 227 536 290 617 q 164 299 164 456 q 206 126 164 179 q 343 74 249 74 q 531 156 468 74 q 593 392 593 238 q 551 563 593 508 q 414 617 508 617 m 264 808 q 453 1021 358 907 l 464 1021 l 511 985 l 511 975 q 311 776 429 890 l 300 776 l 264 808 m 460 808 q 649 1021 554 907 l 660 1021 l 707 985 l 707 975 q 507 776 625 890 l 496 776 l 460 808 z "},"Œ":{"ha":1129,"x_min":64,"x_max":1165,"o":"m 547 906 q 663 897 590 906 q 767 889 729 889 l 1160 889 l 1165 879 l 1146 797 l 957 803 l 779 803 l 742 500 l 890 497 l 1040 501 l 1046 492 l 1026 411 l 871 414 l 726 413 l 710 271 l 689 89 l 851 86 l 1060 92 l 1067 82 l 1047 0 l 656 0 q 529 -8 626 1 q 410 -17 449 -17 q 154 83 244 -17 q 64 363 64 183 q 122 651 64 529 q 289 840 181 774 q 547 906 397 906 m 526 819 q 262 702 353 819 q 171 368 171 585 q 432 71 171 71 q 558 85 511 71 q 588 100 578 90 q 600 131 597 110 l 671 750 q 672 774 672 760 q 660 801 672 796 q 526 819 610 819 z "},"œ":{"ha":985,"x_min":64,"x_max":986,"o":"m 457 704 q 560 697 504 704 q 650 692 621 692 l 981 692 l 986 682 l 968 607 l 808 613 l 663 613 l 636 394 l 758 393 l 882 397 l 888 388 l 871 311 l 742 314 l 624 314 l 613 213 l 594 79 l 732 79 l 904 83 l 908 76 l 892 0 l 564 0 q 467 -6 531 0 q 363 -12 408 -12 q 142 65 221 -12 q 64 283 64 143 q 167 592 64 481 q 457 704 271 704 m 443 618 q 164 290 164 618 q 374 69 164 69 q 481 82 440 69 q 501 95 496 88 q 508 121 506 103 l 560 567 l 561 583 q 550 604 561 600 q 443 618 504 618 z "},"Ŕ":{"ha":735,"x_min":88,"x_max":686,"o":"m 686 675 q 630 486 686 568 q 472 360 574 404 q 651 25 551 192 l 649 13 q 550 -12 599 -7 l 539 -3 q 383 333 449 171 l 229 333 l 221 276 l 193 0 l 88 0 l 128 268 l 200 889 l 201 889 l 449 892 q 624 835 561 892 q 686 675 686 779 m 400 418 q 578 658 578 472 q 422 806 578 797 l 292 801 l 240 422 l 400 418 m 604 1163 l 601 1150 q 368 974 463 1040 l 357 975 l 328 1017 q 553 1218 460 1126 l 565 1217 l 604 1163 z "},"ŕ":{"ha":664,"x_min":85,"x_max":592,"o":"m 592 517 q 547 376 592 436 q 421 281 503 315 q 571 24 486 154 l 567 11 q 475 -10 511 -7 l 460 0 q 338 254 371 179 l 211 254 l 206 217 l 182 0 l 85 0 l 115 208 l 172 692 l 389 693 q 538 646 483 693 q 592 517 592 599 m 349 332 q 489 504 489 371 q 363 614 489 607 l 260 613 l 222 336 l 349 332 m 535 965 l 532 953 q 299 776 393 843 l 288 778 l 258 819 q 483 1021 390 929 l 496 1019 l 535 965 z "},"Ŗ":{"ha":735,"x_min":88,"x_max":686,"o":"m 686 675 q 630 486 686 568 q 472 360 574 404 q 651 25 551 192 l 649 13 q 550 -12 599 -7 l 539 -3 q 383 333 449 171 l 229 333 l 221 276 l 193 0 l 88 0 l 128 268 l 200 889 l 201 889 l 449 892 q 624 835 561 892 q 686 675 686 779 m 400 418 q 578 658 578 472 q 422 806 578 797 l 292 801 l 240 422 l 400 418 m 325 -79 q 379 -165 379 -114 q 261 -335 379 -247 l 226 -304 l 228 -296 q 299 -182 299 -237 q 258 -121 299 -150 l 258 -112 q 325 -79 292 -90 z "},"ŗ":{"ha":664,"x_min":85,"x_max":592,"o":"m 592 517 q 547 376 592 436 q 421 281 503 315 q 571 24 486 154 l 567 11 q 475 -10 511 -7 l 460 0 q 338 254 371 179 l 211 254 l 206 217 l 182 0 l 85 0 l 115 208 l 172 692 l 389 693 q 538 646 483 693 q 592 517 592 599 m 349 332 q 489 504 489 371 q 363 614 489 607 l 260 613 l 222 336 l 349 332 m 314 -79 q 368 -165 368 -114 q 250 -335 368 -247 l 215 -304 l 217 -296 q 288 -182 288 -237 q 247 -121 288 -150 l 247 -112 q 314 -79 281 -90 z "},"Ř":{"ha":735,"x_min":88,"x_max":686,"o":"m 686 675 q 630 486 686 568 q 472 360 574 404 q 651 25 551 192 l 649 13 q 550 -12 599 -7 l 539 -3 q 383 333 449 171 l 229 333 l 221 276 l 193 0 l 88 0 l 128 268 l 200 889 l 201 889 l 449 892 q 624 835 561 892 q 686 675 686 779 m 400 418 q 578 658 578 472 q 422 806 578 797 l 292 801 l 240 422 l 400 418 m 644 1163 q 497 1017 583 1106 l 460 978 l 428 978 q 281 1163 360 1078 l 314 1206 l 326 1206 q 449 1058 400 1125 q 608 1206 503 1113 l 622 1206 l 644 1163 z "},"ř":{"ha":664,"x_min":85,"x_max":592,"o":"m 592 517 q 547 376 592 436 q 421 281 503 315 q 571 24 486 154 l 567 11 q 475 -10 511 -7 l 460 0 q 338 254 371 179 l 211 254 l 206 217 l 182 0 l 85 0 l 115 208 l 172 692 l 389 693 q 538 646 483 693 q 592 517 592 599 m 349 332 q 489 504 489 371 q 363 614 489 607 l 260 613 l 222 336 l 349 332 m 575 965 q 428 819 514 908 l 390 781 l 358 781 q 211 965 290 881 l 244 1008 l 257 1008 q 379 861 331 928 q 539 1008 433 915 l 553 1008 l 575 965 z "},"Ś":{"ha":626,"x_min":26,"x_max":610,"o":"m 414 897 q 610 854 514 897 l 581 756 l 561 750 q 400 811 489 811 q 307 790 347 811 q 244 735 267 769 q 222 664 222 701 q 258 578 222 613 q 369 497 294 544 q 469 430 431 460 q 534 355 507 400 q 561 250 561 310 q 522 119 561 179 q 413 25 482 60 q 257 -10 343 -10 q 26 53 132 -10 l 53 160 l 67 165 q 161 99 107 121 q 268 76 215 76 q 403 122 350 76 q 456 231 456 167 q 419 321 456 285 q 308 403 383 357 q 211 468 249 439 q 147 542 174 497 q 121 646 121 586 q 159 773 121 715 q 265 864 197 831 q 414 897 332 897 m 551 1163 l 549 1150 q 315 974 410 1040 l 304 975 l 275 1017 q 500 1218 407 1126 l 513 1217 l 551 1163 z "},"ś":{"ha":568,"x_min":39,"x_max":515,"o":"m 351 697 q 515 665 442 697 l 489 568 l 471 564 q 342 621 410 621 q 242 586 279 621 q 204 507 204 551 q 233 446 204 469 q 324 392 263 422 q 408 344 376 365 q 463 290 440 324 q 486 207 486 256 q 456 103 486 153 q 367 23 425 54 q 233 -8 310 -8 q 133 4 186 -8 q 39 39 79 17 l 61 142 l 75 147 q 155 90 108 110 q 244 69 201 69 q 347 105 306 69 q 388 186 388 140 q 358 251 388 226 q 267 304 328 275 q 183 351 215 329 q 128 406 151 372 q 106 490 106 440 q 136 592 106 544 q 222 669 167 640 q 351 697 278 697 m 493 965 l 490 953 q 257 776 351 843 l 246 778 l 217 819 q 442 1021 349 929 l 454 1019 l 493 965 z "},"Ŝ":{"ha":626,"x_min":26,"x_max":610,"o":"m 414 897 q 610 854 514 897 l 581 756 l 561 750 q 400 811 489 811 q 307 790 347 811 q 244 735 267 769 q 222 664 222 701 q 258 578 222 613 q 369 497 294 544 q 469 430 431 460 q 534 355 507 400 q 561 250 561 310 q 522 119 561 179 q 413 25 482 60 q 257 -10 343 -10 q 26 53 132 -10 l 53 160 l 67 165 q 161 99 107 121 q 268 76 215 76 q 403 122 350 76 q 456 231 456 167 q 419 321 456 285 q 308 403 383 357 q 211 468 249 439 q 147 542 174 497 q 121 646 121 586 q 159 773 121 715 q 265 864 197 831 q 414 897 332 897 m 228 1018 q 417 1204 306 1089 l 449 1204 q 592 1018 514 1108 l 558 976 l 547 976 q 424 1122 482 1043 q 264 976 361 1060 l 251 976 l 228 1018 z "},"ŝ":{"ha":568,"x_min":39,"x_max":535,"o":"m 351 697 q 515 665 442 697 l 489 568 l 471 564 q 342 621 410 621 q 242 586 279 621 q 204 507 204 551 q 233 446 204 469 q 324 392 263 422 q 408 344 376 365 q 463 290 440 324 q 486 207 486 256 q 456 103 486 153 q 367 23 425 54 q 233 -8 310 -8 q 133 4 186 -8 q 39 39 79 17 l 61 142 l 75 147 q 155 90 108 110 q 244 69 201 69 q 347 105 306 69 q 388 186 388 140 q 358 251 388 226 q 267 304 328 275 q 183 351 215 329 q 128 406 151 372 q 106 490 106 440 q 136 592 106 544 q 222 669 167 640 q 351 697 278 697 m 171 821 q 360 1007 249 892 l 392 1007 q 535 821 457 911 l 501 779 l 490 779 q 367 925 425 846 q 207 779 304 863 l 194 779 l 171 821 z "},"Ş":{"ha":626,"x_min":26,"x_max":610,"o":"m 414 897 q 610 854 514 897 l 581 756 l 563 750 q 400 811 490 811 q 308 790 347 811 q 246 735 268 769 q 224 664 224 701 q 260 578 224 613 q 371 497 296 544 q 470 430 432 460 q 535 355 508 400 q 563 250 563 310 q 526 125 563 182 q 427 33 490 68 q 285 -8 364 -3 l 267 -71 l 313 -99 q 365 -175 365 -126 q 335 -240 365 -215 q 256 -265 304 -265 q 156 -222 196 -265 l 167 -169 l 174 -167 q 250 -210 210 -210 q 296 -172 296 -210 q 265 -137 296 -151 l 200 -97 l 224 -8 q 26 53 114 1 l 53 160 l 67 165 q 161 99 107 121 q 268 76 215 76 q 403 122 350 76 q 456 231 456 167 q 419 321 456 285 q 308 403 383 357 q 211 468 249 439 q 147 542 174 497 q 121 646 121 586 q 159 773 121 715 q 265 864 197 831 q 414 897 332 897 z "},"ş":{"ha":568,"x_min":39,"x_max":514,"o":"m 340 621 q 241 585 279 621 q 203 507 203 550 q 232 446 203 469 q 322 392 261 422 q 407 344 375 365 q 462 290 439 324 q 485 207 485 256 q 460 113 485 158 q 387 35 435 67 q 274 -6 339 3 l 254 -71 l 300 -99 q 353 -175 353 -126 q 322 -240 353 -215 q 243 -265 292 -265 q 143 -222 183 -265 l 154 -169 l 161 -167 q 238 -210 197 -210 q 283 -172 283 -210 q 253 -137 283 -151 l 188 -97 l 211 -8 q 39 39 110 -1 l 60 142 l 74 147 q 154 90 107 110 q 244 69 201 69 q 347 105 306 69 q 388 186 388 140 q 358 251 388 226 q 267 304 328 275 q 183 351 215 329 q 128 406 151 372 q 106 490 106 440 q 136 592 106 544 q 222 669 167 640 q 351 697 278 697 q 514 665 442 697 l 489 568 l 471 564 q 340 621 408 621 z "},"Š":{"ha":626,"x_min":26,"x_max":610,"o":"m 414 897 q 610 854 514 897 l 581 756 l 561 750 q 400 811 489 811 q 307 790 347 811 q 244 735 267 769 q 222 664 222 701 q 258 578 222 613 q 369 497 294 544 q 469 430 431 460 q 534 355 507 400 q 561 250 561 310 q 522 119 561 179 q 413 25 482 60 q 257 -10 343 -10 q 26 53 132 -10 l 53 160 l 67 165 q 161 99 107 121 q 268 76 215 76 q 403 122 350 76 q 456 231 456 167 q 419 321 456 285 q 308 403 383 357 q 211 468 249 439 q 147 542 174 497 q 121 646 121 586 q 159 773 121 715 q 265 864 197 831 q 414 897 332 897 m 593 1163 q 446 1017 532 1106 l 408 978 l 376 978 q 229 1163 308 1078 l 263 1206 l 275 1206 q 397 1058 349 1125 q 557 1206 451 1113 l 571 1206 l 593 1163 z "},"š":{"ha":568,"x_min":39,"x_max":535,"o":"m 351 697 q 515 665 442 697 l 489 568 l 471 564 q 342 621 410 621 q 242 586 279 621 q 204 507 204 551 q 233 446 204 469 q 324 392 263 422 q 408 344 376 365 q 463 290 440 324 q 486 207 486 256 q 456 103 486 153 q 367 23 425 54 q 233 -8 310 -8 q 133 4 186 -8 q 39 39 79 17 l 61 142 l 75 147 q 155 90 108 110 q 244 69 201 69 q 347 105 306 69 q 388 186 388 140 q 358 251 388 226 q 267 304 328 275 q 183 351 215 329 q 128 406 151 372 q 106 490 106 440 q 136 592 106 544 q 222 669 167 640 q 351 697 278 697 m 535 965 q 388 819 474 908 l 350 781 l 318 781 q 171 965 250 881 l 204 1008 l 217 1008 q 339 861 290 928 q 499 1008 393 915 l 513 1008 l 535 965 z "},"Ţ":{"ha":649,"x_min":92,"x_max":690,"o":"m 671 799 l 526 806 l 439 806 l 368 276 l 339 0 l 311 0 l 293 -71 l 335 -97 q 383 -171 383 -129 q 356 -234 383 -210 q 285 -258 328 -258 q 193 -215 236 -258 l 204 -167 l 211 -165 q 281 -208 242 -208 q 319 -169 319 -208 q 296 -132 319 -151 l 235 -93 l 258 0 l 235 0 l 275 268 l 335 806 l 250 806 l 99 799 l 92 808 l 111 889 l 685 889 l 690 879 l 671 799 z "},"ţ":{"ha":585,"x_min":78,"x_max":585,"o":"m 567 600 l 444 608 l 375 608 l 322 217 l 300 0 l 276 0 l 250 -72 l 289 -100 q 331 -168 331 -128 q 297 -237 331 -210 q 215 -265 263 -265 q 129 -221 160 -265 l 146 -172 l 150 -171 q 218 -214 181 -214 q 253 -201 239 -214 q 267 -171 267 -189 q 242 -136 267 -150 l 186 -96 l 224 0 l 203 0 l 233 208 l 281 608 l 211 608 l 85 600 l 78 610 l 96 692 l 579 692 l 585 682 l 567 600 z "},"Ť":{"ha":649,"x_min":92,"x_max":690,"o":"m 671 799 l 526 806 l 439 806 l 368 276 l 339 0 l 235 0 l 275 268 l 335 806 l 250 806 l 99 799 l 92 808 l 111 889 l 685 889 l 690 879 l 671 799 m 603 1163 q 456 1017 542 1106 l 418 978 l 386 978 q 239 1163 318 1078 l 272 1206 l 285 1206 q 407 1058 358 1125 q 567 1206 461 1113 l 581 1206 l 603 1163 z "},"ť":{"ha":585,"x_min":81,"x_max":586,"o":"m 569 600 l 446 608 l 378 608 l 325 217 l 301 0 l 206 0 l 235 208 l 283 608 l 213 608 l 86 600 l 81 610 l 97 692 l 582 692 l 586 682 l 569 600 m 546 965 q 399 819 485 908 l 361 781 l 329 781 q 182 965 261 881 l 215 1008 l 228 1008 q 350 861 301 928 q 510 1008 404 915 l 524 1008 l 546 965 z "},"Ŧ":{"ha":649,"x_min":92,"x_max":690,"o":"m 396 481 l 526 481 l 535 472 l 531 414 l 386 414 l 368 276 l 339 0 l 235 0 l 275 268 l 292 414 l 167 414 l 158 422 l 164 481 l 299 481 l 335 806 l 250 806 l 99 799 l 92 808 l 111 889 l 685 889 l 690 879 l 671 799 l 526 806 l 439 806 l 396 481 z "},"ŧ":{"ha":585,"x_min":81,"x_max":586,"o":"m 344 356 l 467 356 l 475 347 l 463 289 l 335 289 l 325 217 l 303 0 l 206 0 l 236 208 l 246 289 l 119 289 l 113 297 l 125 356 l 254 356 l 283 608 l 214 608 l 88 600 l 81 610 l 99 692 l 582 692 l 586 682 l 569 600 l 446 608 l 378 608 l 344 356 z "},"Ũ":{"ha":829,"x_min":96,"x_max":801,"o":"m 729 336 q 622 81 713 171 q 378 -10 532 -10 q 171 58 246 -10 q 96 250 96 126 q 101 325 96 290 l 118 446 l 172 889 l 274 889 l 200 338 q 196 275 196 304 q 385 83 196 83 q 633 325 604 83 l 697 889 l 801 889 l 742 438 l 729 336 m 729 1132 l 644 1039 l 632 1033 q 519 1061 601 1036 q 417 1085 438 1085 q 360 1042 400 1085 l 339 1021 l 326 1021 l 294 1056 l 294 1065 l 379 1158 l 392 1163 q 507 1135 425 1160 q 607 1113 593 1113 q 631 1123 618 1113 q 660 1150 643 1133 q 686 1176 676 1167 l 696 1176 l 729 1142 l 729 1132 z "},"ũ":{"ha":736,"x_min":89,"x_max":682,"o":"m 622 240 q 533 57 608 122 q 329 -8 457 -8 q 151 43 214 -8 q 89 190 89 94 q 93 240 89 214 l 108 346 l 149 692 l 247 692 l 186 257 q 183 217 183 229 q 338 76 183 76 q 535 257 511 76 l 583 692 l 682 692 l 635 339 l 622 240 m 654 935 l 569 842 l 557 836 q 444 864 526 839 q 342 888 363 888 q 285 844 325 888 l 264 824 l 251 824 l 219 858 l 219 868 l 304 961 l 317 965 q 432 938 350 963 q 532 915 518 915 q 556 926 543 915 q 585 953 568 936 q 611 979 601 969 l 621 979 l 654 944 l 654 935 z "},"Ū":{"ha":829,"x_min":96,"x_max":801,"o":"m 729 336 q 622 81 713 171 q 378 -10 532 -10 q 171 58 246 -10 q 96 250 96 126 q 101 325 96 290 l 118 446 l 172 889 l 274 889 l 200 338 q 196 275 196 304 q 385 83 196 83 q 633 325 604 83 l 697 889 l 801 889 l 742 438 l 729 336 m 710 1061 l 317 1061 l 308 1069 l 315 1131 l 708 1131 l 717 1124 l 710 1061 z "},"ū":{"ha":736,"x_min":89,"x_max":682,"o":"m 622 240 q 533 57 608 122 q 329 -8 457 -8 q 151 43 214 -8 q 89 190 89 94 q 93 240 89 214 l 108 346 l 149 692 l 247 692 l 186 257 q 183 217 183 229 q 338 76 183 76 q 535 257 511 76 l 583 692 l 682 692 l 635 339 l 622 240 m 635 864 l 242 864 l 233 872 l 240 933 l 633 933 l 642 926 l 635 864 z "},"Ŭ":{"ha":829,"x_min":96,"x_max":801,"o":"m 729 336 q 622 81 713 171 q 378 -10 532 -10 q 171 58 246 -10 q 96 250 96 126 q 101 325 96 290 l 118 446 l 172 889 l 274 889 l 200 338 q 196 275 196 304 q 385 83 196 83 q 633 325 604 83 l 697 889 l 801 889 l 742 438 l 729 336 m 682 1142 q 496 983 631 983 q 338 1142 351 983 l 371 1182 l 386 1182 q 500 1060 399 1060 q 640 1182 601 1060 l 657 1182 l 682 1142 z "},"ŭ":{"ha":736,"x_min":89,"x_max":682,"o":"m 622 240 q 533 57 608 122 q 329 -8 457 -8 q 151 43 214 -8 q 89 190 89 94 q 93 240 89 214 l 108 346 l 149 692 l 247 692 l 186 257 q 183 217 183 229 q 338 76 183 76 q 535 257 511 76 l 583 692 l 682 692 l 635 339 l 622 240 m 608 944 q 422 786 557 786 q 264 944 278 786 l 297 985 l 313 985 q 426 863 325 863 q 567 985 528 863 l 583 985 l 608 944 z "},"Ů":{"ha":829,"x_min":96,"x_max":801,"o":"m 729 336 q 622 81 713 171 q 378 -10 532 -10 q 171 58 246 -10 q 96 250 96 126 q 101 325 96 290 l 118 446 l 172 889 l 274 889 l 200 338 q 196 275 196 304 q 385 83 196 83 q 633 325 604 83 l 697 889 l 801 889 l 742 438 l 729 336 m 514 1218 q 598 1187 568 1218 q 628 1107 628 1156 q 594 1022 628 1053 q 511 992 561 992 q 430 1022 461 992 q 399 1104 399 1051 q 429 1187 399 1156 q 514 1218 460 1218 m 513 1165 q 450 1106 450 1165 q 467 1058 450 1075 q 514 1042 485 1042 q 559 1058 542 1042 q 576 1103 576 1074 q 560 1148 576 1131 q 513 1165 543 1165 z "},"ů":{"ha":736,"x_min":89,"x_max":682,"o":"m 622 240 q 533 57 608 122 q 329 -8 457 -8 q 151 43 214 -8 q 89 190 89 94 q 93 240 89 214 l 108 346 l 149 692 l 247 692 l 186 257 q 183 217 183 229 q 338 76 183 76 q 535 257 511 76 l 583 692 l 682 692 l 635 339 l 622 240 m 439 1021 q 523 990 493 1021 q 553 910 553 958 q 519 825 553 856 q 436 794 486 794 q 355 824 386 794 q 324 907 324 854 q 354 990 324 958 q 439 1021 385 1021 m 438 968 q 375 908 375 968 q 392 861 375 878 q 439 844 410 844 q 484 860 467 844 q 501 906 501 876 q 485 951 501 933 q 438 968 468 968 z "},"Ű":{"ha":829,"x_min":96,"x_max":801,"o":"m 729 336 q 622 81 713 171 q 378 -10 532 -10 q 171 58 246 -10 q 96 250 96 126 q 101 325 96 290 l 118 446 l 172 889 l 274 889 l 200 338 q 196 275 196 304 q 385 83 196 83 q 633 325 604 83 l 697 889 l 801 889 l 742 438 l 729 336 m 329 1051 q 461 1196 411 1136 l 472 1196 l 519 1163 l 519 1151 q 356 999 449 1082 l 343 997 l 308 1029 l 329 1051 m 506 1029 q 549 1076 550 1078 q 658 1196 610 1140 l 667 1196 l 717 1163 l 715 1151 q 585 1028 693 1129 l 553 999 l 540 997 l 506 1029 z "},"ű":{"ha":736,"x_min":89,"x_max":701,"o":"m 622 240 q 533 57 608 122 q 329 -8 457 -8 q 151 43 214 -8 q 89 190 89 94 q 93 240 89 214 l 108 346 l 149 692 l 247 692 l 186 257 q 183 217 183 229 q 338 76 183 76 q 535 257 511 76 l 583 692 l 682 692 l 635 339 l 622 240 m 258 808 q 447 1021 353 907 l 458 1021 l 506 985 l 506 975 q 306 776 424 890 l 294 776 l 258 808 m 454 808 q 643 1021 549 907 l 654 1021 l 701 985 l 701 975 q 501 776 619 890 l 490 776 l 454 808 z "},"Ų":{"ha":828,"x_min":96,"x_max":801,"o":"m 742 438 l 729 336 q 565 38 706 121 l 494 -85 q 471 -156 471 -124 q 519 -204 471 -204 q 614 -149 572 -204 l 621 -149 l 638 -199 q 507 -274 571 -274 q 432 -244 460 -274 q 404 -165 404 -214 q 435 -74 404 -118 l 482 3 q 378 -10 435 -10 q 171 58 246 -10 q 96 250 96 126 q 101 325 96 290 l 118 446 l 171 889 l 274 889 l 200 338 q 196 275 196 304 q 385 83 196 83 q 632 325 606 83 l 697 889 l 801 889 l 742 438 z "},"ų":{"ha":736,"x_min":89,"x_max":682,"o":"m 635 339 l 622 240 q 497 32 606 93 l 426 -76 q 401 -146 401 -117 q 416 -187 401 -171 q 457 -203 431 -203 q 554 -147 506 -203 l 561 -147 l 576 -200 q 440 -274 507 -274 q 362 -243 392 -274 q 332 -165 332 -212 q 367 -64 332 -115 l 410 0 q 329 -8 372 -8 q 152 43 215 -8 q 89 190 89 94 q 93 240 89 214 l 108 346 l 149 692 l 247 692 l 186 257 q 183 217 183 229 q 339 76 183 76 q 535 257 511 76 l 583 692 l 682 692 l 635 339 z "},"Ŵ":{"ha":1179,"x_min":99,"x_max":1239,"o":"m 717 0 l 617 525 l 607 525 l 368 0 l 258 0 l 99 889 l 203 889 l 206 807 l 329 117 l 339 117 l 589 665 l 544 889 l 653 889 l 661 797 l 785 117 l 794 117 l 1110 800 l 1140 889 l 1239 889 l 824 0 l 717 0 m 482 1063 q 656 1186 560 1110 l 686 1186 q 833 1063 743 1131 l 806 1017 l 794 1017 q 665 1110 735 1057 q 511 1017 576 1054 l 499 1017 l 482 1063 z "},"ŵ":{"ha":1026,"x_min":92,"x_max":1044,"o":"m 610 0 l 522 388 l 517 388 l 328 0 l 226 0 l 92 692 l 188 692 l 190 619 l 293 106 l 299 106 l 499 518 l 465 692 l 563 692 l 568 613 l 672 106 l 681 106 l 926 615 l 954 692 l 1044 692 l 710 0 l 610 0 m 374 821 q 563 1007 451 892 l 594 1007 q 738 821 660 911 l 704 779 l 693 779 q 569 925 628 846 q 410 779 507 863 l 397 779 l 374 821 z "},"Ŷ":{"ha":697,"x_min":92,"x_max":750,"o":"m 375 260 l 347 0 l 242 0 l 282 260 l 289 324 l 92 889 l 201 889 l 211 840 l 347 436 l 358 436 l 610 838 l 636 889 l 750 889 l 385 324 l 375 260 m 271 1063 q 444 1186 349 1110 l 475 1186 q 622 1063 532 1131 l 594 1017 l 583 1017 q 454 1110 524 1057 q 300 1017 365 1054 l 288 1017 l 271 1063 z "},"ŷ":{"ha":629,"x_min":83,"x_max":642,"o":"m 336 199 l 314 0 l 217 0 l 246 199 l 251 247 l 83 692 l 188 692 l 197 651 l 308 350 l 317 350 l 517 649 l 539 692 l 642 692 l 343 242 l 336 199 m 201 821 q 390 1007 279 892 l 422 1007 q 565 821 488 911 l 532 779 l 521 779 q 397 925 456 846 q 238 779 335 863 l 225 779 l 201 821 z "},"Ÿ":{"ha":697,"x_min":92,"x_max":750,"o":"m 375 260 l 347 0 l 242 0 l 282 260 l 289 324 l 92 889 l 201 889 l 211 840 l 347 436 l 358 436 l 610 838 l 636 889 l 750 889 l 385 324 l 375 260 m 338 1154 q 378 1138 363 1154 q 393 1097 393 1122 q 377 1052 393 1069 q 335 1035 361 1035 q 293 1050 308 1035 q 278 1093 278 1065 q 294 1138 278 1121 q 338 1154 310 1154 m 560 1153 q 599 1138 585 1153 q 614 1096 614 1122 q 598 1051 614 1068 q 556 1035 582 1035 q 499 1092 499 1035 q 515 1136 499 1119 q 560 1153 531 1153 z "},"Ź":{"ha":699,"x_min":4,"x_max":718,"o":"m 140 85 l 493 85 l 618 94 l 622 86 l 604 -3 l 451 0 l 79 0 l 4 -4 l 14 74 l 583 803 l 253 803 l 128 794 l 122 801 l 143 890 l 651 889 l 718 890 l 708 813 l 140 85 m 567 1132 l 563 1119 q 356 1026 479 1079 l 294 1000 l 282 1006 l 263 1053 q 528 1196 410 1126 l 539 1193 l 567 1132 z "},"ź":{"ha":628,"x_min":17,"x_max":610,"o":"m 143 78 l 425 78 l 536 89 l 542 82 l 521 -3 l 386 0 l 83 0 l 17 -3 l 25 69 l 483 613 l 211 613 l 108 601 l 106 610 l 124 693 l 242 692 l 553 692 l 610 693 l 600 618 l 143 78 m 524 965 l 521 953 q 288 776 382 843 l 276 778 l 247 819 q 472 1021 379 929 l 485 1019 l 524 965 z "},"Ż":{"ha":699,"x_min":4,"x_max":718,"o":"m 140 85 l 493 85 l 618 94 l 622 86 l 604 -3 l 451 0 l 79 0 l 4 -4 l 14 74 l 583 803 l 253 803 l 128 794 l 122 801 l 143 890 l 651 889 l 718 890 l 708 813 l 140 85 m 404 1171 q 461 1111 461 1171 q 444 1065 461 1082 q 400 1047 428 1047 q 356 1064 372 1047 q 340 1108 340 1081 q 358 1153 340 1136 q 404 1171 375 1171 z "},"ż":{"ha":628,"x_min":17,"x_max":610,"o":"m 143 78 l 425 78 l 536 89 l 542 82 l 521 -3 l 386 0 l 83 0 l 17 -3 l 25 69 l 483 613 l 211 613 l 108 601 l 106 610 l 124 693 l 242 692 l 553 692 l 610 693 l 600 618 l 143 78 m 388 974 q 444 914 444 974 q 428 867 444 885 q 383 850 411 850 q 340 867 356 850 q 324 911 324 883 q 341 956 324 939 q 388 974 358 974 z "},"Ž":{"ha":699,"x_min":4,"x_max":718,"o":"m 140 85 l 493 85 l 618 94 l 622 86 l 604 -3 l 451 0 l 79 0 l 4 -4 l 14 74 l 583 803 l 253 803 l 128 794 l 122 801 l 143 890 l 651 889 l 718 890 l 708 813 l 140 85 m 574 1131 q 401 1006 485 1075 l 371 1006 q 224 1131 293 1076 l 250 1175 l 263 1175 l 306 1144 q 392 1083 314 1139 q 544 1175 446 1118 l 557 1175 l 574 1131 z "},"ž":{"ha":628,"x_min":17,"x_max":610,"o":"m 143 78 l 425 78 l 536 89 l 542 82 l 521 -3 l 386 0 l 83 0 l 17 -3 l 25 69 l 483 613 l 211 613 l 108 601 l 106 610 l 124 693 l 242 692 l 553 692 l 610 693 l 600 618 l 143 78 m 565 965 q 418 819 504 908 l 381 781 l 349 781 q 201 965 281 881 l 235 1008 l 247 1008 q 369 861 321 928 q 529 1008 424 915 l 543 1008 l 565 965 z "},"ƒ":{"ha":383,"x_min":-15,"x_max":513,"o":"m 414 854 q 513 842 457 854 l 499 774 l 489 769 q 404 788 447 788 q 265 656 281 788 l 247 518 l 400 518 l 406 511 l 400 461 l 239 461 l 214 257 l 190 65 q 146 -85 181 -28 q 26 -208 111 -143 l -15 -168 l -14 -158 q 74 -58 49 -104 q 107 63 99 -12 l 131 250 l 156 461 l 65 461 l 60 468 l 64 518 l 163 518 l 178 643 q 251 799 189 744 q 414 854 313 854 z "},"Ơ":{"ha":853,"x_min":65,"x_max":917,"o":"m 857 1061 q 899 1032 881 1061 q 917 960 917 1003 q 867 844 917 888 q 742 797 817 800 q 818 528 818 706 q 766 247 818 369 q 616 57 714 125 q 383 -11 518 -11 q 65 372 65 -11 q 117 647 65 528 q 267 833 169 767 q 496 899 364 899 q 651 872 565 899 q 728 856 699 856 q 801 879 771 856 q 832 946 832 903 q 800 1029 832 996 l 804 1040 q 857 1061 835 1061 m 488 811 q 253 697 333 811 q 172 381 172 582 q 225 150 172 224 q 393 76 278 76 q 628 193 547 76 q 710 511 710 310 q 656 739 710 667 q 488 811 603 811 z "},"ơ":{"ha":753,"x_min":63,"x_max":778,"o":"m 676 808 q 722 826 704 826 q 760 802 743 826 q 778 742 778 778 q 738 646 778 685 q 639 606 699 607 q 694 414 694 538 q 651 190 694 285 q 526 42 608 94 q 332 -10 444 -10 q 134 66 206 -10 q 63 278 63 142 q 158 588 63 476 q 425 699 253 699 q 554 679 479 699 q 619 667 597 667 q 676 683 653 667 q 700 732 700 700 q 672 799 700 767 l 676 808 m 343 72 q 593 406 593 72 q 413 618 593 618 q 164 282 164 618 q 343 72 164 72 z "},"Ư":{"ha":838,"x_min":96,"x_max":904,"o":"m 904 968 q 875 888 904 922 q 794 840 846 854 l 742 438 l 729 336 q 622 81 711 171 q 378 -10 532 -10 q 171 58 246 -10 q 96 250 96 126 q 101 325 96 290 l 118 446 l 171 889 l 274 889 l 200 338 q 196 275 196 304 q 385 83 196 83 q 632 325 606 83 l 697 889 l 736 889 q 822 961 822 889 q 781 1044 822 1003 l 785 1054 q 835 1075 815 1075 q 882 1043 860 1075 q 904 968 904 1011 z "},"ư":{"ha":750,"x_min":89,"x_max":779,"o":"m 779 764 q 751 693 779 724 q 676 647 724 663 l 635 339 l 622 240 q 533 57 608 122 q 329 -8 457 -8 q 152 43 215 -8 q 89 190 89 94 q 93 240 89 214 l 108 346 l 149 692 l 247 692 l 186 257 q 183 217 183 229 q 339 76 183 76 q 535 257 511 76 l 583 692 l 622 692 q 700 754 700 692 q 671 811 700 783 l 675 819 q 726 839 703 839 q 762 817 744 839 q 779 764 779 794 z "},"Ǎ":{"ha":761,"x_min":-19,"x_max":694,"o":"m 589 0 l 581 86 l 551 246 l 363 249 l 192 246 l 119 92 l 85 0 l -19 0 l 403 889 l 522 889 l 694 0 l 589 0 m 451 781 l 442 781 l 233 335 l 381 333 l 535 335 l 451 781 m 656 1131 q 483 1006 567 1075 l 453 1006 q 306 1131 375 1076 l 332 1175 l 344 1175 l 388 1144 q 474 1083 396 1139 q 626 1175 528 1118 l 639 1175 l 656 1131 z "},"ǎ":{"ha":682,"x_min":-4,"x_max":597,"o":"m 497 0 l 493 74 l 471 181 l 314 182 l 174 181 l 122 78 l 93 0 l -4 0 l 339 692 l 451 692 l 597 0 l 497 0 m 383 593 l 378 593 l 213 261 l 453 261 l 383 593 m 596 965 q 449 819 535 908 l 411 781 l 379 781 q 232 965 311 881 l 265 1008 l 278 1008 q 400 861 351 928 q 560 1008 454 915 l 574 1008 l 596 965 z "},"Ǐ":{"ha":360,"x_min":88,"x_max":450,"o":"m 193 0 l 88 0 l 128 268 l 199 889 l 304 889 l 221 276 l 193 0 m 450 1131 q 278 1006 361 1075 l 247 1006 q 100 1131 169 1076 l 126 1175 l 139 1175 l 182 1144 q 268 1083 190 1139 q 421 1175 322 1118 l 433 1175 l 450 1131 z "},"ǐ":{"ha":350,"x_min":63,"x_max":426,"o":"m 182 0 l 85 0 l 115 208 l 171 692 l 269 692 l 204 217 l 182 0 m 426 965 q 279 819 365 908 l 242 781 l 210 781 q 63 965 142 881 l 96 1008 l 108 1008 q 231 861 182 928 q 390 1008 285 915 l 404 1008 l 426 965 z "},"Ǒ":{"ha":849,"x_min":65,"x_max":819,"o":"m 500 899 q 736 806 653 899 q 819 543 819 713 q 768 247 819 372 q 619 56 717 122 q 382 -11 521 -11 q 149 85 233 -11 q 65 354 65 182 q 178 755 65 611 q 500 899 292 899 m 488 811 q 251 696 329 811 q 172 361 172 581 q 392 76 172 76 q 630 193 550 76 q 710 531 710 310 q 488 811 710 811 m 694 1131 q 522 1006 606 1075 l 492 1006 q 344 1131 414 1076 l 371 1175 l 383 1175 l 426 1144 q 513 1083 435 1139 q 665 1175 567 1118 l 678 1175 l 694 1131 z "},"ǒ":{"ha":750,"x_min":63,"x_max":696,"o":"m 426 699 q 626 624 557 699 q 696 403 696 550 q 653 188 696 282 q 528 42 610 94 q 333 -10 446 -10 q 133 67 203 -10 q 63 293 63 143 q 158 589 63 479 q 426 699 254 699 m 414 617 q 227 536 290 617 q 164 299 164 456 q 206 126 164 179 q 343 74 249 74 q 531 156 468 74 q 593 392 593 238 q 551 563 593 508 q 414 617 508 617 m 625 965 q 478 819 564 908 l 440 781 l 408 781 q 261 965 340 881 l 294 1008 l 307 1008 q 429 861 381 928 q 589 1008 483 915 l 603 1008 l 625 965 z "},"Ǔ":{"ha":829,"x_min":96,"x_max":801,"o":"m 729 336 q 622 81 713 171 q 378 -10 532 -10 q 171 58 246 -10 q 96 250 96 126 q 101 325 96 290 l 118 446 l 172 889 l 274 889 l 200 338 q 196 275 196 304 q 385 83 196 83 q 633 325 604 83 l 697 889 l 801 889 l 742 438 l 729 336 m 693 1163 q 546 1017 632 1106 l 508 978 l 476 978 q 329 1163 408 1078 l 363 1206 l 375 1206 q 497 1058 449 1125 q 657 1206 551 1113 l 671 1206 l 693 1163 z "},"ǔ":{"ha":736,"x_min":89,"x_max":682,"o":"m 622 240 q 533 57 608 122 q 329 -8 457 -8 q 151 43 214 -8 q 89 190 89 94 q 93 240 89 214 l 108 346 l 149 692 l 247 692 l 186 257 q 183 217 183 229 q 338 76 183 76 q 535 257 511 76 l 583 692 l 682 692 l 635 339 l 622 240 m 619 965 q 472 819 558 908 l 435 781 l 403 781 q 256 965 335 881 l 289 1008 l 301 1008 q 424 861 375 928 q 583 1008 478 915 l 597 1008 l 619 965 z "},"Ǖ":{"ha":829,"x_min":96,"x_max":801,"o":"m 729 336 q 622 81 713 171 q 378 -10 532 -10 q 171 58 246 -10 q 96 250 96 126 q 101 325 96 290 l 118 446 l 172 889 l 274 889 l 200 338 q 196 275 196 304 q 385 83 196 83 q 633 325 604 83 l 697 889 l 801 889 l 742 438 l 729 336 m 722 1215 l 367 1215 l 357 1224 l 364 1286 l 721 1286 l 729 1278 l 722 1215 m 421 1122 q 460 1108 446 1122 q 474 1068 474 1093 q 458 1026 474 1042 q 417 1011 443 1011 q 378 1026 393 1011 q 364 1065 364 1040 q 379 1107 364 1092 q 421 1122 394 1122 m 638 1122 q 676 1108 663 1122 q 690 1068 690 1093 q 675 1026 690 1042 q 633 1011 660 1011 q 581 1065 581 1011 q 596 1107 581 1092 q 638 1122 611 1122 z "},"ǖ":{"ha":736,"x_min":89,"x_max":682,"o":"m 622 240 q 533 57 608 122 q 329 -8 457 -8 q 151 43 214 -8 q 89 190 89 94 q 93 240 89 214 l 108 346 l 149 692 l 247 692 l 186 257 q 183 217 183 229 q 338 76 183 76 q 535 257 511 76 l 583 692 l 682 692 l 635 339 l 622 240 m 649 1018 l 293 1018 l 283 1026 l 290 1089 l 647 1089 l 656 1081 l 649 1018 m 347 925 q 386 910 372 925 q 400 871 400 896 q 385 829 400 844 q 343 814 369 814 q 305 828 319 814 q 290 868 290 843 q 306 910 290 894 q 347 925 321 925 m 564 925 q 603 910 589 925 q 617 871 617 896 q 601 829 617 844 q 560 814 586 814 q 507 868 507 814 q 522 910 507 894 q 564 925 538 925 z "},"Ǘ":{"ha":829,"x_min":96,"x_max":801,"o":"m 729 336 q 622 81 713 171 q 378 -10 532 -10 q 171 58 246 -10 q 96 250 96 126 q 101 325 96 290 l 118 446 l 172 889 l 274 889 l 200 338 q 196 275 196 304 q 385 83 196 83 q 633 325 604 83 l 697 889 l 801 889 l 742 438 l 729 336 m 678 1278 l 671 1265 q 386 1196 529 1228 l 374 1203 l 364 1253 q 650 1347 538 1304 l 660 1342 l 678 1278 m 400 1122 q 440 1108 425 1122 q 454 1068 454 1093 q 439 1026 454 1042 q 397 1011 424 1011 q 343 1065 343 1011 q 358 1107 343 1092 q 400 1122 374 1122 m 617 1122 q 656 1108 642 1122 q 671 1068 671 1093 q 656 1026 671 1042 q 614 1011 640 1011 q 560 1065 560 1011 q 575 1107 560 1092 q 617 1122 590 1122 z "},"ǘ":{"ha":736,"x_min":89,"x_max":682,"o":"m 622 240 q 533 57 608 122 q 329 -8 457 -8 q 151 43 214 -8 q 89 190 89 94 q 93 240 89 214 l 108 346 l 149 692 l 247 692 l 186 257 q 183 217 183 229 q 338 76 183 76 q 535 257 511 76 l 583 692 l 682 692 l 635 339 l 622 240 m 604 1081 l 597 1068 q 313 999 456 1031 l 300 1006 l 290 1056 q 576 1150 464 1107 l 586 1144 l 604 1081 m 326 925 q 366 910 351 925 q 381 871 381 896 q 365 829 381 844 q 324 814 350 814 q 269 868 269 814 q 285 910 269 894 q 326 925 300 925 m 543 925 q 583 910 568 925 q 597 871 597 896 q 582 829 597 844 q 540 814 567 814 q 486 868 486 814 q 501 910 486 894 q 543 925 517 925 z "},"Ǚ":{"ha":829,"x_min":96,"x_max":801,"o":"m 729 336 q 622 81 713 171 q 378 -10 532 -10 q 171 58 246 -10 q 96 250 96 126 q 101 325 96 290 l 118 446 l 172 889 l 274 889 l 200 338 q 196 275 196 304 q 385 83 196 83 q 633 325 604 83 l 697 889 l 801 889 l 742 438 l 729 336 m 704 1279 q 531 1156 617 1226 l 501 1156 q 353 1279 429 1221 l 381 1325 l 392 1325 q 521 1232 467 1274 q 675 1325 626 1297 l 688 1325 l 704 1279 m 403 1122 q 442 1108 428 1122 q 457 1068 457 1093 q 442 1026 457 1042 q 400 1011 426 1011 q 347 1065 347 1011 q 362 1107 347 1092 q 403 1122 376 1122 m 619 1122 q 659 1108 644 1122 q 674 1068 674 1093 q 658 1026 674 1042 q 617 1011 643 1011 q 563 1065 563 1011 q 578 1107 563 1092 q 619 1122 593 1122 z "},"ǚ":{"ha":736,"x_min":89,"x_max":682,"o":"m 622 240 q 533 57 608 122 q 329 -8 457 -8 q 151 43 214 -8 q 89 190 89 94 q 93 240 89 214 l 108 346 l 149 692 l 247 692 l 186 257 q 183 217 183 229 q 338 76 183 76 q 535 257 511 76 l 583 692 l 682 692 l 635 339 l 622 240 m 631 1082 q 457 958 543 1029 l 428 958 q 279 1082 356 1024 l 307 1128 l 318 1128 q 447 1035 393 1076 q 601 1128 553 1100 l 614 1128 l 631 1082 m 329 925 q 369 910 354 925 q 383 871 383 896 q 368 829 383 844 q 326 814 353 814 q 274 868 274 814 q 288 910 274 894 q 329 925 303 925 m 546 925 q 585 910 571 925 q 600 871 600 896 q 585 829 600 844 q 543 814 569 814 q 489 868 489 814 q 504 910 489 894 q 546 925 519 925 z "},"Ǜ":{"ha":829,"x_min":96,"x_max":801,"o":"m 729 336 q 622 81 713 171 q 378 -10 532 -10 q 171 58 246 -10 q 96 250 96 126 q 101 325 96 290 l 118 446 l 172 889 l 274 889 l 200 338 q 196 275 196 304 q 385 83 196 83 q 633 325 604 83 l 697 889 l 801 889 l 742 438 l 729 336 m 414 1347 q 688 1253 510 1308 l 672 1203 l 658 1196 q 383 1265 507 1231 l 378 1278 l 401 1342 l 414 1347 m 400 1122 q 435 1110 422 1122 q 447 1075 447 1097 q 430 1029 447 1047 q 383 1011 413 1011 q 336 1058 336 1011 q 353 1104 336 1086 q 400 1122 371 1122 m 617 1122 q 651 1110 639 1122 q 664 1075 664 1097 q 647 1029 664 1047 q 600 1011 629 1011 q 553 1058 553 1011 q 570 1104 553 1086 q 617 1122 588 1122 z "},"ǜ":{"ha":736,"x_min":89,"x_max":682,"o":"m 622 240 q 533 57 608 122 q 329 -8 457 -8 q 151 43 214 -8 q 89 190 89 94 q 93 240 89 214 l 108 346 l 149 692 l 247 692 l 186 257 q 183 217 183 229 q 338 76 183 76 q 535 257 511 76 l 583 692 l 682 692 l 635 339 l 622 240 m 339 1150 q 613 1056 435 1111 l 597 1006 l 583 999 q 308 1068 432 1033 l 303 1081 l 326 1144 l 339 1150 m 325 925 q 360 913 347 925 q 372 878 372 900 q 355 832 372 850 q 308 814 338 814 q 261 861 261 814 q 278 907 261 889 q 325 925 296 925 m 542 925 q 576 913 564 925 q 589 878 589 900 q 572 832 589 850 q 525 814 554 814 q 478 861 478 814 q 495 907 478 889 q 542 925 513 925 z "},"Ǫ":{"ha":849,"x_min":65,"x_max":819,"o":"m 500 -76 q 476 -146 476 -117 q 532 -203 476 -203 q 629 -147 581 -203 l 635 -147 l 650 -200 q 515 -274 581 -274 q 437 -243 467 -274 q 407 -165 407 -212 q 442 -64 407 -115 l 485 -1 q 383 -11 429 -11 q 149 85 233 -11 q 65 354 65 182 q 178 754 65 610 q 500 899 292 899 q 736 806 653 899 q 819 543 819 713 q 755 216 819 350 q 568 26 690 82 l 500 -76 m 172 361 q 392 76 172 76 q 630 193 550 76 q 710 531 710 310 q 488 811 710 811 q 251 696 329 811 q 172 361 172 581 z "},"ǫ":{"ha":750,"x_min":63,"x_max":696,"o":"m 415 -76 q 390 -146 390 -117 q 405 -187 390 -171 q 446 -203 419 -203 q 543 -147 494 -203 l 550 -147 l 565 -200 q 429 -274 496 -274 q 351 -243 381 -274 q 321 -165 321 -212 q 356 -64 321 -115 l 396 -6 q 333 -10 367 -10 q 133 67 203 -10 q 63 293 63 143 q 158 589 63 479 q 426 699 254 699 q 626 624 557 699 q 696 403 696 550 q 638 160 696 263 q 476 17 581 58 l 415 -76 m 164 299 q 206 126 164 179 q 342 74 249 74 q 530 156 467 74 q 593 392 593 238 q 551 563 593 510 q 413 617 508 617 q 227 536 290 617 q 164 299 164 456 z "},"Ǻ":{"ha":765,"x_min":-17,"x_max":697,"o":"m 347 1144 q 632 1240 481 1185 l 644 1236 l 660 1172 l 656 1163 q 464 1110 619 1151 q 371 1086 425 1101 l 360 1094 l 347 1144 m 592 0 l 582 85 l 553 243 l 363 247 l 193 243 l 119 90 l 88 0 l -17 0 l 399 857 q 354 950 354 886 q 385 1033 354 1001 q 471 1064 417 1064 q 555 1033 525 1064 q 585 953 585 1001 q 526 850 585 881 l 697 0 l 592 0 m 468 1011 q 422 995 439 1011 q 406 951 406 979 q 423 904 406 921 q 469 888 440 888 q 515 903 497 888 q 533 949 533 919 q 517 994 533 976 q 468 1011 500 1011 m 454 774 l 444 774 l 235 333 l 382 331 l 536 333 l 454 774 z "},"ǻ":{"ha":682,"x_min":-4,"x_max":600,"o":"m 497 0 l 493 74 l 471 181 l 314 182 l 174 181 l 122 78 l 93 0 l -4 0 l 339 692 l 451 692 l 597 0 l 497 0 m 383 593 l 378 593 l 213 261 l 453 261 l 383 593 m 600 1100 l 594 1090 q 394 1036 533 1072 l 310 1014 l 299 1022 l 288 1072 q 572 1169 426 1114 l 583 1165 l 600 1100 m 410 992 q 494 960 464 992 q 524 881 524 929 q 490 795 524 826 q 407 764 457 764 q 326 794 358 764 q 294 878 294 825 q 325 960 294 929 q 410 992 356 992 m 407 939 q 361 923 378 939 q 344 879 344 907 q 362 832 344 849 q 408 815 379 815 q 454 831 436 815 q 472 876 472 847 q 456 922 472 904 q 407 939 439 939 z "},"Ǽ":{"ha":1064,"x_min":-60,"x_max":1014,"o":"m 996 0 l 539 0 l 542 86 l 538 363 l 217 289 l 93 92 l 49 0 l -60 0 l 499 889 l 988 889 l 993 879 l 974 797 l 761 803 l 633 803 l 638 467 l 929 529 l 936 521 l 933 444 l 638 385 l 642 85 l 792 85 l 1008 92 l 1014 82 l 996 0 m 531 781 l 524 781 l 279 389 l 536 444 l 531 781 m 919 1132 l 915 1119 q 708 1026 832 1079 l 647 1000 l 635 1006 l 615 1053 q 881 1196 763 1126 l 892 1193 l 919 1132 z "},"ǽ":{"ha":933,"x_min":-36,"x_max":868,"o":"m 850 0 l 461 0 l 467 72 l 461 265 l 182 203 l 97 76 l 61 0 l -36 0 l 421 692 l 840 692 l 844 682 l 825 607 l 647 614 l 543 614 l 550 364 l 790 415 l 799 410 l 794 331 l 551 285 l 557 81 l 681 81 l 861 86 l 868 78 l 850 0 m 453 594 l 444 594 l 246 297 l 460 344 l 453 594 m 775 965 l 772 953 q 539 776 633 843 l 528 778 l 499 819 q 724 1021 631 929 l 736 1019 l 775 965 z "},"Ǿ":{"ha":850,"x_min":65,"x_max":819,"o":"m 704 835 q 819 543 819 743 q 769 247 819 372 q 620 56 718 122 q 383 -11 522 -11 q 239 18 301 -11 l 149 -140 l 89 -118 l 85 -107 l 178 57 q 65 354 65 153 q 178 754 65 610 q 500 899 292 899 q 642 872 578 899 l 717 1003 l 776 981 l 781 968 l 704 835 m 172 361 q 229 146 172 218 l 594 789 q 488 811 551 811 q 251 696 329 811 q 172 361 172 581 m 392 76 q 630 193 550 76 q 710 531 710 310 q 653 743 710 674 l 285 100 q 392 76 332 76 m 688 1132 l 683 1119 q 476 1026 600 1079 l 415 1000 l 403 1006 l 383 1053 q 649 1196 531 1126 l 660 1193 l 688 1132 z "},"ǿ":{"ha":750,"x_min":63,"x_max":696,"o":"m 601 647 q 696 403 696 572 q 653 188 696 282 q 528 42 610 94 q 333 -10 446 -10 q 218 10 269 -10 l 133 -132 l 72 -97 l 69 -86 l 150 49 q 63 293 63 125 q 158 589 63 479 q 426 699 254 699 q 532 683 483 699 l 603 801 l 663 767 l 667 754 l 601 647 m 164 299 q 201 133 164 188 l 486 607 q 413 617 457 617 q 227 536 290 617 q 164 299 164 456 m 342 74 q 530 156 467 74 q 593 392 593 238 q 551 563 593 508 l 264 85 q 342 74 300 74 m 561 967 l 558 954 q 325 778 419 844 l 314 779 l 285 821 q 510 1022 417 931 l 522 1021 l 561 967 z "},"Ș":{"ha":626,"x_min":26,"x_max":610,"o":"m 414 897 q 610 854 514 897 l 581 756 l 561 750 q 400 811 489 811 q 307 790 347 811 q 244 735 267 769 q 222 664 222 701 q 258 578 222 613 q 369 497 294 544 q 469 430 431 460 q 534 355 507 400 q 561 250 561 310 q 522 119 561 179 q 413 25 482 60 q 257 -10 343 -10 q 26 53 132 -10 l 53 160 l 67 165 q 161 99 107 121 q 268 76 215 76 q 403 122 350 76 q 456 231 456 167 q 419 321 456 285 q 308 403 383 357 q 211 468 249 439 q 147 542 174 497 q 121 646 121 586 q 159 773 121 715 q 265 864 197 831 q 414 897 332 897 m 272 -79 q 326 -165 326 -114 q 208 -335 326 -247 l 174 -304 l 175 -296 q 246 -182 246 -237 q 206 -121 246 -150 l 206 -112 q 272 -79 239 -90 z "},"ș":{"ha":568,"x_min":39,"x_max":515,"o":"m 351 697 q 515 665 442 697 l 489 568 l 471 564 q 342 621 410 621 q 242 586 279 621 q 204 507 204 551 q 233 446 204 469 q 324 392 263 422 q 408 344 376 365 q 463 290 440 324 q 486 207 486 256 q 456 103 486 153 q 367 23 425 54 q 233 -8 310 -8 q 133 4 186 -8 q 39 39 79 17 l 61 142 l 75 147 q 155 90 108 110 q 244 69 201 69 q 347 105 306 69 q 388 186 388 140 q 358 251 388 226 q 267 304 328 275 q 183 351 215 329 q 128 406 151 372 q 106 490 106 440 q 136 592 106 544 q 222 669 167 640 q 351 697 278 697 m 260 -79 q 314 -165 314 -114 q 196 -335 314 -247 l 161 -304 l 163 -296 q 233 -182 233 -237 q 193 -121 233 -150 l 193 -112 q 260 -79 226 -90 z "},"Ț":{"ha":649,"x_min":92,"x_max":690,"o":"m 671 799 l 526 806 l 439 806 l 368 276 l 339 0 l 235 0 l 275 268 l 335 806 l 250 806 l 99 799 l 92 808 l 111 889 l 685 889 l 690 879 l 671 799 m 283 -79 q 338 -165 338 -114 q 219 -335 338 -247 l 185 -304 l 186 -296 q 257 -182 257 -237 q 217 -121 257 -150 l 217 -112 q 283 -79 250 -90 z "},"ț":{"ha":585,"x_min":81,"x_max":586,"o":"m 569 600 l 446 608 l 378 608 l 325 217 l 301 0 l 206 0 l 235 208 l 283 608 l 213 608 l 86 600 l 81 610 l 97 692 l 582 692 l 586 682 l 569 600 m 322 -79 q 376 -165 376 -114 q 258 -335 376 -247 l 224 -304 l 225 -296 q 296 -182 296 -237 q 256 -121 296 -150 l 256 -112 q 322 -79 289 -90 z "},"ȷ":{"ha":399,"x_min":-3,"x_max":303,"o":"m 243 229 l 231 128 q 176 -9 219 44 q 32 -110 132 -62 l -3 -56 l -1 -44 q 100 32 68 -8 q 139 132 132 72 l 150 218 l 197 615 l 64 615 l 58 622 l 74 692 l 303 692 l 243 229 z "},"ˆ":{"ha":542,"x_min":143,"x_max":507,"o":"m 143 765 q 332 951 221 836 l 364 951 q 507 765 429 856 l 474 724 l 463 724 q 339 869 397 790 q 179 724 276 807 l 167 724 l 143 765 z "},"ˇ":{"ha":542,"x_min":161,"x_max":525,"o":"m 525 910 q 378 764 464 853 l 340 725 l 308 725 q 161 910 240 825 l 194 953 l 207 953 q 329 806 281 872 q 489 953 383 860 l 503 953 l 525 910 z "},"ˉ":{"ha":542,"x_min":131,"x_max":539,"o":"m 532 808 l 138 808 l 131 817 l 136 878 l 531 878 l 539 871 l 532 808 z "},"˘":{"ha":542,"x_min":168,"x_max":513,"o":"m 513 889 q 326 731 461 731 q 168 889 182 731 l 201 929 l 217 929 q 331 807 229 807 q 471 929 432 807 l 488 929 l 513 889 z "},"˙":{"ha":542,"x_min":275,"x_max":396,"o":"m 339 918 q 396 858 396 918 q 379 812 396 829 q 335 794 363 794 q 291 811 307 794 q 275 856 275 828 q 292 901 275 883 q 339 918 310 918 z "},"˚":{"ha":542,"x_min":221,"x_max":450,"o":"m 336 965 q 420 934 390 965 q 450 854 450 903 q 417 769 450 800 q 333 739 383 739 q 252 769 283 739 q 221 851 221 799 q 251 934 221 903 q 336 965 282 965 m 335 913 q 272 853 272 913 q 290 806 272 822 q 336 789 307 789 q 381 805 364 789 q 399 850 399 821 q 382 895 399 878 q 335 913 365 913 z "},"˛":{"ha":542,"x_min":88,"x_max":331,"o":"m 181 -76 q 157 -146 157 -117 q 213 -203 157 -203 q 310 -147 261 -203 l 315 -147 l 331 -200 q 196 -274 261 -274 q 117 -243 147 -274 q 88 -165 88 -212 q 122 -64 88 -115 l 208 61 l 271 61 l 181 -76 z "},"˜":{"ha":542,"x_min":117,"x_max":551,"o":"m 551 879 l 467 786 l 454 781 q 342 808 424 783 q 239 832 260 832 q 182 789 222 832 l 161 768 l 149 768 l 117 803 l 117 813 l 201 906 l 214 910 q 329 882 247 907 q 429 860 415 860 q 453 870 440 860 q 482 897 465 881 q 508 924 499 914 l 518 924 l 551 889 l 551 879 z "},"˝":{"ha":542,"x_min":113,"x_max":556,"o":"m 113 753 q 301 965 207 851 l 313 965 l 360 929 l 360 919 q 160 721 278 835 l 149 721 l 113 753 m 308 753 q 497 965 403 851 l 508 965 l 556 929 l 556 919 q 356 721 474 835 l 344 721 l 308 753 z "},"̃":{"ha":0,"x_min":117,"x_max":551,"o":"m 551 879 l 465 785 l 453 781 q 342 808 421 783 q 239 832 260 832 q 182 789 222 832 l 161 768 l 149 768 l 117 803 l 117 813 l 203 906 l 215 911 q 329 883 247 908 q 429 860 408 860 q 453 870 440 860 q 482 897 465 881 q 508 924 499 914 l 518 924 l 551 889 l 551 879 z "},"̣":{"ha":0,"x_min":150,"x_max":271,"o":"m 213 -101 q 256 -117 240 -101 q 271 -160 271 -133 q 254 -206 271 -189 q 210 -224 238 -224 q 166 -208 182 -224 q 150 -164 150 -192 q 167 -119 150 -136 q 213 -101 183 -101 z "},"̦":{"ha":0,"x_min":125,"x_max":278,"o":"m 224 -83 q 278 -169 278 -118 q 160 -339 278 -251 l 125 -308 l 126 -300 q 197 -186 197 -242 q 157 -125 197 -154 l 157 -117 q 224 -83 190 -94 z "},"Δ":{"ha":763,"x_min":-19,"x_max":694,"o":"m -19 0 l 403 889 l 522 889 l 694 0 l -19 0 m 118 89 l 578 89 l 451 781 l 442 781 l 118 89 z "},"Ω":{"ha":985,"x_min":15,"x_max":906,"o":"m 563 899 q 747 853 672 899 q 859 732 822 808 q 896 560 896 656 q 833 303 896 429 q 656 86 771 176 l 658 82 l 793 82 l 900 90 l 906 83 l 882 -6 l 753 0 l 579 0 l 528 -3 l 522 3 l 532 86 q 719 294 651 168 q 788 553 788 421 q 729 741 788 669 q 554 813 671 813 q 388 764 457 813 q 284 633 319 715 q 249 447 249 550 q 288 245 249 343 q 397 86 326 147 l 388 3 l 381 -3 l 329 0 l 138 0 l 22 -4 l 15 6 l 40 90 l 151 82 l 272 82 l 274 86 q 175 247 210 151 q 140 442 140 342 q 190 671 140 567 q 335 837 239 775 q 563 899 431 899 z "},"μ":{"ha":667,"x_min":32,"x_max":597,"o":"m 529 151 l 522 4 l 422 -6 l 468 314 l 456 314 q 325 116 383 192 q 204 -7 267 40 l 189 -7 q 154 6 171 -3 l 139 -108 l 132 -260 l 32 -269 l 139 499 l 144 633 l 243 642 l 175 156 q 174 142 174 150 q 183 111 174 121 q 206 101 193 101 q 324 209 247 101 q 494 514 401 317 l 500 633 l 597 642 l 529 151 z "},"π":{"ha":851,"x_min":39,"x_max":842,"o":"m 619 140 q 617 114 617 121 q 650 71 617 71 q 704 86 676 71 l 714 81 l 693 19 q 613 -7 649 -7 q 524 93 524 -7 q 526 128 524 103 l 586 607 l 350 607 l 310 278 l 260 -131 l 161 -131 l 214 269 l 254 607 l 200 607 q 168 594 186 607 q 111 547 150 581 l 78 518 l 65 518 l 39 557 l 40 569 l 161 683 l 183 692 l 836 693 l 842 682 l 824 606 l 681 607 l 619 140 z "},"Ẁ":{"ha":1179,"x_min":99,"x_max":1239,"o":"m 717 0 l 617 525 l 607 525 l 368 0 l 258 0 l 99 889 l 203 889 l 206 807 l 329 117 l 339 117 l 589 665 l 544 889 l 653 889 l 661 797 l 785 117 l 794 117 l 1110 800 l 1140 889 l 1239 889 l 824 0 l 717 0 m 543 1199 q 808 1057 646 1139 l 789 1010 l 776 1004 q 508 1124 622 1069 l 504 1135 l 531 1196 l 543 1199 z "},"ẁ":{"ha":1026,"x_min":92,"x_max":1044,"o":"m 610 0 l 522 388 l 517 388 l 328 0 l 226 0 l 92 692 l 188 692 l 190 619 l 293 106 l 299 106 l 499 518 l 465 692 l 563 692 l 568 613 l 672 106 l 681 106 l 926 615 l 954 692 l 1044 692 l 710 0 l 610 0 m 456 1021 q 682 819 553 928 l 653 778 l 642 776 q 407 953 535 851 l 406 965 l 444 1019 l 456 1021 z "},"Ẃ":{"ha":1179,"x_min":99,"x_max":1239,"o":"m 717 0 l 617 525 l 607 525 l 368 0 l 258 0 l 99 889 l 203 889 l 206 807 l 329 117 l 339 117 l 589 665 l 544 889 l 653 889 l 661 797 l 785 117 l 794 117 l 1110 800 l 1140 889 l 1239 889 l 824 0 l 717 0 m 824 1132 l 819 1119 q 613 1026 736 1079 l 551 1000 l 539 1006 l 519 1053 q 785 1196 667 1126 l 796 1193 l 824 1132 z "},"ẃ":{"ha":1026,"x_min":92,"x_max":1044,"o":"m 610 0 l 522 388 l 517 388 l 328 0 l 226 0 l 92 692 l 188 692 l 190 619 l 293 106 l 299 106 l 499 518 l 465 692 l 563 692 l 568 613 l 672 106 l 681 106 l 926 615 l 954 692 l 1044 692 l 710 0 l 610 0 m 697 965 l 694 953 q 461 776 556 843 l 450 778 l 421 819 q 646 1021 553 929 l 658 1019 l 697 965 z "},"Ẅ":{"ha":1179,"x_min":99,"x_max":1239,"o":"m 717 0 l 617 525 l 607 525 l 368 0 l 258 0 l 99 889 l 203 889 l 206 807 l 329 117 l 339 117 l 589 665 l 544 889 l 653 889 l 661 797 l 785 117 l 794 117 l 1110 800 l 1140 889 l 1239 889 l 824 0 l 717 0 m 549 1154 q 589 1138 574 1154 q 604 1097 604 1122 q 588 1052 604 1069 q 546 1035 572 1035 q 504 1050 519 1035 q 489 1093 489 1065 q 505 1138 489 1121 q 549 1154 521 1154 m 771 1153 q 810 1138 796 1153 q 825 1096 825 1122 q 809 1051 825 1068 q 767 1035 793 1035 q 710 1092 710 1035 q 726 1136 710 1119 q 771 1153 742 1153 z "},"ẅ":{"ha":1026,"x_min":92,"x_max":1044,"o":"m 610 0 l 522 388 l 517 388 l 328 0 l 226 0 l 92 692 l 188 692 l 190 619 l 293 106 l 299 106 l 499 518 l 465 692 l 563 692 l 568 613 l 672 106 l 681 106 l 926 615 l 954 692 l 1044 692 l 710 0 l 610 0 m 449 957 q 489 941 474 957 q 504 900 504 925 q 488 855 504 872 q 446 838 472 838 q 404 853 419 838 q 389 896 389 868 q 405 940 389 924 q 449 957 421 957 m 671 956 q 710 940 696 956 q 725 899 725 925 q 709 854 725 871 q 667 838 693 838 q 610 894 610 838 q 626 939 610 922 q 671 956 642 956 z "},"ẞ":{"ha":836,"x_min":64,"x_max":797,"o":"m 500 897 q 794 811 636 897 l 797 789 l 544 503 q 729 403 672 457 q 786 258 786 350 q 747 119 786 181 q 642 24 708 58 q 497 -10 576 -10 q 282 53 381 -10 l 310 160 l 324 165 q 415 99 364 122 q 514 76 465 76 q 634 123 586 76 q 682 239 682 169 q 619 358 682 311 q 411 444 557 404 l 410 468 l 664 761 q 486 810 575 810 q 318 751 382 810 q 240 589 254 693 l 199 278 l 169 0 l 64 0 l 104 264 l 140 590 q 254 813 157 729 q 500 897 351 897 z "},"Ạ":{"ha":761,"x_min":-19,"x_max":694,"o":"m 589 0 l 581 86 l 551 246 l 363 249 l 192 246 l 119 92 l 85 0 l -19 0 l 403 889 l 522 889 l 694 0 l 589 0 m 451 781 l 442 781 l 233 335 l 381 333 l 535 335 l 451 781 m 324 -101 q 367 -117 351 -101 q 382 -160 382 -133 q 365 -206 382 -189 q 321 -224 349 -224 q 277 -208 293 -224 q 261 -164 261 -192 q 278 -119 261 -136 q 324 -101 294 -101 z "},"ạ":{"ha":682,"x_min":-4,"x_max":597,"o":"m 497 0 l 493 74 l 471 181 l 314 182 l 174 181 l 122 78 l 93 0 l -4 0 l 339 692 l 451 692 l 597 0 l 497 0 m 383 593 l 378 593 l 213 261 l 453 261 l 383 593 m 307 -101 q 350 -117 335 -101 q 365 -160 365 -133 q 349 -206 365 -189 q 304 -224 332 -224 q 260 -208 276 -224 q 244 -164 244 -192 q 261 -119 244 -136 q 307 -101 278 -101 z "},"Ả":{"ha":761,"x_min":-19,"x_max":694,"o":"m 589 0 l 581 86 l 551 246 l 363 249 l 192 246 l 119 92 l 85 0 l -19 0 l 403 889 l 522 889 l 694 0 l 589 0 m 451 781 l 442 781 l 233 335 l 381 333 l 535 335 l 451 781 m 468 1239 q 530 1217 506 1239 q 554 1163 554 1194 q 483 1060 554 1118 l 510 1013 l 464 988 l 421 1061 q 490 1151 490 1114 q 453 1181 490 1181 q 374 1147 414 1181 l 351 1182 q 468 1239 408 1239 z "},"ả":{"ha":682,"x_min":-4,"x_max":597,"o":"m 497 0 l 493 74 l 471 181 l 314 182 l 174 181 l 122 78 l 93 0 l -4 0 l 339 692 l 451 692 l 597 0 l 497 0 m 383 593 l 378 593 l 213 261 l 453 261 l 383 593 m 400 1042 q 462 1019 438 1042 q 486 965 486 997 q 415 863 486 921 l 442 815 l 396 790 l 353 864 q 422 954 422 917 q 385 983 422 983 q 306 950 346 983 l 283 985 q 400 1042 340 1042 z "},"Ấ":{"ha":761,"x_min":-19,"x_max":704,"o":"m 589 0 l 581 86 l 551 246 l 363 249 l 192 246 l 119 92 l 85 0 l -19 0 l 403 889 l 522 889 l 694 0 l 589 0 m 451 781 l 442 781 l 233 335 l 381 333 l 535 335 l 451 781 m 704 1274 l 608 1153 l 583 1136 l 547 1164 l 626 1289 l 651 1310 l 701 1285 l 704 1274 m 497 1160 q 644 1036 554 1107 l 618 990 l 606 990 q 476 1083 554 1025 q 324 990 400 1035 l 311 990 l 294 1036 q 467 1160 382 1090 l 497 1160 z "},"ấ":{"ha":682,"x_min":-4,"x_max":636,"o":"m 497 0 l 493 74 l 471 181 l 314 182 l 174 181 l 122 78 l 93 0 l -4 0 l 339 692 l 451 692 l 597 0 l 497 0 m 383 593 l 378 593 l 213 261 l 453 261 l 383 593 m 636 1076 l 540 956 l 515 939 l 479 967 l 558 1092 l 583 1113 l 633 1088 l 636 1076 m 429 963 q 576 839 486 910 l 550 793 l 538 793 q 408 886 486 828 q 256 793 332 838 l 243 793 l 226 839 q 399 963 314 893 l 429 963 z "},"Ầ":{"ha":761,"x_min":-19,"x_max":694,"o":"m 589 0 l 581 86 l 551 246 l 363 249 l 192 246 l 119 92 l 85 0 l -19 0 l 403 889 l 522 889 l 694 0 l 589 0 m 451 781 l 442 781 l 233 335 l 381 333 l 535 335 l 451 781 m 663 1164 l 626 1136 l 603 1153 l 506 1272 l 508 1285 l 560 1308 l 583 1289 l 663 1164 m 504 1158 q 651 1035 561 1103 l 624 989 l 613 989 q 483 1082 551 1032 q 385 1022 451 1061 l 329 989 l 317 989 l 301 1035 q 474 1158 389 1089 l 504 1158 z "},"ầ":{"ha":682,"x_min":-4,"x_max":597,"o":"m 497 0 l 493 74 l 471 181 l 314 182 l 174 181 l 122 78 l 93 0 l -4 0 l 339 692 l 451 692 l 597 0 l 497 0 m 383 593 l 378 593 l 213 261 l 453 261 l 383 593 m 594 967 l 558 939 l 535 956 l 438 1075 l 440 1088 l 492 1111 l 515 1092 l 594 967 m 436 961 q 583 838 493 906 l 556 792 l 544 792 q 415 885 483 835 q 317 825 383 864 l 261 792 l 249 792 l 233 838 q 406 961 321 892 l 436 961 z "},"Ẩ":{"ha":761,"x_min":-19,"x_max":694,"o":"m 589 0 l 581 86 l 551 246 l 363 249 l 192 246 l 119 92 l 85 0 l -19 0 l 403 889 l 522 889 l 694 0 l 589 0 m 451 781 l 442 781 l 233 335 l 381 333 l 535 335 l 451 781 m 604 1363 q 663 1342 639 1363 q 686 1289 686 1321 q 619 1192 686 1249 l 644 1147 l 600 1124 l 560 1193 q 626 1279 626 1244 q 590 1307 626 1307 q 515 1275 551 1307 l 493 1308 q 604 1363 547 1363 m 501 1160 q 649 1036 558 1104 l 621 990 l 610 990 q 481 1083 572 1015 q 326 990 417 1043 l 314 990 l 299 1036 q 471 1160 386 1090 l 501 1160 z "},"ẩ":{"ha":682,"x_min":-4,"x_max":618,"o":"m 497 0 l 493 74 l 471 181 l 314 182 l 174 181 l 122 78 l 93 0 l -4 0 l 339 692 l 451 692 l 597 0 l 497 0 m 383 593 l 378 593 l 213 261 l 453 261 l 383 593 m 536 1165 q 594 1144 571 1165 q 618 1092 618 1124 q 551 994 618 1051 l 576 950 l 532 926 l 492 996 q 558 1082 558 1047 q 522 1110 558 1110 q 447 1078 483 1110 l 425 1111 q 536 1165 479 1165 m 433 963 q 581 839 490 907 l 553 793 l 542 793 q 413 886 504 818 q 258 793 349 846 l 246 793 l 231 839 q 403 963 318 893 l 433 963 z "},"Ẫ":{"ha":761,"x_min":-19,"x_max":732,"o":"m 589 0 l 581 86 l 551 246 l 363 249 l 192 246 l 119 92 l 85 0 l -19 0 l 403 889 l 522 889 l 694 0 l 589 0 m 451 781 l 442 781 l 233 335 l 381 333 l 535 335 l 451 781 m 732 1294 l 653 1203 l 642 1199 q 535 1225 619 1201 q 438 1249 456 1249 q 415 1239 426 1249 q 390 1213 404 1229 q 365 1188 375 1197 l 356 1188 l 324 1219 l 324 1231 l 403 1319 l 415 1324 q 521 1297 436 1321 q 618 1275 604 1275 q 640 1285 629 1275 q 667 1311 651 1294 q 692 1338 682 1328 l 701 1338 l 732 1304 l 732 1294 m 514 1161 q 663 1036 582 1097 l 635 992 l 622 992 q 494 1083 543 1046 q 340 992 438 1049 l 328 992 l 311 1036 q 485 1161 381 1079 l 514 1161 z "},"ẫ":{"ha":682,"x_min":-4,"x_max":664,"o":"m 497 0 l 493 74 l 471 181 l 314 182 l 174 181 l 122 78 l 93 0 l -4 0 l 339 692 l 451 692 l 597 0 l 497 0 m 383 593 l 378 593 l 213 261 l 453 261 l 383 593 m 664 1097 l 585 1006 l 574 1001 q 467 1028 551 1004 q 369 1051 388 1051 q 347 1042 358 1051 q 322 1016 336 1032 q 297 990 307 1000 l 288 990 l 256 1022 l 256 1033 l 335 1122 l 347 1126 q 453 1100 368 1124 q 550 1078 536 1078 q 572 1088 561 1078 q 599 1114 583 1097 q 624 1140 614 1131 l 633 1140 l 664 1107 l 664 1097 m 446 964 q 594 839 514 900 l 567 794 l 554 794 q 426 886 475 849 q 272 794 369 851 l 260 794 l 243 839 q 417 964 313 882 l 446 964 z "},"Ậ":{"ha":761,"x_min":-18,"x_max":696,"o":"m 307 1063 q 481 1186 385 1110 l 511 1186 q 658 1063 568 1131 l 631 1017 l 619 1017 q 490 1110 560 1057 q 336 1017 401 1054 l 324 1017 l 307 1063 m 590 0 l 581 86 l 551 246 l 363 249 l 192 246 l 119 92 l 86 0 l -18 0 l 404 889 l 524 889 l 696 0 l 590 0 m 453 781 l 443 781 l 233 335 l 382 333 l 535 335 l 453 781 m 324 -101 q 367 -117 351 -101 q 382 -160 382 -133 q 365 -206 382 -189 q 321 -224 349 -224 q 277 -208 293 -224 q 261 -164 261 -192 q 278 -119 261 -136 q 324 -101 294 -101 z "},"ậ":{"ha":682,"x_min":-4,"x_max":597,"o":"m 232 821 q 421 1007 310 892 l 453 1007 q 596 821 518 911 l 563 779 l 551 779 q 428 925 486 846 q 268 779 365 863 l 256 779 l 232 821 m 499 0 l 493 74 l 471 181 l 314 182 l 174 181 l 122 78 l 93 0 l -4 0 l 339 692 l 453 692 l 597 0 l 499 0 m 383 593 l 378 593 l 213 261 l 453 261 l 383 593 m 307 -101 q 350 -117 335 -101 q 365 -160 365 -133 q 349 -206 365 -189 q 304 -224 332 -224 q 260 -208 276 -224 q 244 -164 244 -192 q 261 -119 244 -136 q 307 -101 278 -101 z "},"Ắ":{"ha":761,"x_min":-19,"x_max":694,"o":"m 589 0 l 581 86 l 551 246 l 363 249 l 192 246 l 119 92 l 85 0 l -19 0 l 403 889 l 522 889 l 694 0 l 589 0 m 451 781 l 442 781 l 233 335 l 381 333 l 535 335 l 451 781 m 607 1267 q 508 1167 590 1249 l 474 1132 l 463 1132 l 426 1163 q 547 1310 490 1236 l 558 1311 l 606 1278 l 607 1267 m 657 1101 q 585 1010 631 1042 q 479 978 539 978 q 367 1010 411 978 q 311 1101 324 1042 l 346 1138 l 363 1138 q 479 1054 381 1054 q 615 1138 574 1054 l 632 1138 l 657 1101 z "},"ắ":{"ha":682,"x_min":-4,"x_max":597,"o":"m 497 0 l 493 74 l 471 181 l 314 182 l 174 181 l 122 78 l 93 0 l -4 0 l 339 692 l 451 692 l 597 0 l 497 0 m 383 593 l 378 593 l 213 261 l 453 261 l 383 593 m 539 1069 q 440 969 522 1051 l 406 935 l 394 935 l 358 965 q 479 1113 422 1039 l 490 1114 l 538 1081 l 539 1069 m 589 904 q 517 813 563 844 q 411 781 471 781 q 299 813 343 781 q 243 904 256 844 l 278 940 l 294 940 q 411 857 313 857 q 547 940 506 857 l 564 940 l 589 904 z "},"Ằ":{"ha":761,"x_min":-19,"x_max":694,"o":"m 589 0 l 581 86 l 551 246 l 363 249 l 192 246 l 119 92 l 85 0 l -19 0 l 403 889 l 522 889 l 694 0 l 589 0 m 451 781 l 442 781 l 233 335 l 381 333 l 535 335 l 451 781 m 490 1132 l 456 1167 q 357 1267 372 1250 l 357 1278 l 407 1311 l 417 1310 q 538 1163 474 1236 l 501 1132 l 490 1132 m 658 1101 q 586 1009 632 1042 q 481 976 540 976 q 369 1009 413 976 q 313 1101 325 1042 l 347 1138 l 364 1138 q 481 1053 382 1053 q 617 1138 575 1053 l 633 1138 l 658 1101 z "},"ằ":{"ha":682,"x_min":-4,"x_max":597,"o":"m 497 0 l 493 74 l 471 181 l 314 182 l 174 181 l 122 78 l 93 0 l -4 0 l 339 692 l 451 692 l 597 0 l 497 0 m 383 593 l 378 593 l 213 261 l 453 261 l 383 593 m 422 935 l 388 969 q 289 1069 304 1053 l 289 1081 l 339 1114 l 349 1113 q 469 965 406 1039 l 433 935 l 422 935 m 590 904 q 518 812 564 844 q 413 779 472 779 q 301 812 344 779 q 244 904 257 844 l 279 940 l 296 940 q 413 856 314 856 q 549 940 507 856 l 565 940 l 590 904 z "},"Ẳ":{"ha":761,"x_min":-19,"x_max":694,"o":"m 589 0 l 581 86 l 551 246 l 363 249 l 192 246 l 119 92 l 85 0 l -19 0 l 403 889 l 522 889 l 694 0 l 589 0 m 451 781 l 442 781 l 233 335 l 381 333 l 535 335 l 451 781 m 486 1379 q 547 1357 522 1379 q 571 1303 571 1335 q 500 1200 571 1258 l 526 1153 l 482 1128 l 438 1201 q 507 1292 507 1254 q 471 1321 507 1321 q 390 1288 429 1321 l 369 1322 q 486 1379 424 1379 m 657 1103 q 585 1011 631 1043 q 479 979 539 979 q 367 1011 411 979 q 311 1103 324 1043 l 346 1139 l 363 1139 q 479 1054 381 1054 q 615 1139 574 1054 l 632 1139 l 657 1103 z "},"ẳ":{"ha":682,"x_min":-4,"x_max":597,"o":"m 497 0 l 493 74 l 471 181 l 314 182 l 174 181 l 122 78 l 93 0 l -4 0 l 339 692 l 451 692 l 597 0 l 497 0 m 383 593 l 378 593 l 213 261 l 453 261 l 383 593 m 418 1182 q 478 1160 454 1182 q 503 1106 503 1138 q 432 1003 503 1061 l 458 956 l 414 931 l 369 1004 q 439 1094 439 1057 q 403 1124 439 1124 q 322 1090 361 1124 l 301 1125 q 418 1182 356 1182 m 589 906 q 517 814 563 846 q 411 782 471 782 q 299 814 343 782 q 243 906 256 846 l 278 942 l 294 942 q 411 857 313 857 q 547 942 506 857 l 564 942 l 589 906 z "},"Ẵ":{"ha":761,"x_min":-19,"x_max":707,"o":"m 589 0 l 581 86 l 551 246 l 363 249 l 192 246 l 119 92 l 85 0 l -19 0 l 403 889 l 522 889 l 694 0 l 589 0 m 451 781 l 442 781 l 233 335 l 381 333 l 535 335 l 451 781 m 707 1294 l 629 1203 l 617 1199 q 511 1225 596 1201 q 414 1249 435 1249 q 392 1239 403 1249 q 366 1213 381 1229 q 342 1188 351 1197 l 331 1188 l 300 1219 l 300 1231 l 379 1319 l 392 1324 q 497 1297 413 1321 q 593 1275 578 1275 q 646 1315 610 1275 l 667 1338 l 678 1338 l 707 1304 l 707 1294 m 640 1100 q 569 1010 614 1042 q 465 978 524 978 q 356 1010 399 978 q 301 1100 314 1042 l 335 1135 l 351 1135 q 465 1053 368 1053 q 599 1135 560 1053 l 615 1135 l 640 1100 z "},"ẵ":{"ha":682,"x_min":-4,"x_max":639,"o":"m 497 0 l 493 74 l 471 181 l 314 182 l 174 181 l 122 78 l 93 0 l -4 0 l 339 692 l 451 692 l 597 0 l 497 0 m 383 593 l 378 593 l 213 261 l 453 261 l 383 593 m 639 1097 l 561 1006 l 549 1001 q 443 1028 528 1004 q 346 1051 367 1051 q 324 1042 335 1051 q 298 1016 313 1032 q 274 990 283 1000 l 263 990 l 232 1022 l 232 1033 l 311 1122 l 324 1126 q 429 1100 344 1124 q 525 1078 510 1078 q 578 1118 542 1078 l 599 1140 l 610 1140 l 639 1107 l 639 1097 m 572 903 q 501 813 546 844 q 397 781 456 781 q 288 813 331 781 q 233 903 246 844 l 267 938 l 283 938 q 397 856 300 856 q 531 938 492 856 l 547 938 l 572 903 z "},"Ặ":{"ha":761,"x_min":-18,"x_max":696,"o":"m 476 1006 q 365 1038 408 1006 q 308 1129 321 1069 l 343 1165 l 360 1165 q 476 1082 378 1082 q 613 1165 571 1082 l 629 1165 l 654 1129 q 582 1038 628 1069 q 476 1006 536 1006 m 590 0 l 581 86 l 551 246 l 363 249 l 192 246 l 119 92 l 86 0 l -18 0 l 404 889 l 524 889 l 696 0 l 590 0 m 453 781 l 443 781 l 233 335 l 382 333 l 535 335 l 453 781 m 324 -101 q 367 -117 351 -101 q 382 -160 382 -133 q 365 -206 382 -189 q 321 -224 349 -224 q 277 -208 293 -224 q 261 -164 261 -192 q 278 -119 261 -136 q 324 -101 294 -101 z "},"ặ":{"ha":682,"x_min":-4,"x_max":597,"o":"m 400 786 q 242 944 256 786 l 275 985 l 290 985 q 404 863 303 863 q 544 985 506 863 l 561 985 l 586 944 q 400 786 535 786 m 499 0 l 493 74 l 471 181 l 314 182 l 174 181 l 122 78 l 93 0 l -4 0 l 339 692 l 453 692 l 597 0 l 499 0 m 383 593 l 378 593 l 213 261 l 453 261 l 383 593 m 307 -101 q 350 -117 335 -101 q 365 -160 365 -133 q 349 -206 365 -189 q 304 -224 332 -224 q 260 -208 276 -224 q 244 -164 244 -192 q 261 -119 244 -136 q 307 -101 278 -101 z "},"Ẹ":{"ha":640,"x_min":88,"x_max":678,"o":"m 253 500 l 413 497 l 551 501 l 558 492 l 539 411 l 392 414 l 240 413 l 222 276 l 203 89 l 372 86 l 574 92 l 578 82 l 560 0 l 88 0 l 128 268 l 200 889 l 674 889 l 678 879 l 660 797 l 463 803 l 292 800 l 253 500 m 354 -101 q 397 -117 382 -101 q 413 -160 413 -133 q 396 -206 413 -189 q 351 -224 379 -224 q 308 -208 324 -224 q 292 -164 292 -192 q 308 -119 292 -136 q 354 -101 325 -101 z "},"ẹ":{"ha":582,"x_min":85,"x_max":579,"o":"m 229 394 l 363 393 l 478 397 l 482 388 l 467 311 l 343 314 l 218 314 l 204 217 l 190 81 l 319 79 l 497 83 l 504 76 l 486 0 l 85 0 l 114 208 l 171 692 l 575 692 l 579 682 l 563 607 l 397 613 l 258 611 l 229 394 m 290 -101 q 333 -117 318 -101 q 349 -160 349 -133 q 332 -206 349 -189 q 288 -224 315 -224 q 244 -208 260 -224 q 228 -164 228 -192 q 244 -119 228 -136 q 290 -101 261 -101 z "},"Ẻ":{"ha":640,"x_min":88,"x_max":678,"o":"m 253 500 l 413 497 l 551 501 l 558 492 l 539 411 l 392 414 l 240 413 l 222 276 l 203 89 l 372 86 l 574 92 l 578 82 l 560 0 l 88 0 l 128 268 l 200 889 l 674 889 l 678 879 l 660 797 l 463 803 l 292 800 l 253 500 m 442 1239 q 503 1217 479 1239 q 528 1163 528 1194 q 457 1060 528 1118 l 483 1013 l 438 988 l 394 1061 q 464 1151 464 1114 q 426 1181 464 1181 q 347 1147 388 1181 l 325 1182 q 442 1239 382 1239 z "},"ẻ":{"ha":582,"x_min":85,"x_max":579,"o":"m 229 394 l 363 393 l 478 397 l 482 388 l 467 311 l 343 314 l 218 314 l 204 217 l 190 81 l 319 79 l 497 83 l 504 76 l 486 0 l 85 0 l 114 208 l 171 692 l 575 692 l 579 682 l 563 607 l 397 613 l 258 611 l 229 394 m 382 1042 q 444 1019 419 1042 q 468 965 468 997 q 397 863 468 921 l 424 815 l 378 790 l 335 864 q 404 954 404 917 q 367 983 404 983 q 288 950 328 983 l 265 985 q 382 1042 322 1042 z "},"Ẽ":{"ha":640,"x_min":88,"x_max":678,"o":"m 253 500 l 413 497 l 551 501 l 558 492 l 539 411 l 392 414 l 240 413 l 222 276 l 203 89 l 372 86 l 574 92 l 578 82 l 560 0 l 88 0 l 128 268 l 200 889 l 674 889 l 678 879 l 660 797 l 463 803 l 292 800 l 253 500 m 672 1132 l 588 1039 l 575 1033 q 463 1061 544 1036 q 360 1085 381 1085 q 303 1042 343 1085 l 282 1021 l 269 1021 l 238 1056 l 238 1065 l 322 1158 l 335 1163 q 450 1135 368 1160 q 550 1113 536 1113 q 574 1123 561 1113 q 603 1150 586 1133 q 629 1176 619 1167 l 639 1176 l 672 1142 l 672 1132 z "},"ẽ":{"ha":582,"x_min":85,"x_max":614,"o":"m 229 394 l 363 393 l 478 397 l 482 388 l 467 311 l 343 314 l 218 314 l 204 217 l 190 81 l 319 79 l 497 83 l 504 76 l 486 0 l 85 0 l 114 208 l 171 692 l 575 692 l 579 682 l 563 607 l 397 613 l 258 611 l 229 394 m 614 935 l 529 842 l 517 836 q 404 864 486 839 q 301 888 322 888 q 244 844 285 888 l 224 824 l 211 824 l 179 858 l 179 868 l 264 961 l 276 965 q 392 938 310 963 q 492 915 478 915 q 515 926 503 915 q 544 953 528 936 q 571 979 561 969 l 581 979 l 614 944 l 614 935 z "},"Ế":{"ha":640,"x_min":88,"x_max":678,"o":"m 253 500 l 413 497 l 551 501 l 558 492 l 539 411 l 392 414 l 240 413 l 222 276 l 203 89 l 372 86 l 574 92 l 578 82 l 560 0 l 88 0 l 128 268 l 200 889 l 674 889 l 678 879 l 660 797 l 463 803 l 292 800 l 253 500 m 678 1274 l 582 1153 l 557 1136 l 521 1164 l 600 1289 l 625 1310 l 675 1285 l 678 1274 m 471 1160 q 618 1036 528 1107 l 592 990 l 579 990 q 450 1083 528 1025 q 297 990 374 1035 l 285 990 l 268 1036 q 440 1160 356 1090 l 471 1160 z "},"ế":{"ha":582,"x_min":85,"x_max":619,"o":"m 229 394 l 363 393 l 478 397 l 482 388 l 467 311 l 343 314 l 218 314 l 204 217 l 190 81 l 319 79 l 497 83 l 504 76 l 486 0 l 85 0 l 114 208 l 171 692 l 575 692 l 579 682 l 563 607 l 397 613 l 258 611 l 229 394 m 619 1076 l 524 956 l 499 939 l 463 967 l 542 1092 l 567 1113 l 617 1088 l 619 1076 m 413 963 q 560 839 469 910 l 533 793 l 521 793 q 392 886 469 828 q 239 793 315 838 l 226 793 l 210 839 q 382 963 297 893 l 413 963 z "},"Ề":{"ha":640,"x_min":88,"x_max":678,"o":"m 253 500 l 413 497 l 551 501 l 558 492 l 539 411 l 392 414 l 240 413 l 222 276 l 203 89 l 372 86 l 574 92 l 578 82 l 560 0 l 88 0 l 128 268 l 200 889 l 674 889 l 678 879 l 660 797 l 463 803 l 292 800 l 253 500 m 636 1164 l 600 1136 l 576 1153 l 479 1272 l 482 1285 l 533 1308 l 557 1289 l 636 1164 m 478 1158 q 625 1035 535 1103 l 597 989 l 586 989 q 457 1082 525 1032 q 358 1022 425 1061 l 303 989 l 290 989 l 275 1035 q 447 1158 363 1089 l 478 1158 z "},"ề":{"ha":582,"x_min":85,"x_max":579,"o":"m 229 394 l 363 393 l 478 397 l 482 388 l 467 311 l 343 314 l 218 314 l 204 217 l 190 81 l 319 79 l 497 83 l 504 76 l 486 0 l 85 0 l 114 208 l 171 692 l 575 692 l 579 682 l 563 607 l 397 613 l 258 611 l 229 394 m 578 967 l 542 939 l 518 956 l 421 1075 l 424 1088 l 475 1111 l 499 1092 l 578 967 m 419 961 q 567 838 476 906 l 539 792 l 528 792 q 399 885 467 835 q 300 825 367 864 l 244 792 l 232 792 l 217 838 q 389 961 304 892 l 419 961 z "},"Ể":{"ha":640,"x_min":88,"x_max":678,"o":"m 253 500 l 413 497 l 551 501 l 558 492 l 539 411 l 392 414 l 240 413 l 222 276 l 203 89 l 372 86 l 574 92 l 578 82 l 560 0 l 88 0 l 128 268 l 200 889 l 674 889 l 678 879 l 660 797 l 463 803 l 292 800 l 253 500 m 578 1363 q 636 1342 613 1363 q 660 1289 660 1321 q 593 1192 660 1249 l 618 1147 l 574 1124 l 533 1193 q 600 1279 600 1244 q 564 1307 600 1307 q 489 1275 525 1307 l 467 1308 q 578 1363 521 1363 m 475 1160 q 622 1036 532 1104 l 594 990 l 583 990 q 454 1083 546 1015 q 300 990 390 1043 l 288 990 l 272 1036 q 444 1160 360 1090 l 475 1160 z "},"ể":{"ha":582,"x_min":85,"x_max":601,"o":"m 229 394 l 363 393 l 478 397 l 482 388 l 467 311 l 343 314 l 218 314 l 204 217 l 190 81 l 319 79 l 497 83 l 504 76 l 486 0 l 85 0 l 114 208 l 171 692 l 575 692 l 579 682 l 563 607 l 397 613 l 258 611 l 229 394 m 519 1165 q 578 1144 554 1165 q 601 1092 601 1124 q 535 994 601 1051 l 560 950 l 515 926 l 475 996 q 542 1082 542 1047 q 506 1110 542 1110 q 431 1078 467 1110 l 408 1111 q 519 1165 463 1165 m 417 963 q 564 839 474 907 l 536 793 l 525 793 q 396 886 488 818 q 242 793 332 846 l 229 793 l 214 839 q 386 963 301 893 l 417 963 z "},"Ễ":{"ha":640,"x_min":88,"x_max":678,"o":"m 253 500 l 413 497 l 551 501 l 558 492 l 539 411 l 392 414 l 240 413 l 222 276 l 203 89 l 372 86 l 574 92 l 578 82 l 560 0 l 88 0 l 128 268 l 200 889 l 674 889 l 678 879 l 660 797 l 463 803 l 292 800 l 253 500 m 636 1164 l 600 1136 l 576 1153 l 479 1272 l 482 1285 l 533 1308 l 557 1289 l 636 1164 m 478 1158 q 625 1035 535 1103 l 597 989 l 586 989 q 457 1082 525 1032 q 358 1022 425 1061 l 303 989 l 290 989 l 275 1035 q 447 1158 363 1089 l 478 1158 z "},"ễ":{"ha":582,"x_min":85,"x_max":646,"o":"m 229 394 l 363 393 l 478 397 l 482 388 l 467 311 l 343 314 l 218 314 l 204 217 l 190 81 l 319 79 l 497 83 l 504 76 l 486 0 l 85 0 l 114 208 l 171 692 l 575 692 l 579 682 l 563 607 l 397 613 l 258 611 l 229 394 m 646 1097 l 567 1006 l 556 1001 q 449 1028 533 1004 q 351 1051 369 1051 q 329 1042 340 1051 q 303 1016 318 1032 q 279 990 289 1000 l 269 990 l 238 1022 l 238 1033 l 317 1122 l 329 1126 q 435 1100 350 1124 q 532 1078 518 1078 q 554 1088 543 1078 q 581 1114 565 1097 q 606 1140 596 1131 l 615 1140 l 646 1107 l 646 1097 m 428 964 q 576 839 496 900 l 549 794 l 536 794 q 408 886 457 849 q 254 794 351 851 l 242 794 l 225 839 q 399 964 294 882 l 428 964 z "},"Ệ":{"ha":640,"x_min":88,"x_max":678,"o":"m 253 500 l 413 497 l 551 501 l 558 492 l 539 411 l 392 414 l 240 413 l 222 276 l 203 89 l 372 86 l 574 92 l 578 82 l 560 0 l 88 0 l 128 268 l 200 889 l 674 889 l 678 879 l 660 797 l 463 803 l 292 800 l 253 500 m 354 -101 q 397 -117 382 -101 q 413 -160 413 -133 q 396 -206 413 -189 q 351 -224 379 -224 q 308 -208 324 -224 q 292 -164 292 -192 q 308 -119 292 -136 q 354 -101 325 -101 m 281 1063 q 454 1186 358 1110 l 485 1186 q 632 1063 542 1131 l 604 1017 l 593 1017 q 464 1110 533 1057 q 310 1017 375 1054 l 297 1017 l 281 1063 z "},"ệ":{"ha":582,"x_min":85,"x_max":579,"o":"m 229 394 l 363 393 l 478 397 l 482 388 l 467 311 l 343 314 l 218 314 l 204 217 l 190 81 l 319 79 l 497 83 l 504 76 l 486 0 l 85 0 l 114 208 l 171 692 l 575 692 l 579 682 l 563 607 l 397 613 l 258 611 l 229 394 m 290 -101 q 333 -117 318 -101 q 349 -160 349 -133 q 332 -206 349 -189 q 288 -224 315 -224 q 244 -208 260 -224 q 228 -164 228 -192 q 244 -119 228 -136 q 290 -101 261 -101 m 214 821 q 403 1007 292 892 l 435 1007 q 578 821 500 911 l 544 779 l 533 779 q 410 925 468 846 q 250 779 347 863 l 238 779 l 214 821 z "},"Ỉ":{"ha":360,"x_min":88,"x_max":347,"o":"m 193 0 l 88 0 l 128 268 l 199 889 l 304 889 l 221 276 l 193 0 m 261 1239 q 323 1217 299 1239 q 347 1163 347 1194 q 276 1060 347 1118 l 303 1013 l 257 988 l 214 1061 q 283 1151 283 1114 q 246 1181 283 1181 q 167 1147 207 1181 l 144 1182 q 261 1239 201 1239 z "},"ỉ":{"ha":350,"x_min":85,"x_max":315,"o":"m 182 0 l 85 0 l 115 208 l 171 692 l 269 692 l 204 217 l 182 0 m 229 1042 q 291 1019 267 1042 q 315 965 315 997 q 244 863 315 921 l 271 815 l 225 790 l 182 864 q 251 954 251 917 q 214 983 251 983 q 135 950 175 983 l 113 985 q 229 1042 169 1042 z "},"Ị":{"ha":360,"x_min":68,"x_max":304,"o":"m 193 0 l 88 0 l 128 268 l 199 889 l 304 889 l 221 276 l 193 0 m 131 -101 q 174 -117 158 -101 q 189 -160 189 -133 q 172 -206 189 -189 q 128 -224 156 -224 q 84 -208 100 -224 q 68 -164 68 -192 q 85 -119 68 -136 q 131 -101 101 -101 z "},"ị":{"ha":350,"x_min":68,"x_max":269,"o":"m 182 0 l 85 0 l 115 208 l 171 692 l 269 692 l 204 217 l 182 0 m 131 -101 q 174 -117 158 -101 q 189 -160 189 -133 q 172 -206 189 -189 q 128 -224 156 -224 q 84 -208 100 -224 q 68 -164 68 -192 q 85 -119 68 -136 q 131 -101 101 -101 z "},"Ọ":{"ha":849,"x_min":65,"x_max":819,"o":"m 500 899 q 736 806 653 899 q 819 543 819 713 q 768 247 819 372 q 619 56 717 122 q 382 -11 521 -11 q 149 85 233 -11 q 65 354 65 182 q 178 755 65 611 q 500 899 292 899 m 488 811 q 251 696 329 811 q 172 361 172 581 q 392 76 172 76 q 630 193 550 76 q 710 531 710 310 q 488 811 710 811 m 408 -101 q 451 -117 436 -101 q 467 -160 467 -133 q 450 -206 467 -189 q 406 -224 433 -224 q 362 -208 378 -224 q 346 -164 346 -192 q 363 -119 346 -136 q 408 -101 379 -101 z "},"ọ":{"ha":750,"x_min":63,"x_max":696,"o":"m 426 699 q 626 624 557 699 q 696 403 696 550 q 653 188 696 282 q 528 42 610 94 q 333 -10 446 -10 q 133 67 203 -10 q 63 293 63 143 q 158 589 63 479 q 426 699 254 699 m 414 617 q 227 536 290 617 q 164 299 164 456 q 206 126 164 179 q 343 74 249 74 q 531 156 468 74 q 593 392 593 238 q 551 563 593 508 q 414 617 508 617 m 354 -101 q 397 -117 382 -101 q 413 -160 413 -133 q 396 -206 413 -189 q 351 -224 379 -224 q 308 -208 324 -224 q 292 -164 292 -192 q 308 -119 292 -136 q 354 -101 325 -101 z "},"Ỏ":{"ha":849,"x_min":65,"x_max":819,"o":"m 500 899 q 736 806 653 899 q 819 543 819 713 q 768 247 819 372 q 619 56 717 122 q 382 -11 521 -11 q 149 85 233 -11 q 65 354 65 182 q 178 755 65 611 q 500 899 292 899 m 488 811 q 251 696 329 811 q 172 361 172 581 q 392 76 172 76 q 630 193 550 76 q 710 531 710 310 q 488 811 710 811 m 506 1239 q 567 1217 543 1239 q 592 1163 592 1194 q 521 1060 592 1118 l 547 1013 l 501 988 l 458 1061 q 528 1151 528 1114 q 490 1181 528 1181 q 411 1147 451 1181 l 389 1182 q 506 1239 446 1239 z "},"ỏ":{"ha":750,"x_min":63,"x_max":696,"o":"m 426 699 q 626 624 557 699 q 696 403 696 550 q 653 188 696 282 q 528 42 610 94 q 333 -10 446 -10 q 133 67 203 -10 q 63 293 63 143 q 158 589 63 479 q 426 699 254 699 m 414 617 q 227 536 290 617 q 164 299 164 456 q 206 126 164 179 q 343 74 249 74 q 531 156 468 74 q 593 392 593 238 q 551 563 593 508 q 414 617 508 617 m 429 1042 q 491 1019 467 1042 q 515 965 515 997 q 444 863 515 921 l 471 815 l 425 790 l 382 864 q 451 954 451 917 q 414 983 451 983 q 335 950 375 983 l 313 985 q 429 1042 369 1042 z "},"Ố":{"ha":849,"x_min":65,"x_max":819,"o":"m 500 899 q 736 806 653 899 q 819 543 819 713 q 768 247 819 372 q 619 56 717 122 q 382 -11 521 -11 q 149 85 233 -11 q 65 354 65 182 q 178 755 65 611 q 500 899 292 899 m 488 811 q 251 696 329 811 q 172 361 172 581 q 392 76 172 76 q 630 193 550 76 q 710 531 710 310 q 488 811 710 811 m 743 1274 l 647 1153 l 622 1136 l 586 1164 l 665 1289 l 690 1310 l 740 1285 l 743 1274 m 536 1160 q 683 1036 593 1107 l 657 990 l 644 990 q 515 1083 593 1025 q 363 990 439 1035 l 350 990 l 333 1036 q 506 1160 421 1090 l 536 1160 z "},"ố":{"ha":750,"x_min":63,"x_max":696,"o":"m 426 699 q 626 624 557 699 q 696 403 696 550 q 653 188 696 282 q 528 42 610 94 q 333 -10 446 -10 q 133 67 203 -10 q 63 293 63 143 q 158 589 63 479 q 426 699 254 699 m 414 617 q 227 536 290 617 q 164 299 164 456 q 206 126 164 179 q 343 74 249 74 q 531 156 468 74 q 593 392 593 238 q 551 563 593 508 q 414 617 508 617 m 665 1076 l 569 956 l 544 939 l 508 967 l 588 1092 l 613 1113 l 663 1088 l 665 1076 m 458 963 q 606 839 515 910 l 579 793 l 567 793 q 438 886 515 828 q 285 793 361 838 l 272 793 l 256 839 q 428 963 343 893 l 458 963 z "},"Ồ":{"ha":849,"x_min":65,"x_max":819,"o":"m 500 899 q 736 806 653 899 q 819 543 819 713 q 768 247 819 372 q 619 56 717 122 q 382 -11 521 -11 q 149 85 233 -11 q 65 354 65 182 q 178 755 65 611 q 500 899 292 899 m 488 811 q 251 696 329 811 q 172 361 172 581 q 392 76 172 76 q 630 193 550 76 q 710 531 710 310 q 488 811 710 811 m 701 1164 l 665 1136 l 642 1153 l 544 1272 l 547 1285 l 599 1308 l 622 1289 l 701 1164 m 543 1158 q 690 1035 600 1103 l 663 989 l 651 989 q 522 1082 590 1032 q 424 1022 490 1061 l 368 989 l 356 989 l 340 1035 q 513 1158 428 1089 l 543 1158 z "},"ồ":{"ha":750,"x_min":63,"x_max":696,"o":"m 426 699 q 626 624 557 699 q 696 403 696 550 q 653 188 696 282 q 528 42 610 94 q 333 -10 446 -10 q 133 67 203 -10 q 63 293 63 143 q 158 589 63 479 q 426 699 254 699 m 414 617 q 227 536 290 617 q 164 299 164 456 q 206 126 164 179 q 343 74 249 74 q 531 156 468 74 q 593 392 593 238 q 551 563 593 508 q 414 617 508 617 m 624 967 l 588 939 l 564 956 l 467 1075 l 469 1088 l 521 1111 l 544 1092 l 624 967 m 465 961 q 613 838 522 906 l 585 792 l 574 792 q 444 885 513 835 q 346 825 413 864 l 290 792 l 278 792 l 263 838 q 435 961 350 892 l 465 961 z "},"Ổ":{"ha":849,"x_min":65,"x_max":819,"o":"m 500 899 q 736 806 653 899 q 819 543 819 713 q 768 247 819 372 q 619 56 717 122 q 382 -11 521 -11 q 149 85 233 -11 q 65 354 65 182 q 178 755 65 611 q 500 899 292 899 m 488 811 q 251 696 329 811 q 172 361 172 581 q 392 76 172 76 q 630 193 550 76 q 710 531 710 310 q 488 811 710 811 m 643 1363 q 701 1342 678 1363 q 725 1289 725 1321 q 658 1192 725 1249 l 683 1147 l 639 1124 l 599 1193 q 665 1279 665 1244 q 629 1307 665 1307 q 554 1275 590 1307 l 532 1308 q 643 1363 586 1363 m 540 1160 q 688 1036 597 1104 l 660 990 l 649 990 q 519 1083 611 1015 q 365 990 456 1043 l 353 990 l 338 1036 q 510 1160 425 1090 l 540 1160 z "},"ổ":{"ha":750,"x_min":63,"x_max":696,"o":"m 426 699 q 626 624 557 699 q 696 403 696 550 q 653 188 696 282 q 528 42 610 94 q 333 -10 446 -10 q 133 67 203 -10 q 63 293 63 143 q 158 589 63 479 q 426 699 254 699 m 414 617 q 227 536 290 617 q 164 299 164 456 q 206 126 164 179 q 343 74 249 74 q 531 156 468 74 q 593 392 593 238 q 551 563 593 508 q 414 617 508 617 m 565 1165 q 624 1144 600 1165 q 647 1092 647 1124 q 581 994 647 1051 l 606 950 l 561 926 l 521 996 q 588 1082 588 1047 q 551 1110 588 1110 q 476 1078 513 1110 l 454 1111 q 565 1165 508 1165 m 463 963 q 610 839 519 907 l 582 793 l 571 793 q 442 886 533 818 q 288 793 378 846 l 275 793 l 260 839 q 432 963 347 893 l 463 963 z "},"Ỗ":{"ha":849,"x_min":65,"x_max":819,"o":"m 500 899 q 736 806 653 899 q 819 543 819 713 q 768 247 819 372 q 619 56 717 122 q 382 -11 521 -11 q 149 85 233 -11 q 65 354 65 182 q 178 755 65 611 q 500 899 292 899 m 488 811 q 251 696 329 811 q 172 361 172 581 q 392 76 172 76 q 630 193 550 76 q 710 531 710 310 q 488 811 710 811 m 769 1294 l 690 1203 l 679 1199 q 572 1225 657 1201 q 475 1249 493 1249 q 453 1239 464 1249 q 427 1213 442 1229 q 403 1188 413 1197 l 393 1188 l 361 1219 l 361 1231 l 440 1319 l 453 1324 q 558 1297 474 1321 q 656 1275 642 1275 q 678 1285 667 1275 q 704 1311 689 1294 q 729 1338 719 1328 l 739 1338 l 769 1304 l 769 1294 m 551 1161 q 700 1036 619 1097 l 672 992 l 660 992 q 532 1083 581 1046 q 378 992 475 1049 l 365 992 l 349 1036 q 522 1161 418 1079 l 551 1161 z "},"ỗ":{"ha":750,"x_min":63,"x_max":696,"o":"m 426 699 q 626 624 557 699 q 696 403 696 550 q 653 188 696 282 q 528 42 610 94 q 333 -10 446 -10 q 133 67 203 -10 q 63 293 63 143 q 158 589 63 479 q 426 699 254 699 m 414 617 q 227 536 290 617 q 164 299 164 456 q 206 126 164 179 q 343 74 249 74 q 531 156 468 74 q 593 392 593 238 q 551 563 593 508 q 414 617 508 617 m 693 1097 l 614 1006 l 603 1001 q 496 1028 581 1004 q 399 1051 417 1051 q 376 1042 388 1051 q 351 1016 365 1032 q 326 990 336 1000 l 317 990 l 285 1022 l 285 1033 l 364 1122 l 376 1126 q 482 1100 397 1124 q 579 1078 565 1078 q 601 1088 590 1078 q 628 1114 613 1097 q 653 1140 643 1131 l 663 1140 l 693 1107 l 693 1097 m 475 964 q 624 839 543 900 l 596 794 l 583 794 q 456 886 504 849 q 301 794 399 851 l 289 794 l 272 839 q 446 964 342 882 l 475 964 z "},"Ộ":{"ha":849,"x_min":65,"x_max":819,"o":"m 347 1063 q 521 1186 425 1110 l 551 1186 q 699 1063 608 1131 l 671 1017 l 660 1017 q 531 1110 600 1057 q 376 1017 442 1054 l 364 1017 l 347 1063 m 500 899 q 736 806 653 899 q 819 543 819 713 q 769 247 819 372 q 620 56 718 122 q 383 -11 522 -11 q 149 85 233 -11 q 65 354 65 182 q 178 754 65 610 q 500 899 292 899 m 488 811 q 251 696 329 811 q 172 361 172 581 q 392 76 172 76 q 630 193 550 76 q 710 531 710 310 q 488 811 710 811 m 408 -101 q 451 -117 436 -101 q 467 -160 467 -133 q 450 -206 467 -189 q 406 -224 433 -224 q 362 -208 378 -224 q 346 -164 346 -192 q 363 -119 346 -136 q 408 -101 379 -101 z "},"ộ":{"ha":750,"x_min":63,"x_max":696,"o":"m 261 821 q 450 1007 339 892 l 482 1007 q 625 821 547 911 l 592 779 l 581 779 q 457 925 515 846 q 297 779 394 863 l 285 779 l 261 821 m 426 699 q 626 624 557 699 q 696 403 696 550 q 653 188 696 282 q 528 42 610 94 q 333 -10 446 -10 q 133 67 203 -10 q 63 293 63 143 q 158 589 63 479 q 426 699 254 699 m 413 617 q 227 536 290 617 q 164 299 164 456 q 206 126 164 179 q 342 74 249 74 q 530 156 467 74 q 593 392 593 238 q 551 563 593 510 q 413 617 508 617 m 354 -101 q 397 -117 382 -101 q 413 -160 413 -133 q 396 -206 413 -189 q 351 -224 379 -224 q 308 -208 324 -224 q 292 -164 292 -192 q 308 -119 292 -136 q 354 -101 325 -101 z "},"Ớ":{"ha":853,"x_min":65,"x_max":917,"o":"m 857 1061 q 899 1032 881 1061 q 917 960 917 1003 q 867 844 917 888 q 742 797 817 800 q 818 528 818 706 q 766 247 818 369 q 616 57 714 125 q 383 -11 518 -11 q 65 372 65 -11 q 117 647 65 528 q 267 833 169 767 q 496 899 364 899 q 651 872 565 899 q 728 856 699 856 q 801 879 771 856 q 832 946 832 903 q 800 1029 832 996 l 804 1040 q 857 1061 835 1061 m 488 811 q 253 697 333 811 q 172 381 172 582 q 225 150 172 224 q 393 76 278 76 q 628 193 547 76 q 710 511 710 310 q 656 739 710 667 q 488 811 603 811 m 688 1132 l 683 1119 q 476 1026 600 1079 l 415 1000 l 403 1006 l 383 1053 q 649 1196 531 1126 l 660 1193 l 688 1132 z "},"ớ":{"ha":753,"x_min":63,"x_max":778,"o":"m 676 808 q 722 826 704 826 q 760 802 743 826 q 778 742 778 778 q 738 646 778 685 q 639 606 699 607 q 694 414 694 538 q 651 190 694 285 q 526 42 608 94 q 332 -10 444 -10 q 134 66 206 -10 q 63 278 63 142 q 158 588 63 476 q 425 699 253 699 q 554 679 479 699 q 619 667 597 667 q 676 683 653 667 q 700 732 700 700 q 672 799 700 767 l 676 808 m 343 72 q 593 406 593 72 q 413 618 593 618 q 164 282 164 618 q 343 72 164 72 m 588 935 l 583 922 q 376 829 500 882 l 315 803 l 303 808 l 283 856 q 549 999 431 929 l 560 996 l 588 935 z "},"Ờ":{"ha":853,"x_min":65,"x_max":917,"o":"m 857 1061 q 899 1032 881 1061 q 917 960 917 1003 q 867 844 917 888 q 742 797 817 800 q 818 528 818 706 q 766 247 818 369 q 616 57 714 125 q 383 -11 518 -11 q 65 372 65 -11 q 117 647 65 528 q 267 833 169 767 q 496 899 364 899 q 651 872 565 899 q 728 856 699 856 q 801 879 771 856 q 832 946 832 903 q 800 1029 832 996 l 804 1040 q 857 1061 835 1061 m 488 811 q 253 697 333 811 q 172 381 172 582 q 225 150 172 224 q 393 76 278 76 q 628 193 547 76 q 710 511 710 310 q 656 739 710 667 q 488 811 603 811 m 408 1199 q 674 1057 511 1139 l 654 1010 l 642 1004 q 374 1124 488 1069 l 369 1135 l 396 1196 l 408 1199 z "},"ờ":{"ha":753,"x_min":63,"x_max":778,"o":"m 676 808 q 722 826 704 826 q 760 802 743 826 q 778 742 778 778 q 738 646 778 685 q 639 606 699 607 q 694 414 694 538 q 651 190 694 285 q 526 42 608 94 q 332 -10 444 -10 q 134 66 206 -10 q 63 278 63 142 q 158 588 63 476 q 425 699 253 699 q 554 679 479 699 q 619 667 597 667 q 676 683 653 667 q 700 732 700 700 q 672 799 700 767 l 676 808 m 343 72 q 593 406 593 72 q 413 618 593 618 q 164 282 164 618 q 343 72 164 72 m 308 1001 q 574 860 411 942 l 554 813 l 542 807 q 274 926 388 872 l 269 938 l 296 999 l 308 1001 z "},"Ở":{"ha":853,"x_min":65,"x_max":917,"o":"m 857 1061 q 899 1032 881 1061 q 917 960 917 1003 q 867 844 917 888 q 742 797 817 800 q 818 528 818 706 q 766 247 818 369 q 616 57 714 125 q 383 -11 518 -11 q 65 372 65 -11 q 117 647 65 528 q 267 833 169 767 q 496 899 364 899 q 651 872 565 899 q 728 856 699 856 q 801 879 771 856 q 832 946 832 903 q 800 1029 832 996 l 804 1040 q 857 1061 835 1061 m 488 811 q 253 697 333 811 q 172 381 172 582 q 225 150 172 224 q 393 76 278 76 q 628 193 547 76 q 710 511 710 310 q 656 739 710 667 q 488 811 603 811 m 506 1239 q 567 1217 543 1239 q 592 1163 592 1194 q 521 1060 592 1118 l 547 1013 l 501 988 l 458 1061 q 528 1151 528 1114 q 490 1181 528 1181 q 411 1147 451 1181 l 389 1182 q 506 1239 446 1239 z "},"ở":{"ha":753,"x_min":63,"x_max":778,"o":"m 676 808 q 722 826 704 826 q 760 802 743 826 q 778 742 778 778 q 738 646 778 685 q 639 606 699 607 q 694 414 694 538 q 651 190 694 285 q 526 42 608 94 q 332 -10 444 -10 q 134 66 206 -10 q 63 278 63 142 q 158 588 63 476 q 425 699 253 699 q 554 679 479 699 q 619 667 597 667 q 676 683 653 667 q 700 732 700 700 q 672 799 700 767 l 676 808 m 343 72 q 593 406 593 72 q 413 618 593 618 q 164 282 164 618 q 343 72 164 72 m 407 1042 q 469 1019 444 1042 q 493 965 493 997 q 422 863 493 921 l 449 815 l 403 790 l 360 864 q 429 954 429 917 q 392 983 429 983 q 313 950 353 983 l 290 985 q 407 1042 347 1042 z "},"Ỡ":{"ha":853,"x_min":65,"x_max":917,"o":"m 857 1061 q 899 1032 881 1061 q 917 960 917 1003 q 867 844 917 888 q 742 797 817 800 q 818 528 818 706 q 766 247 818 369 q 616 57 714 125 q 383 -11 518 -11 q 65 372 65 -11 q 117 647 65 528 q 267 833 169 767 q 496 899 364 899 q 651 872 565 899 q 728 856 699 856 q 801 879 771 856 q 832 946 832 903 q 800 1029 832 996 l 804 1040 q 857 1061 835 1061 m 488 811 q 253 697 333 811 q 172 381 172 582 q 225 150 172 224 q 393 76 278 76 q 628 193 547 76 q 710 511 710 310 q 656 739 710 667 q 488 811 603 811 m 738 1132 l 653 1039 l 640 1033 q 528 1061 610 1036 q 425 1085 446 1085 q 368 1042 408 1085 l 347 1021 l 335 1021 l 303 1056 l 303 1065 l 388 1158 l 400 1163 q 515 1135 433 1160 q 615 1113 601 1113 q 639 1123 626 1113 q 668 1150 651 1133 q 694 1176 685 1167 l 704 1176 l 738 1142 l 738 1132 z "},"ỡ":{"ha":753,"x_min":63,"x_max":778,"o":"m 676 808 q 722 826 704 826 q 760 802 743 826 q 778 742 778 778 q 738 646 778 685 q 639 606 699 607 q 694 414 694 538 q 651 190 694 285 q 526 42 608 94 q 332 -10 444 -10 q 134 66 206 -10 q 63 278 63 142 q 158 588 63 476 q 425 699 253 699 q 554 679 479 699 q 619 667 597 667 q 676 683 653 667 q 700 732 700 700 q 672 799 700 767 l 676 808 m 343 72 q 593 406 593 72 q 413 618 593 618 q 164 282 164 618 q 343 72 164 72 m 638 935 l 553 842 l 540 836 q 428 864 510 839 q 325 888 346 888 q 268 844 308 888 l 247 824 l 235 824 l 203 858 l 203 868 l 288 961 l 300 965 q 415 938 333 963 q 515 915 501 915 q 539 926 526 915 q 568 953 551 936 q 594 979 585 969 l 604 979 l 638 944 l 638 935 z "},"Ợ":{"ha":853,"x_min":65,"x_max":917,"o":"m 857 1061 q 899 1032 881 1061 q 917 960 917 1003 q 867 844 917 888 q 742 797 817 800 q 818 528 818 706 q 766 247 818 369 q 616 57 714 125 q 383 -11 518 -11 q 65 372 65 -11 q 117 647 65 528 q 267 833 169 767 q 496 899 364 899 q 651 872 565 899 q 728 856 699 856 q 801 879 771 856 q 832 946 832 903 q 800 1029 832 996 l 804 1040 q 857 1061 835 1061 m 488 811 q 253 697 333 811 q 172 381 172 582 q 225 150 172 224 q 393 76 278 76 q 628 193 547 76 q 710 511 710 310 q 656 739 710 667 q 488 811 603 811 m 408 -101 q 451 -117 436 -101 q 467 -160 467 -133 q 450 -206 467 -189 q 406 -224 433 -224 q 362 -208 378 -224 q 346 -164 346 -192 q 363 -119 346 -136 q 408 -101 379 -101 z "},"ợ":{"ha":753,"x_min":63,"x_max":778,"o":"m 676 808 q 722 826 704 826 q 760 802 743 826 q 778 742 778 778 q 738 646 778 685 q 639 606 699 607 q 694 414 694 538 q 651 190 694 285 q 526 42 608 94 q 332 -10 444 -10 q 134 66 206 -10 q 63 278 63 142 q 158 588 63 476 q 425 699 253 699 q 554 679 479 699 q 619 667 597 667 q 676 683 653 667 q 700 732 700 700 q 672 799 700 767 l 676 808 m 343 72 q 593 406 593 72 q 413 618 593 618 q 164 282 164 618 q 343 72 164 72 m 354 -101 q 397 -117 382 -101 q 413 -160 413 -133 q 396 -206 413 -189 q 351 -224 379 -224 q 308 -208 324 -224 q 292 -164 292 -192 q 308 -119 292 -136 q 354 -101 325 -101 z "},"Ụ":{"ha":829,"x_min":96,"x_max":801,"o":"m 729 336 q 622 81 713 171 q 378 -10 532 -10 q 171 58 246 -10 q 96 250 96 126 q 101 325 96 290 l 118 446 l 172 889 l 274 889 l 200 338 q 196 275 196 304 q 385 83 196 83 q 633 325 604 83 l 697 889 l 801 889 l 742 438 l 729 336 m 383 -101 q 426 -117 411 -101 q 442 -160 442 -133 q 425 -206 442 -189 q 381 -224 408 -224 q 337 -208 353 -224 q 321 -164 321 -192 q 338 -119 321 -136 q 383 -101 354 -101 z "},"ụ":{"ha":736,"x_min":89,"x_max":682,"o":"m 622 240 q 533 57 608 122 q 329 -8 457 -8 q 151 43 214 -8 q 89 190 89 94 q 93 240 89 214 l 108 346 l 149 692 l 247 692 l 186 257 q 183 217 183 229 q 338 76 183 76 q 535 257 511 76 l 583 692 l 682 692 l 635 339 l 622 240 m 326 -101 q 369 -117 354 -101 q 385 -160 385 -133 q 368 -206 385 -189 q 324 -224 351 -224 q 280 -208 296 -224 q 264 -164 264 -192 q 281 -119 264 -136 q 326 -101 297 -101 z "},"Ủ":{"ha":829,"x_min":96,"x_max":801,"o":"m 729 336 q 622 81 713 171 q 378 -10 532 -10 q 171 58 246 -10 q 96 250 96 126 q 101 325 96 290 l 118 446 l 172 889 l 274 889 l 200 338 q 196 275 196 304 q 385 83 196 83 q 633 325 604 83 l 697 889 l 801 889 l 742 438 l 729 336 m 497 1239 q 559 1217 535 1239 q 583 1163 583 1194 q 513 1060 583 1118 l 539 1013 l 493 988 l 450 1061 q 519 1151 519 1114 q 482 1181 519 1181 q 403 1147 443 1181 l 381 1182 q 497 1239 438 1239 z "},"ủ":{"ha":736,"x_min":89,"x_max":682,"o":"m 622 240 q 533 57 608 122 q 329 -8 457 -8 q 151 43 214 -8 q 89 190 89 94 q 93 240 89 214 l 108 346 l 149 692 l 247 692 l 186 257 q 183 217 183 229 q 338 76 183 76 q 535 257 511 76 l 583 692 l 682 692 l 635 339 l 622 240 m 424 1042 q 485 1019 461 1042 q 510 965 510 997 q 439 863 510 921 l 465 815 l 419 790 l 376 864 q 446 954 446 917 q 408 983 446 983 q 329 950 369 983 l 307 985 q 424 1042 364 1042 z "},"Ứ":{"ha":838,"x_min":96,"x_max":904,"o":"m 904 968 q 875 888 904 922 q 794 840 846 854 l 742 438 l 729 336 q 622 81 711 171 q 378 -10 532 -10 q 171 58 246 -10 q 96 250 96 126 q 101 325 96 290 l 118 446 l 171 889 l 274 889 l 200 338 q 196 275 196 304 q 385 83 196 83 q 632 325 606 83 l 697 889 l 736 889 q 822 961 822 889 q 781 1044 822 1003 l 785 1054 q 835 1075 815 1075 q 882 1043 860 1075 q 904 968 904 1011 m 667 1132 l 663 1119 q 456 1026 579 1079 l 394 1000 l 382 1006 l 363 1053 q 628 1196 510 1126 l 639 1193 l 667 1132 z "},"ứ":{"ha":750,"x_min":89,"x_max":779,"o":"m 779 764 q 751 693 779 724 q 676 647 724 663 l 635 339 l 622 240 q 533 57 608 122 q 329 -8 457 -8 q 152 43 215 -8 q 89 190 89 94 q 93 240 89 214 l 108 346 l 149 692 l 247 692 l 186 257 q 183 217 183 229 q 339 76 183 76 q 535 257 511 76 l 583 692 l 622 692 q 700 754 700 692 q 671 811 700 783 l 675 819 q 726 839 703 839 q 762 817 744 839 q 779 764 779 794 m 603 935 l 599 922 q 392 829 515 882 l 331 803 l 318 808 l 299 856 q 564 999 446 929 l 575 996 l 603 935 z "},"Ừ":{"ha":838,"x_min":96,"x_max":904,"o":"m 904 968 q 875 888 904 922 q 794 840 846 854 l 742 438 l 729 336 q 622 81 711 171 q 378 -10 532 -10 q 171 58 246 -10 q 96 250 96 126 q 101 325 96 290 l 118 446 l 171 889 l 274 889 l 200 338 q 196 275 196 304 q 385 83 196 83 q 632 325 606 83 l 697 889 l 736 889 q 822 961 822 889 q 781 1044 822 1003 l 785 1054 q 835 1075 815 1075 q 882 1043 860 1075 q 904 968 904 1011 m 388 1199 q 653 1057 490 1139 l 633 1010 l 621 1004 q 353 1124 467 1069 l 349 1135 l 375 1196 l 388 1199 z "},"ừ":{"ha":750,"x_min":89,"x_max":779,"o":"m 779 764 q 751 693 779 724 q 676 647 724 663 l 635 339 l 622 240 q 533 57 608 122 q 329 -8 457 -8 q 152 43 215 -8 q 89 190 89 94 q 93 240 89 214 l 108 346 l 149 692 l 247 692 l 186 257 q 183 217 183 229 q 339 76 183 76 q 535 257 511 76 l 583 692 l 622 692 q 700 754 700 692 q 671 811 700 783 l 675 819 q 726 839 703 839 q 762 817 744 839 q 779 764 779 794 m 324 1001 q 589 860 426 942 l 569 813 l 557 807 q 289 926 403 872 l 285 938 l 311 999 l 324 1001 z "},"Ử":{"ha":838,"x_min":96,"x_max":904,"o":"m 904 968 q 875 888 904 922 q 794 840 846 854 l 742 438 l 729 336 q 622 81 711 171 q 378 -10 532 -10 q 171 58 246 -10 q 96 250 96 126 q 101 325 96 290 l 118 446 l 171 889 l 274 889 l 200 338 q 196 275 196 304 q 385 83 196 83 q 632 325 606 83 l 697 889 l 736 889 q 822 961 822 889 q 781 1044 822 1003 l 785 1054 q 835 1075 815 1075 q 882 1043 860 1075 q 904 968 904 1011 m 485 1239 q 547 1217 522 1239 q 571 1163 571 1194 q 500 1060 571 1118 l 526 1013 l 481 988 l 438 1061 q 507 1151 507 1114 q 469 1181 507 1181 q 390 1147 431 1181 l 368 1182 q 485 1239 425 1239 z "},"ử":{"ha":750,"x_min":89,"x_max":779,"o":"m 779 764 q 751 693 779 724 q 676 647 724 663 l 635 339 l 622 240 q 533 57 608 122 q 329 -8 457 -8 q 152 43 215 -8 q 89 190 89 94 q 93 240 89 214 l 108 346 l 149 692 l 247 692 l 186 257 q 183 217 183 229 q 339 76 183 76 q 535 257 511 76 l 583 692 l 622 692 q 700 754 700 692 q 671 811 700 783 l 675 819 q 726 839 703 839 q 762 817 744 839 q 779 764 779 794 m 421 1042 q 483 1019 458 1042 q 507 965 507 997 q 436 863 507 921 l 463 815 l 417 790 l 374 864 q 443 954 443 917 q 406 983 443 983 q 326 950 367 983 l 304 985 q 421 1042 361 1042 z "},"Ữ":{"ha":838,"x_min":96,"x_max":904,"o":"m 904 968 q 875 888 904 922 q 794 840 846 854 l 742 438 l 729 336 q 622 81 711 171 q 378 -10 532 -10 q 171 58 246 -10 q 96 250 96 126 q 101 325 96 290 l 118 446 l 171 889 l 274 889 l 200 338 q 196 275 196 304 q 385 83 196 83 q 632 325 606 83 l 697 889 l 736 889 q 822 961 822 889 q 781 1044 822 1003 l 785 1054 q 835 1075 815 1075 q 882 1043 860 1075 q 904 968 904 1011 m 717 1132 l 632 1039 l 619 1033 q 507 1061 589 1036 q 404 1085 425 1085 q 347 1042 388 1085 l 326 1021 l 314 1021 l 282 1056 l 282 1065 l 367 1158 l 379 1163 q 494 1135 413 1160 q 594 1113 581 1113 q 618 1123 606 1113 q 647 1150 631 1133 q 674 1176 664 1167 l 683 1176 l 717 1142 l 717 1132 z "},"ữ":{"ha":750,"x_min":89,"x_max":779,"o":"m 779 764 q 751 693 779 724 q 676 647 724 663 l 635 339 l 622 240 q 533 57 608 122 q 329 -8 457 -8 q 152 43 215 -8 q 89 190 89 94 q 93 240 89 214 l 108 346 l 149 692 l 247 692 l 186 257 q 183 217 183 229 q 339 76 183 76 q 535 257 511 76 l 583 692 l 622 692 q 700 754 700 692 q 671 811 700 783 l 675 819 q 726 839 703 839 q 762 817 744 839 q 779 764 779 794 m 653 935 l 568 842 l 556 836 q 443 864 525 839 q 340 888 361 888 q 283 844 324 888 l 263 824 l 250 824 l 218 858 l 218 868 l 303 961 l 315 965 q 431 938 349 963 q 531 915 517 915 q 554 926 542 915 q 583 953 567 936 q 610 979 600 969 l 619 979 l 653 944 l 653 935 z "},"Ự":{"ha":838,"x_min":96,"x_max":904,"o":"m 904 968 q 875 888 904 922 q 794 840 846 854 l 742 438 l 729 336 q 622 81 711 171 q 378 -10 532 -10 q 171 58 246 -10 q 96 250 96 126 q 101 325 96 290 l 118 446 l 171 889 l 274 889 l 200 338 q 196 275 196 304 q 385 83 196 83 q 632 325 606 83 l 697 889 l 736 889 q 822 961 822 889 q 781 1044 822 1003 l 785 1054 q 835 1075 815 1075 q 882 1043 860 1075 q 904 968 904 1011 m 372 -101 q 415 -117 400 -101 q 431 -160 431 -133 q 414 -206 431 -189 q 369 -224 397 -224 q 326 -208 342 -224 q 310 -164 310 -192 q 326 -119 310 -136 q 372 -101 343 -101 z "},"ự":{"ha":750,"x_min":89,"x_max":779,"o":"m 779 764 q 751 693 779 724 q 676 647 724 663 l 635 339 l 622 240 q 533 57 608 122 q 329 -8 457 -8 q 152 43 215 -8 q 89 190 89 94 q 93 240 89 214 l 108 346 l 149 692 l 247 692 l 186 257 q 183 217 183 229 q 339 76 183 76 q 535 257 511 76 l 583 692 l 622 692 q 700 754 700 692 q 671 811 700 783 l 675 819 q 726 839 703 839 q 762 817 744 839 q 779 764 779 794 m 326 -101 q 369 -117 354 -101 q 385 -160 385 -133 q 368 -206 385 -189 q 324 -224 351 -224 q 280 -208 296 -224 q 264 -164 264 -192 q 281 -119 264 -136 q 326 -101 297 -101 z "},"Ỳ":{"ha":697,"x_min":92,"x_max":750,"o":"m 375 260 l 347 0 l 242 0 l 282 260 l 289 324 l 92 889 l 201 889 l 211 840 l 347 436 l 358 436 l 610 838 l 636 889 l 750 889 l 385 324 l 375 260 m 332 1199 q 597 1057 435 1139 l 578 1010 l 565 1004 q 297 1124 411 1069 l 293 1135 l 319 1196 l 332 1199 z "},"ỳ":{"ha":629,"x_min":83,"x_max":642,"o":"m 336 199 l 314 0 l 217 0 l 246 199 l 251 247 l 83 692 l 188 692 l 197 651 l 308 350 l 317 350 l 517 649 l 539 692 l 642 692 l 343 242 l 336 199 m 283 1021 q 510 819 381 928 l 481 778 l 469 776 q 235 953 363 851 l 233 965 l 272 1019 l 283 1021 z "},"Ỵ":{"ha":697,"x_min":92,"x_max":750,"o":"m 375 260 l 347 0 l 242 0 l 282 260 l 289 324 l 92 889 l 201 889 l 211 840 l 347 436 l 358 436 l 610 838 l 636 889 l 750 889 l 385 324 l 375 260 m 285 -101 q 328 -117 313 -101 q 343 -160 343 -133 q 326 -206 343 -189 q 282 -224 310 -224 q 238 -208 254 -224 q 222 -164 222 -192 q 239 -119 222 -136 q 285 -101 256 -101 z "},"ỵ":{"ha":629,"x_min":83,"x_max":642,"o":"m 336 199 l 314 0 l 217 0 l 246 199 l 251 247 l 83 692 l 188 692 l 197 651 l 308 350 l 317 350 l 517 649 l 539 692 l 642 692 l 343 242 l 336 199 m 257 -101 q 300 -117 285 -101 q 315 -160 315 -133 q 299 -206 315 -189 q 254 -224 282 -224 q 210 -208 226 -224 q 194 -164 194 -192 q 211 -119 194 -136 q 257 -101 228 -101 z "},"Ỷ":{"ha":697,"x_min":92,"x_max":750,"o":"m 375 260 l 347 0 l 242 0 l 282 260 l 289 324 l 92 889 l 201 889 l 211 840 l 347 436 l 358 436 l 610 838 l 636 889 l 750 889 l 385 324 l 375 260 m 431 1239 q 492 1217 468 1239 q 517 1163 517 1194 q 446 1060 517 1118 l 472 1013 l 426 988 l 383 1061 q 453 1151 453 1114 q 415 1181 453 1181 q 336 1147 376 1181 l 314 1182 q 431 1239 371 1239 z "},"ỷ":{"ha":629,"x_min":83,"x_max":642,"o":"m 336 199 l 314 0 l 217 0 l 246 199 l 251 247 l 83 692 l 188 692 l 197 651 l 308 350 l 317 350 l 517 649 l 539 692 l 642 692 l 343 242 l 336 199 m 369 1042 q 431 1019 407 1042 q 456 965 456 997 q 385 863 456 921 l 411 815 l 365 790 l 322 864 q 392 954 392 917 q 354 983 392 983 q 275 950 315 983 l 253 985 q 369 1042 310 1042 z "},"Ỹ":{"ha":697,"x_min":92,"x_max":750,"o":"m 375 260 l 347 0 l 242 0 l 282 260 l 289 324 l 92 889 l 201 889 l 211 840 l 347 436 l 358 436 l 610 838 l 636 889 l 750 889 l 385 324 l 375 260 m 663 1132 l 578 1039 l 565 1033 q 453 1061 535 1036 q 350 1085 371 1085 q 293 1042 333 1085 l 272 1021 l 260 1021 l 228 1056 l 228 1065 l 313 1158 l 325 1163 q 440 1135 358 1160 q 540 1113 526 1113 q 564 1123 551 1113 q 593 1150 576 1133 q 619 1176 610 1167 l 629 1176 l 663 1142 l 663 1132 z "},"ỹ":{"ha":629,"x_min":83,"x_max":642,"o":"m 336 199 l 314 0 l 217 0 l 246 199 l 251 247 l 83 692 l 188 692 l 197 651 l 308 350 l 317 350 l 517 649 l 539 692 l 642 692 l 343 242 l 336 199 m 601 935 l 517 842 l 504 836 q 392 864 474 839 q 289 888 310 888 q 232 844 272 888 l 211 824 l 199 824 l 167 858 l 167 868 l 251 961 l 264 965 q 379 938 297 963 q 479 915 465 915 q 503 926 490 915 q 532 953 515 936 q 558 979 549 969 l 568 979 l 601 944 l 601 935 z "},"–":{"ha":665,"x_min":-19,"x_max":694,"o":"m 682 318 l -12 318 l -19 326 l -6 392 l 689 392 l 694 383 l 682 318 z "},"—":{"ha":1294,"x_min":-21,"x_max":1326,"o":"m 1313 318 l -14 318 l -21 326 l -7 392 l 1319 392 l 1326 383 l 1313 318 z "},"‘":{"ha":226,"x_min":88,"x_max":228,"o":"m 161 607 q 88 710 88 636 q 188 892 88 793 l 228 864 l 228 856 q 169 739 169 792 q 224 664 169 685 l 224 653 q 161 607 204 635 z "},"’":{"ha":228,"x_min":89,"x_max":229,"o":"m 156 892 q 229 789 229 863 q 129 607 229 706 l 89 635 l 89 643 q 147 760 147 707 q 93 835 147 814 l 93 846 q 156 892 113 864 z "},"‚":{"ha":318,"x_min":25,"x_max":188,"o":"m 131 117 q 188 25 188 81 q 60 -157 188 -64 l 25 -124 l 25 -115 q 101 7 101 -54 q 58 71 101 43 l 58 82 q 131 117 92 104 z "},"“":{"ha":392,"x_min":79,"x_max":397,"o":"m 331 607 q 257 710 257 636 q 357 892 257 793 l 397 864 l 397 856 q 339 739 339 792 q 393 664 339 685 l 393 653 q 331 607 374 635 m 153 607 q 79 710 79 636 q 179 892 79 793 l 219 864 l 219 856 q 161 739 161 792 q 215 664 161 685 l 215 653 q 153 607 196 635 z "},"”":{"ha":401,"x_min":85,"x_max":399,"o":"m 325 892 q 399 789 399 863 q 299 607 399 706 l 258 635 l 258 643 q 317 760 317 707 q 263 835 317 814 l 263 846 q 325 892 282 864 m 151 892 q 225 789 225 863 q 125 607 225 706 l 85 635 l 85 643 q 143 760 143 707 q 89 835 143 814 l 89 846 q 151 892 108 864 z "},"„":{"ha":497,"x_min":25,"x_max":364,"o":"m 307 117 q 364 25 364 81 q 236 -157 364 -64 l 201 -124 l 201 -115 q 278 7 278 -54 q 235 71 278 43 l 235 82 q 307 117 268 104 m 131 117 q 188 25 188 81 q 60 -157 188 -64 l 25 -124 l 25 -115 q 101 7 101 -54 q 58 71 101 43 l 58 82 q 131 117 92 104 z "},"†":{"ha":668,"x_min":81,"x_max":639,"o":"m 390 486 l 379 399 l 315 -126 l 247 -131 l 242 -121 l 306 393 l 317 486 l 88 486 l 81 494 l 96 558 l 326 558 l 357 813 l 426 819 l 432 813 l 400 558 l 631 558 l 639 551 l 624 486 l 390 486 z "},"‡":{"ha":667,"x_min":35,"x_max":639,"o":"m 353 192 l 585 192 l 593 183 l 579 118 l 344 118 l 314 -126 l 247 -131 l 242 -121 l 271 118 l 42 118 l 35 126 l 50 192 l 279 192 l 304 393 l 317 493 l 88 493 l 81 501 l 96 565 l 325 565 l 356 813 l 426 819 l 431 813 l 400 565 l 631 565 l 639 558 l 625 493 l 390 493 l 379 399 l 353 192 z "},"•":{"ha":353,"x_min":113,"x_max":249,"o":"m 183 427 q 231 410 214 427 q 248 362 248 393 q 229 310 248 330 q 180 289 211 289 q 131 308 149 289 q 113 358 113 327 q 132 408 113 389 q 183 427 150 427 z "},"․":{"ha":319,"x_min":67,"x_max":188,"o":"m 129 117 q 172 101 157 117 q 188 58 188 86 q 171 11 188 29 q 126 -7 154 -7 q 83 10 99 -7 q 67 54 67 26 q 83 99 67 82 q 129 117 100 117 z "},"‥":{"ha":563,"x_min":61,"x_max":424,"o":"m 365 117 q 408 101 393 117 q 424 58 424 86 q 407 11 424 29 q 363 -7 390 -7 q 319 10 335 -7 q 303 54 303 26 q 319 99 303 82 q 365 117 336 117 m 124 117 q 167 101 151 117 q 182 58 182 86 q 165 11 182 29 q 121 -7 149 -7 q 77 10 93 -7 q 61 54 61 26 q 78 99 61 82 q 124 117 94 117 z "},"…":{"ha":804,"x_min":31,"x_max":633,"o":"m 333 117 q 376 101 361 117 q 392 58 392 86 q 375 11 392 29 q 331 -7 358 -7 q 287 10 303 -7 q 271 54 271 26 q 288 99 271 82 q 333 117 304 117 m 575 117 q 618 101 603 117 q 633 58 633 86 q 617 11 633 29 q 572 -7 600 -7 q 528 10 544 -7 q 513 54 513 26 q 529 99 513 82 q 575 117 546 117 m 93 117 q 136 101 121 117 q 151 58 151 86 q 135 11 151 29 q 90 -7 118 -7 q 47 10 63 -7 q 31 54 31 26 q 47 99 31 82 q 93 117 64 117 z "},"‰":{"ha":1669,"x_min":94,"x_max":1604,"o":"m 974 896 l 190 -126 l 149 -100 l 143 -83 l 926 940 l 968 914 l 974 896 m 338 894 q 465 845 421 894 q 508 703 508 796 q 446 484 508 563 q 265 406 383 406 q 138 456 182 406 q 94 597 94 506 q 158 816 94 738 q 338 894 221 894 m 322 822 q 206 767 246 822 q 167 611 167 711 q 278 475 167 475 q 396 530 356 475 q 436 685 436 585 q 322 822 436 822 m 914 483 q 1042 434 997 483 q 1086 292 1086 385 q 1023 73 1086 151 q 843 -6 960 -6 q 715 44 760 -6 q 671 186 671 94 q 735 404 671 325 q 914 483 799 483 m 1433 483 q 1560 434 1517 483 q 1604 292 1604 385 q 1542 73 1604 151 q 1363 -6 1479 -6 q 1235 44 1279 -6 q 1190 186 1190 94 q 1254 404 1190 325 q 1433 483 1318 483 m 899 411 q 783 356 822 411 q 743 200 743 300 q 854 64 743 64 q 972 119 932 64 q 1013 274 1013 174 q 899 411 1013 411 m 1418 411 q 1302 356 1342 411 q 1263 200 1263 300 q 1374 64 1263 64 q 1492 119 1451 64 q 1532 274 1532 174 q 1418 411 1532 411 z "},"′":{"ha":225,"x_min":110,"x_max":235,"o":"m 172 628 l 118 619 l 110 629 l 147 881 l 229 886 l 235 878 l 172 628 z "},"″":{"ha":381,"x_min":110,"x_max":389,"o":"m 326 628 l 272 619 l 264 629 l 301 881 l 383 886 l 389 878 l 326 628 m 172 628 l 118 619 l 110 629 l 147 881 l 229 886 l 235 878 l 172 628 z "},"‹":{"ha":317,"x_min":42,"x_max":322,"o":"m 44 326 l 276 561 l 322 533 l 322 519 l 122 313 l 272 104 l 268 92 l 215 63 l 42 304 l 44 326 z "},"›":{"ha":322,"x_min":11,"x_max":292,"o":"m 289 300 l 57 65 l 11 93 l 11 107 l 211 314 l 61 522 l 65 535 l 118 564 l 292 322 l 289 300 z "},"⁄":{"ha":103,"x_min":-379,"x_max":451,"o":"m 451 896 l -332 -126 l -374 -100 l -379 -83 l 404 940 l 446 914 l 451 896 z "},"⁰":{"ha":524,"x_min":103,"x_max":517,"o":"m 346 978 q 473 924 429 978 q 517 769 517 869 q 454 529 517 615 q 274 443 392 443 q 147 498 190 443 q 103 654 103 553 q 166 892 103 807 q 346 978 229 978 m 331 899 q 215 838 254 899 q 175 669 175 778 q 286 519 175 519 q 404 579 364 519 q 444 749 444 639 q 331 899 444 899 z "},"⁴":{"ha":485,"x_min":71,"x_max":479,"o":"m 383 592 l 371 456 l 365 449 l 294 444 l 290 450 l 310 592 l 144 592 l 76 589 l 71 597 l 78 653 l 350 972 l 431 972 l 390 658 l 474 658 l 479 650 l 467 589 l 383 592 m 319 658 l 347 872 l 340 872 l 158 658 l 319 658 z "},"⁵":{"ha":421,"x_min":61,"x_max":449,"o":"m 431 904 l 424 899 l 360 904 l 222 904 l 203 778 l 261 764 q 404 636 404 733 q 333 496 404 550 q 151 442 263 442 q 61 451 113 442 l 64 514 l 71 519 q 163 510 115 510 q 275 540 233 510 q 317 622 317 571 q 214 703 317 681 l 133 718 l 128 726 l 160 963 l 174 974 l 224 972 l 361 972 l 444 975 l 449 971 l 431 904 z "},"⁶":{"ha":467,"x_min":89,"x_max":453,"o":"m 313 764 q 417 727 381 764 q 453 631 453 690 q 400 494 453 546 q 251 442 347 442 q 131 485 174 442 q 89 608 89 528 q 169 827 89 731 q 394 979 249 924 l 400 979 l 450 942 l 449 933 q 194 736 246 863 l 200 728 q 313 764 254 764 m 374 621 q 350 681 374 660 q 285 701 326 701 q 174 665 229 701 l 171 640 q 169 613 169 631 q 260 499 169 499 q 343 531 313 499 q 374 621 374 563 z "},"⁷":{"ha":417,"x_min":106,"x_max":458,"o":"m 417 972 l 458 974 l 451 910 l 239 554 l 179 439 l 110 458 l 106 472 l 363 901 l 186 901 l 110 896 l 106 906 l 122 974 l 211 972 l 417 972 z "},"⁸":{"ha":472,"x_min":85,"x_max":460,"o":"m 321 978 q 422 947 385 978 q 460 864 460 917 q 431 783 460 814 q 347 728 401 751 l 346 722 q 419 675 393 700 q 444 607 444 650 q 389 487 444 532 q 243 442 333 442 q 127 476 169 442 q 85 567 85 511 q 217 710 85 661 l 217 713 q 136 822 136 754 q 187 935 136 893 q 321 978 238 978 m 313 918 q 240 894 267 918 q 213 832 213 871 q 233 783 213 801 q 293 747 253 765 q 363 789 338 765 q 388 853 388 813 q 367 901 388 883 q 313 918 347 918 m 271 685 q 161 575 161 651 q 185 522 161 542 q 253 501 208 501 q 339 528 307 501 q 371 594 371 554 q 346 647 371 629 q 271 685 321 665 z "},"⁹":{"ha":467,"x_min":117,"x_max":481,"o":"m 317 979 q 438 936 394 979 q 481 814 481 893 q 400 594 481 692 q 175 442 319 496 l 169 442 l 119 479 l 121 489 q 287 574 225 526 q 375 686 349 621 l 368 693 q 256 657 313 657 q 148 699 185 657 q 117 808 111 740 q 176 933 124 886 q 317 979 228 979 m 285 718 q 394 756 338 718 l 397 782 q 399 817 399 794 q 311 924 399 924 q 197 815 208 924 q 216 743 193 768 q 285 718 239 718 z "},"₣":{"ha":551,"x_min":13,"x_max":579,"o":"m 218 378 l 349 378 l 475 379 l 479 369 l 465 308 l 333 310 l 210 310 l 197 215 l 194 193 l 357 193 l 361 188 l 353 140 l 189 140 l 175 0 l 89 0 l 107 140 l 17 140 l 13 146 l 21 193 l 115 193 l 117 208 l 172 690 l 574 690 l 579 681 l 564 619 l 390 622 l 251 622 l 218 378 z "},"€":{"ha":685,"x_min":18,"x_max":674,"o":"m 490 696 q 674 644 593 696 l 649 575 l 639 572 q 479 624 572 624 q 243 444 300 624 l 504 444 l 510 439 l 497 383 l 226 383 q 217 286 217 339 l 485 286 l 489 279 l 478 224 l 219 224 q 404 65 243 65 q 590 122 503 65 l 601 115 l 586 47 q 392 -8 490 -8 q 204 51 271 -8 q 128 224 138 110 l 22 224 l 18 231 l 29 286 l 128 286 q 139 383 133 353 l 40 383 l 36 390 l 47 444 l 153 444 q 277 631 192 567 q 490 696 363 696 z "},"ℓ":{"ha":506,"x_min":82,"x_max":451,"o":"m 433 0 l 82 0 l 113 208 l 169 692 l 267 692 l 203 217 l 188 82 l 444 82 l 451 74 l 433 0 z "},"™":{"ha":808,"x_min":104,"x_max":768,"o":"m 363 883 l 353 840 l 290 843 l 258 843 l 235 665 l 225 563 l 168 563 l 182 660 l 204 843 l 172 843 l 107 840 l 104 846 l 113 889 l 360 889 l 363 883 m 760 563 l 708 563 l 714 661 l 715 799 l 710 799 l 597 597 l 550 597 l 490 799 l 488 799 l 454 668 l 433 563 l 382 563 l 458 889 l 529 889 l 539 840 l 583 675 l 588 675 l 679 840 l 701 889 l 768 889 l 760 563 z "},"Ω":{"ha":985,"x_min":15,"x_max":906,"o":"m 563 899 q 747 853 672 899 q 859 732 822 808 q 896 560 896 656 q 833 303 896 429 q 656 86 771 176 l 658 82 l 793 82 l 900 90 l 906 83 l 882 -6 l 753 0 l 579 0 l 528 -3 l 522 3 l 532 86 q 719 294 651 168 q 788 553 788 421 q 729 741 788 669 q 554 813 671 813 q 388 764 457 813 q 284 633 319 715 q 249 447 249 550 q 288 245 249 343 q 397 86 326 147 l 388 3 l 381 -3 l 329 0 l 138 0 l 22 -4 l 15 6 l 40 90 l 151 82 l 272 82 l 274 86 q 175 247 210 151 q 140 442 140 342 q 190 671 140 567 q 335 837 239 775 q 563 899 431 899 z "},"℮":{"ha":1104,"x_min":71,"x_max":1093,"o":"m 583 904 q 839 842 722 904 q 1024 674 956 781 q 1093 443 1093 568 l 1093 432 l 265 432 q 257 426 257 432 l 257 175 q 271 146 257 163 q 412 47 331 82 q 585 11 493 11 q 770 51 683 11 q 918 163 857 92 l 988 163 q 810 31 917 79 q 583 -17 703 -17 q 327 45 444 -17 q 140 213 210 107 q 71 443 71 318 q 140 674 71 568 q 327 842 210 781 q 583 904 444 904 m 585 876 q 414 841 494 876 q 272 743 333 806 q 257 711 257 728 l 257 465 q 265 458 257 458 l 901 458 q 908 465 908 458 l 908 717 q 894 747 908 733 q 753 842 833 808 q 585 876 674 876 z "},"←":{"ha":715,"x_min":32,"x_max":679,"o":"m 40 1044 l 40 1028 l -228 753 l -286 769 l -286 786 l -78 1001 l -600 997 l -607 1004 l -603 1072 l -76 1068 l -286 1285 l -286 1300 l -228 1318 l 40 1044 z "},"↑":{"ha":715,"x_min":72,"x_max":638,"o":"m 346 647 l 363 647 l 638 379 l 621 321 l 604 321 l 389 529 l 393 7 l 386 0 l 318 4 l 322 531 l 106 321 l 90 321 l 72 379 l 346 647 z "},"→":{"ha":715,"x_min":32,"x_max":679,"o":"m 671 -400 l 671 -383 l 939 -108 l 997 -125 l 997 -142 l 789 -357 l 1311 -353 l 1318 -360 l 1314 -428 l 788 -424 l 997 -640 l 997 -656 l 939 -674 l 671 -400 z "},"↓":{"ha":715,"x_min":75,"x_max":640,"o":"m 367 -4 l 350 -4 l 75 264 l 92 322 l 108 322 l 324 114 l 319 636 l 326 643 l 394 639 l 390 113 l 607 322 l 622 322 l 640 264 l 367 -4 z "},"↖":{"ha":715,"x_min":135,"x_max":626,"o":"m 145 1064 l 157 1052 l 162 668 l 109 638 l 97 650 l 92 950 l -274 578 l -284 578 l -329 629 l 46 998 l -256 1003 l -266 1013 l -238 1067 l 145 1064 z "},"↗":{"ha":715,"x_min":83,"x_max":576,"o":"m 553 44 l 565 56 l 949 60 l 978 7 l 966 -4 l 667 -9 l 1039 -376 l 1039 -385 l 988 -431 l 619 -55 l 614 -357 l 603 -368 l 549 -339 l 553 44 z "},"↘":{"ha":715,"x_min":85,"x_max":576,"o":"m 566 -423 l 554 -411 l 549 -28 l 602 2 l 614 -10 l 619 -309 l 985 63 l 995 63 l 1040 12 l 665 -357 l 967 -362 l 977 -373 l 949 -427 l 566 -423 z "}}}
